{
.appVersion = "1230";
DisplayStrings = (
"#"
);
customParameters = (
{
name = fsType;
value = (
);
},
{
name = licenseURL;
value = "http://scripts.sil.org/OFL";
},
{
name = license;
value = "This Font Software is licensed under the SIL Open Font License, Version 1.1. This license is available with a FAQ at: http://scripts.sil.org/OFL";
},
{
name = "Use Typo Metrics";
value = 1;
},
{
name = "Disable Last Change";
value = 1;
},
{
name = "Use Line Breaks";
value = 1;
},
{
name = Axes;
value = (
{
Name = Weight;
Tag = wght;
}
);
},
{
name = openTypeOS2StrikeoutPosition;
value = 250;
},
{
name = openTypeOS2StrikeoutSize;
value = 50;
},
{
name = openTypeOS2SubscriptXOffset;
value = 0;
},
{
name = openTypeOS2SubscriptXSize;
value = 700;
},
{
name = openTypeOS2SubscriptYOffset;
value = 140;
},
{
name = openTypeOS2SubscriptYSize;
value = 650;
},
{
name = openTypeOS2SuperscriptXOffset;
value = 0;
},
{
name = openTypeOS2SuperscriptXSize;
value = 700;
},
{
name = openTypeOS2SuperscriptYOffset;
value = 477;
},
{
name = openTypeOS2SuperscriptYSize;
value = 650;
},
{
name = flags;
value = header;
},
{
name = sampleText;
value = "Hello Dears :D";
},
{
name = "";
value = "New Value";
}
);
date = "2019-09-16 14:55:29 +0000";
designer = "AbdElmomen Kadhim";
familyName = Darine;
featurePrefixes = (
{
code = "languagesystem DFLT dflt;
languagesystem arab dflt;
languagesystem latn dflt;
languagesystem latn ROM;
languagesystem latn MOL;
languagesystem arab URD;";
name = Languagesystems;
}
);
features = (
{
automatic = 1;
code = "feature init;
feature medi;
feature fina;
";
name = aalt;
},
{
automatic = 1;
code = "lookup ccmp_arab_1 {
	sub hamzaabove-ar damma-ar by hamzaaboveDamma-ar;
	sub damma-ar hamzaabove-ar by hamzaaboveDamma-ar;
	sub hamzaabove-ar dammatan-ar by hamzaaboveDammatan-ar;
	sub dammatan-ar hamzaabove-ar by hamzaaboveDammatan-ar;
	sub hamzaabove-ar fatha-ar by hamzaaboveFatha-ar;
	sub fatha-ar hamzaabove-ar by hamzaaboveFatha-ar;

glyphs = (
{
glyphname = "hamza-ar";
layers = (
{
anchors = (
{
name = _top;
position = "{262, 443}";
},
{
name = top;
position = "{252, 819}";
}
);
layerId = "7C6EC3B8-53E3-46D5-865A-ED8DFE2E3A2E";
paths = (
{
closed = 1;
nodes = (
"173 523 OFFCURVE",
"154 568 OFFCURVE",
"154 628 CURVE SMOOTH",
"154 771 OFFCURVE",
"328 792 OFFCURVE",
"381 715 CURVE",
"405 731 LINE",
"342 824 OFFCURVE",
"124 797 OFFCURVE",
"124 628 CURVE SMOOTH",
"124 561 OFFCURVE",
"147 506 OFFCURVE",
"195 461 CURVE",
"215 483 LINE"
);
},
{
closed = 1;
nodes = (
"193 446 OFFCURVE",
"335 447 OFFCURVE",
"450 508 CURVE",
"436 534 LINE",
"327 477 OFFCURVE",
"195 476 OFFCURVE",
"54 496 CURVE",
"50 466 LINE"
);
}
);
width = 600;
},
{
anchors = (
{
name = bottom;
position = "{262, 0}";
},
{
name = top;
position = "{271, 613}";
}
);
layerId = "EA99615A-DD74-4F65-B9DC-480CDB683AEE";
paths = (
{
closed = 1;
nodes = (
"187 530 OFFCURVE",
"169 572 OFFCURVE",
"169 628 CURVE SMOOTH",
"169 727 OFFCURVE",
"315 783 OFFCURVE",
"368 706 CURVE",
"442 756 LINE",
"340 907 OFFCURVE",
"79 816 OFFCURVE",
"79 628 CURVE SMOOTH",
"79 549 OFFCURVE",
"108 481 OFFCURVE",
"164 428 CURVE",
"226 494 LINE"
);
},
{
closed = 1;
nodes = (
"338 500 OFFCURVE",
"220 488 OFFCURVE",
"56 511 CURVE",
"44 421 LINE",
"224 396 OFFCURVE",
"363 411 OFFCURVE",
"471 468 CURVE",
"429 548 LINE"
);
}
);
width = 600;
},
{
anchors = (
{
name = bottom;
position = "{300, 0}";
},
{
name = top;
position = "{300, 500}";
}
);
layerId = "9AB624CD-9C19-4372-9845-4C197A276709";
paths = (
{
closed = 1;
nodes = (
"226 400 OFFCURVE",
"353 413 OFFCURVE",
"454 465 CURVE",
"426 519 LINE",
"337 472 OFFCURVE",
"223 461 OFFCURVE",
"62 484 CURVE",
"54 424 LINE"
);
},
{
closed = 1;
nodes = (
"157 510 OFFCURVE",
"138 556 OFFCURVE",
"138 616 CURVE SMOOTH",
"138 730 OFFCURVE",
"303 792 OFFCURVE",
"364 702 CURVE",
"414 736 LINE",
"320 874 OFFCURVE",
"78 789 OFFCURVE",
"78 616 CURVE SMOOTH",
"78 541 OFFCURVE",
"105 477 OFFCURVE",
"158 427 CURVE",
"200 471 LINE"
);
}
);
width = 600;
}
);
unicode = 0621;
},
{
glyphname = "alef-ar";
layers = (
{
anchors = (
{
name = _top;
position = "{58, -119}";
},
{
name = top;
position = "{13, 1098}";
}
);
layerId = "7C6EC3B8-53E3-46D5-865A-ED8DFE2E3A2E";
paths = (
{
closed = 1;
nodes = (
"52 482 OFFCURVE",
"51 520 OFFCURVE",
"35 1017 CURVE",
"5 1017 LINE",
"21 520 OFFCURVE",
"22 482 OFFCURVE",
"21 -18 CURVE",
"51 -18 LINE"
);
}
);
width = 56;
},
{
anchors = (
{
name = _top;
position = "{103, -291}";
},
{
name = top;
position = "{67, 1128}";
}
);
layerId = "EA99615A-DD74-4F65-B9DC-480CDB683AEE";
paths = (
{
closed = 1;
nodes = (
"147 483 OFFCURVE",
"146 521 OFFCURVE",
"130 1018 CURVE",
"40 1016 LINE",
"56 519 OFFCURVE",
"57 481 OFFCURVE",
"56 -18 CURVE",
"146 -18 LINE"
);
}
);
width = 186;
},
{
anchors = (
{
name = _top;
position = "{55, -192}";
},
{
name = top;
position = "{47, 1147}";
}
);
layerId = "9AB624CD-9C19-4372-9845-4C197A276709";
paths = (
{
closed = 1;
nodes = (
"101 482 OFFCURVE",
"101 521 OFFCURVE",
"90 1018 CURVE",
"30 1016 LINE",
"41 519 OFFCURVE",
"41 482 OFFCURVE",
"40 -18 CURVE",
"100 -18 LINE"
);
}
);
width = 130;
}
);
rightMetricsKey = "=|";
unicode = 0627;
},
{
glyphname = "alef-ar.fina";
layers = (
{
anchors = (
{
name = "#entry";
position = "{176, 0}";
},
{
name = _top;
position = "{69, -155}";
},
{
name = top;
position = "{61, 1176}";
}
);
background = {
paths = (
{
closed = 0;
nodes = (
"218 12 LINE"
);
}
);
};
layerId = "7C6EC3B8-53E3-46D5-865A-ED8DFE2E3A2E";
paths = (
{
closed = 1;
nodes = (
"24 893 OFFCURVE",
"23 771 OFFCURVE",
"22 665 CURVE SMOOTH",
"21 570 OFFCURVE",
"20 489 OFFCURVE",
"20 420 CURVE SMOOTH",
"20 145 OFFCURVE",
"23 0 OFFCURVE",
"176 0 CURVE",
"176 30 LINE",
"53 30 OFFCURVE",
"50 145 OFFCURVE",
"50 420 CURVE SMOOTH",
"50 566 OFFCURVE",
"54 765 OFFCURVE",
"55 1036 CURVE",
"25 1036 LINE"
);
}
);
width = 176;
},
{
anchors = (
{
name = "#entry";
position = "{239, 0}";
},
{
name = _top;
position = "{57, -203}";
},
{
name = top;
position = "{59, 1148}";
}
);
hints = (
{
horizontal = 1;
origin = "{0, 12}";
target = "{0, 13}";
type = Stem;
},
{
origin = "{0, 9}";
target = "{0, 2}";
type = Stem;
}
);
layerId = "EA99615A-DD74-4F65-B9DC-480CDB683AEE";
paths = (
{
closed = 1;
nodes = (
"140 90 OFFCURVE",
"110 166 OFFCURVE",
"110 465 CURVE SMOOTH",
"110 480 OFFCURVE",
"109 974 OFFCURVE",
"110 1081 CURVE",
"20 1081 LINE",
"19 938 OFFCURVE",
"20 530 OFFCURVE",
"20 465 CURVE SMOOTH",
"20 187 OFFCURVE",
"47 0 OFFCURVE",
"239 0 CURVE",
"239 90 LINE"
);
}
);
width = 239;
},
{
anchors = (
{
name = "#entry";
position = "{416, 0}";
},
{
name = _top;
position = "{113, -117}";
},
{
name = top;
position = "{87, 1148}";
}
);
layerId = "9AB624CD-9C19-4372-9845-4C197A276709";
paths = (
{
closed = 1;
nodes = (
"124 60 OFFCURVE",
"110 234 OFFCURVE",
"110 608 CURVE SMOOTH",
"110 681 OFFCURVE",
"110 760 OFFCURVE",
"112 843 CURVE SMOOTH",
"113 893 OFFCURVE",
"113 945 OFFCURVE",
"113 998 CURVE",
"53 998 LINE",
"53 945 OFFCURVE",
"52 894 OFFCURVE",
"52 844 CURVE SMOOTH",
"52 760 OFFCURVE",
"50 681 OFFCURVE",
"50 608 CURVE SMOOTH",
"50 232 OFFCURVE",
"68 0 OFFCURVE",
"416 0 CURVE",
"416 60 LINE"
);
}
);
width = 416;
}
);
unicode = FE8E;
},
{
glyphname = "behDotless-ar";
layers = (
{
anchors = (
{
name = "#entry";
position = "{1159, 0}";
},
{
name = "#exit";
position = "{75, 2}";
}
);
layerId = "7C6EC3B8-53E3-46D5-865A-ED8DFE2E3A2E";
paths = (
{
closed = 1;
nodes = (
"590 0 OFFCURVE",
"700 -2 OFFCURVE",
"759 5 CURVE SMOOTH",
"1247 61 OFFCURVE",
"1141 254 OFFCURVE",
"1077 512 CURVE",
"1048 506 LINE",
"1113 244 OFFCURVE",
"1200 86 OFFCURVE",
"756 35 CURVE SMOOTH",
"680 26 OFFCURVE",
"517 32 OFFCURVE",
"457 32 CURVE SMOOTH",
"97 32 OFFCURVE",
"-10 192 OFFCURVE",
"103 496 CURVE",
"74 504 LINE",
"-44 181 OFFCURVE",
"75 2 OFFCURVE",
"457 2 CURVE SMOOTH",
"471 2 OFFCURVE",
"492 2 OFFCURVE",
"515 1 CURVE SMOOTH"
);
}
);
width = 1163;
},
{
anchors = (
{
name = "#entry";
position = "{1283, 0}";
}
);
layerId = "EA99615A-DD74-4F65-B9DC-480CDB683AEE";
paths = (
{
closed = 1;
nodes = (
"1173 109 OFFCURVE",
"1152 90 OFFCURVE",
"697 90 CURVE SMOOTH",
"639 90 OFFCURVE",
"581 90 OFFCURVE",
"519 90 CURVE SMOOTH",
"150 90 OFFCURVE",
"110 132 OFFCURVE",
"110 515 CURVE",
"20 515 LINE",
"20 83 OFFCURVE",
"94 0 OFFCURVE",
"519 0 CURVE SMOOTH",
"581 0 OFFCURVE",
"640 0 OFFCURVE",
"697 0 CURVE SMOOTH",
"1155 0 OFFCURVE",
"1263 18 OFFCURVE",
"1263 515 CURVE",
"1173 515 LINE"
);
}
);
width = 1283;
},
{
layerId = "9AB624CD-9C19-4372-9845-4C197A276709";
paths = (
{
closed = 1;
nodes = (
"30 78 OFFCURVE",
"100 0 OFFCURVE",
"469 0 CURVE SMOOTH",
"531 0 OFFCURVE",
"589 0 OFFCURVE",
"647 0 CURVE SMOOTH",
"1124 0 OFFCURVE",
"1153 90 OFFCURVE",
"1153 500 CURVE",
"1093 500 LINE",
"1093 88 OFFCURVE",
"1061 60 OFFCURVE",
"647 60 CURVE SMOOTH",
"589 60 OFFCURVE",
"531 60 OFFCURVE",
"469 60 CURVE SMOOTH",
"137 60 OFFCURVE",
"90 111 OFFCURVE",
"90 500 CURVE",
"30 500 LINE"
);
}
);
width = 1183;
}
);
rightMetricsKey = "=|";
unicode = 066E;
},
{
glyphname = "behDotless-ar.fina";
layers = (
{
anchors = (
{
name = "#entry";
position = "{1226, 0}";
}
);
layerId = "7C6EC3B8-53E3-46D5-865A-ED8DFE2E3A2E";
paths = (
{
closed = 1;
nodes = (
"1125 372 OFFCURVE",
"1152 30 OFFCURVE",
"976 30 CURVE SMOOTH",
"920 30 OFFCURVE",
"590 31 OFFCURVE",
"515 31 CURVE SMOOTH",
"492 31 OFFCURVE",
"471 32 OFFCURVE",
"457 32 CURVE SMOOTH",
"86 32 OFFCURVE",
"-27 200 OFFCURVE",
"88 495 CURVE",
"60 503 LINE",
"-61 190 OFFCURVE",
"65 2 OFFCURVE",
"457 2 CURVE SMOOTH",
"471 2 OFFCURVE",
"492 2 OFFCURVE",
"515 1 CURVE SMOOTH",
"590 -2 OFFCURVE",
"920 0 OFFCURVE",
"976 0 CURVE SMOOTH",
"1184 0 OFFCURVE",
"1155 374 OFFCURVE",
"1143 505 CURVE",
"1113 503 LINE"
);
},
{
closed = 1;
nodes = (
"1120 109 OFFCURVE",
"1121 0 OFFCURVE",
"1226 0 CURVE",
"1226 30 LINE",
"1158 30 OFFCURVE",
"1149 107 OFFCURVE",
"1149 286 CURVE",
"1120 286 LINE"
);
}
);
width = 1226;
},
{
anchors = (
{
name = "#entry";
position = "{1357, 0}";
},
{
name = top;
position = "{601, 763}";
}
);
layerId = "EA99615A-DD74-4F65-B9DC-480CDB683AEE";
paths = (
{
closed = 1;
nodes = (
"1120 515 OFFCURVE",
"1121 483 OFFCURVE",
"1122 451 CURVE SMOOTH",
"1130 180 OFFCURVE",
"1106 89 OFFCURVE",
"1031 89 CURVE SMOOTH",
"799 89 OFFCURVE",
"654 89 OFFCURVE",
"485 89 CURVE SMOOTH",
"158 89 OFFCURVE",
"110 144 OFFCURVE",
"110 544 CURVE",
"20 544 LINE",
"20 96 OFFCURVE",
"103 -1 OFFCURVE",
"485 -1 CURVE SMOOTH",
"654 -1 OFFCURVE",
"798 -2 OFFCURVE",
"1031 -1 CURVE SMOOTH",
"1256 0 OFFCURVE",
"1210 359 OFFCURVE",
"1210 544 CURVE",
"1120 544 LINE"
);
},
{
closed = 1;
nodes = (
"1123 107 OFFCURVE",
"1211 0 OFFCURVE",
"1357 0 CURVE",
"1357 90 LINE",
"1271 90 OFFCURVE",
"1213 151 OFFCURVE",
"1213 299 CURVE",
"1123 318 LINE"
);
}
);
width = 1357;
},
{
anchors = (
{
name = "#entry";
position = "{1188, 0}";
},
{
name = top;
position = "{550, 800}";
}
);
layerId = "9AB624CD-9C19-4372-9845-4C197A276709";
paths = (
{
closed = 1;
nodes = (
"0 71 OFFCURVE",
"57 0 OFFCURVE",
"405 0 CURVE SMOOTH",
"574 0 OFFCURVE",
"719 0 OFFCURVE",
"951 0 CURVE SMOOTH",
"1095 0 OFFCURVE",
"1074 242 OFFCURVE",
"1070 500 CURVE",
"1010 500 LINE",
"1014 238 OFFCURVE",
"1029 60 OFFCURVE",
"951 60 CURVE SMOOTH",
"718 60 OFFCURVE",
"573 60 OFFCURVE",
"405 60 CURVE SMOOTH",
"96 60 OFFCURVE",
"60 102 OFFCURVE",
"60 500 CURVE",
"0 500 LINE"
);
},
{
closed = 1;
nodes = (
"1014 86 OFFCURVE",
"1075 0 OFFCURVE",
"1188 0 CURVE",
"1188 60 LINE",
"1113 60 OFFCURVE",
"1072 118 OFFCURVE",
"1072 239 CURVE",
"1014 239 LINE"
);
}
);
width = 1188;
}
);
},
{
glyphname = "behDotless-ar.medi";
layers = (
{
anchors = (
{
name = "#entry";
position = "{384, 0}";
},
{
name = "#exit";
position = "{0, 0}";
},
{
name = bottom;
position = "{155, -266}";
},
{
name = top;
position = "{117, 660}";
}
);
layerId = "7C6EC3B8-53E3-46D5-865A-ED8DFE2E3A2E";
paths = (
{
closed = 1;
nodes = (
"269 51 OFFCURVE",
"284 0 OFFCURVE",
"384 0 CURVE",
"384 30 LINE",
"304 30 OFFCURVE",
"294 73 OFFCURVE",
"294 219 CURVE",
"265 215 LINE"
);
},
{
closed = 0;
nodes = (
"0 0 LINE"
);
},
{
closed = 1;
nodes = (
"276 42 OFFCURVE",
"268 30 OFFCURVE",
"0 30 CURVE",
"0 0 LINE",
"293 0 OFFCURVE",
"306 31 OFFCURVE",
"292 500 CURVE",
"262 500 LINE"
);
}
);
width = 384;
},
{
anchors = (
{
name = "#entry";
position = "{558, 0}";
},
{
name = "#exit";
position = "{0, 0}";
},
{
name = top;
position = "{108, 822}";
}
);
layerId = "EA99615A-DD74-4F65-B9DC-480CDB683AEE";
paths = (
{
closed = 1;
nodes = (
"247 77 OFFCURVE",
"247 90 OFFCURVE",
"0 90 CURVE",
"0 0 LINE",
"339 0 OFFCURVE",
"337 77 OFFCURVE",
"337 545 CURVE",
"247 545 LINE"
);
},
{
closed = 1;
nodes = (
"404 90 OFFCURVE",
"337 207 OFFCURVE",
"337 492 CURVE",
"247 492 LINE",
"247 159 OFFCURVE",
"345 0 OFFCURVE",
"558 0 CURVE",
"558 90 LINE"
);
}
);
width = 558;
},
{
anchors = (
{
name = "#entry";
position = "{648, 0}";
},
{
name = "#exit";
position = "{0, 0}";
},
{
name = top;
position = "{318, 800}";
}
);
layerId = "9AB624CD-9C19-4372-9845-4C197A276709";
paths = (
{
closed = 1;
nodes = (
"447 60 OFFCURVE",
"367 179 OFFCURVE",
"367 487 CURVE",
"307 487 LINE",
"307 148 OFFCURVE",
"409 0 OFFCURVE",
"648 0 CURVE",
"648 60 LINE"
);
},
{
closed = 1;
nodes = (
"307 46 OFFCURVE",
"306 60 OFFCURVE",
"0 60 CURVE",
"0 0 LINE",
"373 0 OFFCURVE",
"367 49 OFFCURVE",
"367 500 CURVE",
"307 500 LINE"
);
}
);
width = 648;
}
);
},
{
glyphname = "behDotless-ar.medi.001";
layers = (
{
anchors = (
{
name = "#entry";
position = "{615, -1}";
},
{
name = "#exit";
position = "{-1, -1}";
}
);
layerId = "7C6EC3B8-53E3-46D5-865A-ED8DFE2E3A2E";
paths = (
{
closed = 1;
nodes = (
"501 48 OFFCURVE",
"515 0 OFFCURVE",
"615 0 CURVE",
"615 30 LINE",
"535 30 OFFCURVE",
"526 70 OFFCURVE",
"526 216 CURVE",
"497 212 LINE"
);
},
{
closed = 1;
nodes = (
"73 33 OFFCURVE",
"78 0 OFFCURVE",
"292 0 CURVE SMOOTH",
"536 0 OFFCURVE",
"536 22 OFFCURVE",
"522 485 CURVE",
"492 485 LINE",
"506 23 OFFCURVE",
"506 30 OFFCURVE",
"292 30 CURVE SMOOTH",
"105 30 OFFCURVE",
"103 36 OFFCURVE",
"103 499 CURVE",
"73 499 LINE"
);
},
{
closed = 1;
nodes = (
"80 107 OFFCURVE",
"67 30 OFFCURVE",
"0 30 CURVE",
"0 0 LINE",
"90 0 OFFCURVE",
"115 73 OFFCURVE",
"105 255 CURVE",
"76 253 LINE"
);
}
);
width = 615;
},
{
layerId = "EA99615A-DD74-4F65-B9DC-480CDB683AEE";
width = 600;
},
{
layerId = "9AB624CD-9C19-4372-9845-4C197A276709";
width = 600;
}
);
},
{
glyphname = "behDotless-ar.init";
layers = (
{
anchors = (
{
name = "#exit";
position = "{0, 0}";
},
{
name = bottom;
position = "{28, -236}";
},
{
name = top;
position = "{21, 690}";
}
);
layerId = "7C6EC3B8-53E3-46D5-865A-ED8DFE2E3A2E";
paths = (
{
closed = 1;
nodes = (
"166 127 OFFCURVE",
"187 30 OFFCURVE",
"0 30 CURVE",
"0 0 LINE",
"225 0 OFFCURVE",
"196 131 OFFCURVE",
"169 538 CURVE",
"139 536 LINE"
);
}
);
width = 207;
},
{
anchors = (
{
name = "#exit";
position = "{0, 0}";
},
{
name = _top;
position = "{28, -250}";
},
{
name = top;
position = "{40, 841}";
}
);
layerId = "EA99615A-DD74-4F65-B9DC-480CDB683AEE";
paths = (
{
closed = 1;
nodes = (
"155 108 OFFCURVE",
"153 90 OFFCURVE",
"0 90 CURVE",
"0 0 LINE",
"281 0 OFFCURVE",
"241 182 OFFCURVE",
"214 586 CURVE",
"124 580 LINE"
);
}
);
width = 273;
},
{
anchors = (
{
name = "#exit";
position = "{0, 0}";
},
{
name = _top;
position = "{148, -250}";
},
{
name = top;
position = "{30, 800}";
}
);
layerId = "9AB624CD-9C19-4372-9845-4C197A276709";
paths = (
{
closed = 1;
nodes = (
"190 189 OFFCURVE",
"196 60 OFFCURVE",
"0 60 CURVE",
"0 0 LINE",
"260 0 OFFCURVE",
"250 191 OFFCURVE",
"247 500 CURVE",
"187 500 LINE"
);
}
);
width = 278;
}
);
},
{
glyphname = "jeem-ar.fina";
layers = (
{
anchors = (
{
name = "#entry";
position = "{745, 0}";
}
);
components = (
{
name = "hah-ar";
transform = "{1, 0, 0, 1, 0, 10}";
},
{
name = "dotcenter-ar";
transform = "{1, 0, 0, 1, 0, -232}";
}
);
layerId = "7C6EC3B8-53E3-46D5-865A-ED8DFE2E3A2E";
paths = (
{
closed = 1;
nodes = (
"745 30 LINE",
"715 29 OFFCURVE",
"693 33 OFFCURVE",
"664 40 CURVE",
"664 10 LINE",
"693 4 OFFCURVE",
"717 -1 OFFCURVE",
"745 0 CURVE"
);
}
);
width = 745;
},
{
components = (
{
name = "hah-ar.fina";
},
{
name = "dotcenter-ar";
transform = "{1, 0, 0, 1, 130, -275}";
}
);
layerId = "EA99615A-DD74-4F65-B9DC-480CDB683AEE";
width = 965;
},
{
components = (
{
name = "hah-ar.fina";
},
{
name = "dotcenter-ar";
transform = "{1, 0, 0, 1, 126, -248}";
}
);
layerId = "9AB624CD-9C19-4372-9845-4C197A276709";
width = 873;
}
);
unicode = FE9E;
},
{
glyphname = "jeem-ar.medi";
layers = (
{
anchors = (
{
name = "#entry";
position = "{967, 0}";
}
);
components = (
{
name = "jeem-ar.init";
}
);
layerId = "7C6EC3B8-53E3-46D5-865A-ED8DFE2E3A2E";
paths = (
{
closed = 1;
nodes = (
"820 21 LINE",
"885 0 OFFCURVE",
"919 -2 OFFCURVE",
"967 0 CURVE",
"967 30 LINE",
"923 28 OFFCURVE",
"893 30 OFFCURVE",
"831 49 CURVE"
);
}
);
width = 967;
},
{
components = (
{
name = "hah-ar.medi";
},
{
name = "dotbelow-ar";
transform = "{1, 0, 0, 1, 162, 106}";
}
);
layerId = "EA99615A-DD74-4F65-B9DC-480CDB683AEE";
width = 1086;
},
{
components = (
{
name = "hah-ar.medi";
},
{
name = "dotbelow-ar";
transform = "{1, 0, 0, 1, 258, -22}";
}
);
layerId = "9AB624CD-9C19-4372-9845-4C197A276709";
width = 1199;
}
);
unicode = FEA0;
},
{
glyphname = "hah-ar";
layers = (
{
anchors = (
{
name = top;
position = "{324, -239}";
}
);
layerId = "7C6EC3B8-53E3-46D5-865A-ED8DFE2E3A2E";
paths = (
{
closed = 1;
nodes = (
"172 -486 OFFCURVE",
"30 -389 OFFCURVE",
"30 -218 CURVE SMOOTH",
"30 -77 OFFCURVE",
"183 31 OFFCURVE",
"441 31 CURVE SMOOTH",
"502 31 OFFCURVE",
"566 28 OFFCURVE",
"614 21 CURVE",
"618 51 LINE",
"571 58 OFFCURVE",
"507 61 OFFCURVE",
"445 61 CURVE SMOOTH",
"165 61 OFFCURVE",
"0 -59 OFFCURVE",
"0 -219 CURVE SMOOTH",
"0 -409 OFFCURVE",
"153 -517 OFFCURVE",
"412 -510 CURVE",
"412 -480 LINE"
);
},
{
closed = 1;
nodes = (
"664 30 LINE",
"451 95 OFFCURVE",
"555 506 OFFCURVE",
"276 506 CURVE SMOOTH",
"133 506 OFFCURVE",
"27 326 OFFCURVE",
"9 300 CURVE",
"33 282 LINE",
"52 309 OFFCURVE",
"151 476 OFFCURVE",
"276 476 CURVE SMOOTH",
"511 476 OFFCURVE",
"419 55 OFFCURVE",
"664 0 CURVE"
);
}
);
width = 745;
},
{
anchors = (
{
name = _top;
position = "{379, -233}";
},
{
name = top;
position = "{208, 772}";
}
);
layerId = "EA99615A-DD74-4F65-B9DC-480CDB683AEE";
paths = (
{
closed = 1;
nodes = (
"171 388 OFFCURVE",
"267 464 OFFCURVE",
"324 464 CURVE SMOOTH",
"443 464 OFFCURVE",
"472 373 OFFCURVE",
"509 251 CURVE SMOOTH",
"540 150 OFFCURVE",
"579 26 OFFCURVE",
"699 -10 CURVE",
"725 76 LINE",
"566 125 OFFCURVE",
"645 554 OFFCURVE",
"324 554 CURVE SMOOTH",
"232 554 OFFCURVE",
"115 466 OFFCURVE",
"20 329 CURVE",
"94 277 LINE"
);
},
{
closed = 1;
nodes = (
"277 -487 OFFCURVE",
"133 -389 OFFCURVE",
"133 -235 CURVE SMOOTH",
"133 -96 OFFCURVE",
"290 0 OFFCURVE",
"533 0 CURVE SMOOTH",
"595 0 OFFCURVE",
"662 -4 OFFCURVE",
"699 -10 CURVE",
"713 80 LINE",
"670 86 OFFCURVE",
"599 90 OFFCURVE",
"533 90 CURVE SMOOTH",
"242 90 OFFCURVE",
"43 -39 OFFCURVE",
"43 -235 CURVE SMOOTH",
"43 -443 OFFCURVE",
"229 -579 OFFCURVE",
"501 -571 CURVE",
"499 -481 LINE"
);
}
);
width = 745;
},
{
anchors = (
{
name = _top;
position = "{437, -222}";
},
{
name = top;
position = "{308, 772}";
}
);
layerId = "9AB624CD-9C19-4372-9845-4C197A276709";
paths = (
{
closed = 1;
nodes = (
"599 81 OFFCURVE",
"565 190 OFFCURVE",
"534 291 CURVE SMOOTH",
"497 413 OFFCURVE",
"461 525 OFFCURVE",
"320 525 CURVE SMOOTH",
"250 525 OFFCURVE",
"147 443 OFFCURVE",
"65 325 CURVE",
"115 291 LINE",
"183 390 OFFCURVE",
"274 465 OFFCURVE",
"320 465 CURVE SMOOTH",
"417 465 OFFCURVE",
"439 395 OFFCURVE",
"476 273 CURVE SMOOTH",
"507 172 OFFCURVE",
"551 33 OFFCURVE",
"686 -8 CURVE",
"704 50 LINE"
);
},
{
closed = 1;
nodes = (
"376 103 OFFCURVE",
"103 -8 OFFCURVE",
"103 -205 CURVE SMOOTH",
"103 -378 OFFCURVE",
"262 -507 OFFCURVE",
"500 -511 CURVE",
"498 -451 LINE",
"293 -447 OFFCURVE",
"163 -341 OFFCURVE",
"163 -205 CURVE SMOOTH",
"163 -52 OFFCURVE",
"407 37 OFFCURVE",
"694 -10 CURVE",
"704 50 LINE"
);
}
);
width = 745;
}
);
unicode = 062D;
},
{
glyphname = "hah-ar.fina";
layers = (
{
anchors = (
{
name = "#entry";
position = "{775, 0}";
}
);
components = (
{
name = "hah-ar";
transform = "{1, 0, 0, 1, 0, 20}";
}
);
layerId = "7C6EC3B8-53E3-46D5-865A-ED8DFE2E3A2E";
paths = (
{
closed = 1;
nodes = (
"730 34 OFFCURVE",
"706 38 OFFCURVE",
"664 50 CURVE",
"664 20 LINE",
"708 10 OFFCURVE",
"736 5 OFFCURVE",
"775 0 CURVE",
"775 30 LINE"
);
}
);
width = 775;
},
{
anchors = (
{
name = "#entry";
position = "{965, 0}";
},
{
name = top;
position = "{441, -240}";
}
);
components = (
{
name = "hah-ar";
transform = "{1, 0, 0, 1, 0, 40}";
}
);
layerId = "EA99615A-DD74-4F65-B9DC-480CDB683AEE";
paths = (
{
closed = 1;
nodes = (
"860 89 OFFCURVE",
"830 92 OFFCURVE",
"725 116 CURVE",
"699 30 LINE",
"786 10 OFFCURVE",
"849 0 OFFCURVE",
"965 0 CURVE",
"965 90 LINE"
);
}
);
width = 965;
},
{
anchors = (
{
name = "#entry";
position = "{873, 0}";
},
{
name = top;
position = "{426, -208}";
}
);
components = (
{
alignment = -1;
name = "hah-ar";
transform = "{1, 0, 0, 1, -25, 30}";
}
);
layerId = "9AB624CD-9C19-4372-9845-4C197A276709";
paths = (
{
closed = 1;
nodes = (
"796 60 OFFCURVE",
"766 64 OFFCURVE",
"679 80 CURVE",
"669 20 LINE",
"758 4 OFFCURVE",
"795 0 OFFCURVE",
"873 0 CURVE",
"873 60 LINE"
);
}
);
width = 873;
}
);
unicode = FEA2;
},
{
glyphname = "hah-ar.medi";
layers = (
{
components = (
{
name = "hah-ar.init";
}
);
layerId = "7C6EC3B8-53E3-46D5-865A-ED8DFE2E3A2E";
paths = (
{
closed = 1;
nodes = (
"820 21 LINE",
"885 0 OFFCURVE",
"919 -2 OFFCURVE",
"967 0 CURVE",
"967 30 LINE",
"923 28 OFFCURVE",
"893 30 OFFCURVE",
"831 49 CURVE"
);
}
);
width = 967;
},
{
anchors = (
{
name = "#entry";
position = "{1086, 0}";
},
{
name = "#exit";
position = "{0, 0}";
}
);
components = (
{
name = "hah-ar.init";
}
);
layerId = "EA99615A-DD74-4F65-B9DC-480CDB683AEE";
paths = (
{
closed = 1;
nodes = (
"1002 92 OFFCURVE",
"900 112 OFFCURVE",
"840 136 CURVE",
"808 52 LINE",
"878 24 OFFCURVE",
"991 2 OFFCURVE",
"1086 0 CURVE",
"1086 90 LINE"
);
}
);
width = 1086;
},
{
anchors = (
{
name = "#entry";
position = "{1199, 0}";
},
{
name = "#exit";
position = "{0, 0}";
}
);
components = (
{
name = "hah-ar.init";
}
);
layerId = "9AB624CD-9C19-4372-9845-4C197A276709";
paths = (
{
closed = 1;
nodes = (
"1110 60 OFFCURVE",
"1000 106 OFFCURVE",
"931 135 CURVE",
"909 79 LINE",
"984 48 OFFCURVE",
"1104 0 OFFCURVE",
"1199 0 CURVE",
"1199 60 LINE"
);
}
);
width = 1199;
}
);
unicode = FEA4;
},
{
glyphname = "hah-ar.init";
layers = (
{
anchors = (
{
name = "#exit";
position = "{0, 0}";
},
{
name = top;
position = "{198, 689}";
}
);
layerId = "7C6EC3B8-53E3-46D5-865A-ED8DFE2E3A2E";
paths = (
{
closed = 1;
nodes = (
"659 115 OFFCURVE",
"602 241 OFFCURVE",
"536 343 CURVE SMOOTH",
"467 449 OFFCURVE",
"395 503 OFFCURVE",
"320 503 CURVE SMOOTH",
"177 503 OFFCURVE",
"71 323 OFFCURVE",
"53 297 CURVE",
"77 279 LINE",
"96 306 OFFCURVE",
"195 473 OFFCURVE",
"320 473 CURVE SMOOTH",
"384 473 OFFCURVE",
"447 425 OFFCURVE",
"511 327 CURVE SMOOTH",
"576 227 OFFCURVE",
"636 92 OFFCURVE",
"820 21 CURVE",
"831 49 LINE"
);
},
{
closed = 1;
nodes = (
"216 2 OFFCURVE",
"391 -28 OFFCURVE",
"631 105 CURVE SMOOTH",
"643 112 OFFCURVE",
"652 115 OFFCURVE",
"663 120 CURVE",
"651 148 LINE",
"640 143 OFFCURVE",
"629 138 OFFCURVE",
"617 131 CURVE SMOOTH",
"383 2 OFFCURVE",
"216 32 OFFCURVE",
"0 30 CURVE",
"0 0 LINE"
);
}
);
width = 871;
},
{
anchors = (
{
name = "#exit";
position = "{0, 0}";
},
{
name = bottom;
position = "{324, -97}";
},
{
name = top;
position = "{136, 835}";
}
);
layerId = "EA99615A-DD74-4F65-B9DC-480CDB683AEE";
paths = (
{
closed = 1;
nodes = (
"102 344 OFFCURVE",
"196 503 OFFCURVE",
"313 503 CURVE SMOOTH",
"371 503 OFFCURVE",
"430 458 OFFCURVE",
"491 364 CURVE SMOOTH",
"556 264 OFFCURVE",
"619 125 OFFCURVE",
"808 52 CURVE",
"840 136 LINE",
"685 195 OFFCURVE",
"635 308 OFFCURVE",
"567 412 CURVE SMOOTH",
"489 532 OFFCURVE",
"404 593 OFFCURVE",
"313 593 CURVE SMOOTH",
"144 593 OFFCURVE",
"26 392 OFFCURVE",
"9 368 CURVE",
"83 316 LINE"
);
},
{
closed = 1;
nodes = (
"642 205 OFFCURVE",
"639 204 OFFCURVE",
"636 202 CURVE",
"629 199 OFFCURVE",
"619 195 OFFCURVE",
"609 189 CURVE SMOOTH",
"424 78 OFFCURVE",
"277 89 OFFCURVE",
"105 89 CURVE SMOOTH",
"71 89 OFFCURVE",
"36 90 OFFCURVE",
"0 90 CURVE",
"0 0 LINE",
"212 2 OFFCURVE",
"399 -30 OFFCURVE",
"653 111 CURVE SMOOTH",
"662 116 OFFCURVE",
"675 123 OFFCURVE",
"682 126 CURVE",
"644 206 LINE"
);
}
);
width = 880;
},
{
anchors = (
{
name = "#exit";
position = "{0, 0}";
},
{
name = bottom;
position = "{406, -245}";
},
{
name = top;
position = "{377, 822}";
}
);
layerId = "9AB624CD-9C19-4372-9845-4C197A276709";
paths = (
{
closed = 1;
nodes = (
"131 347 OFFCURVE",
"241 534 OFFCURVE",
"393 534 CURVE SMOOTH",
"473 534 OFFCURVE",
"548 480 OFFCURVE",
"622 367 CURVE SMOOTH",
"689 265 OFFCURVE",
"743 142 OFFCURVE",
"909 79 CURVE",
"931 135 LINE",
"787 190 OFFCURVE",
"741 293 OFFCURVE",
"672 399 CURVE SMOOTH",
"588 528 OFFCURVE",
"495 594 OFFCURVE",
"393 594 CURVE SMOOTH",
"207 594 OFFCURVE",
"81 379 OFFCURVE",
"65 356 CURVE",
"113 322 LINE"
);
},
{
closed = 1;
nodes = (
"793 181 OFFCURVE",
"782 175 OFFCURVE",
"768 167 CURVE SMOOTH",
"564 51 OFFCURVE",
"406 54 OFFCURVE",
"104 59 CURVE SMOOTH",
"70 60 OFFCURVE",
"35 60 OFFCURVE",
"0 60 CURVE",
"0 0 LINE",
"35 0 OFFCURVE",
"69 0 OFFCURVE",
"103 -1 CURVE SMOOTH",
"405 -6 OFFCURVE",
"577 -5 OFFCURVE",
"798 115 CURVE SMOOTH",
"809 121 OFFCURVE",
"819 126 OFFCURVE",
"824 128 CURVE",
"800 184 LINE"
);
}
);
width = 961;
}
);
unicode = FEA3;
},
{
glyphname = "dal-ar";
layers = (
{
anchors = (
{
name = top;
position = "{17, 633}";
}
);
layerId = "7C6EC3B8-53E3-46D5-865A-ED8DFE2E3A2E";
paths = (
{
closed = 1;
nodes = (
"214 0 OFFCURVE",
"546 -28 OFFCURVE",
"546 197 CURVE SMOOTH",
"546 311 OFFCURVE",
"453 500 OFFCURVE",
"72 500 CURVE",
"72 470 LINE",
"344 470 OFFCURVE",
"516 365 OFFCURVE",
"516 197 CURVE SMOOTH",
"516 4 OFFCURVE",
"216 30 OFFCURVE",
"32 30 CURVE",
"32 0 LINE"
);
}
);
width = 551;
},
{
anchors = (
{
name = top;
position = "{5, 785}";
}
);
layerId = "EA99615A-DD74-4F65-B9DC-480CDB683AEE";
paths = (
{
closed = 1;
nodes = (
"341 505 OFFCURVE",
"509 402 OFFCURVE",
"509 247 CURVE SMOOTH",
"509 71 OFFCURVE",
"224 95 OFFCURVE",
"40 95 CURVE",
"40 5 LINE",
"220 5 OFFCURVE",
"599 -27 OFFCURVE",
"599 247 CURVE SMOOTH",
"599 458 OFFCURVE",
"391 595 OFFCURVE",
"80 595 CURVE",
"80 505 LINE"
);
}
);
width = 639;
},
{
anchors = (
{
name = top;
position = "{54, 663}";
}
);
layerId = "9AB624CD-9C19-4372-9845-4C197A276709";
paths = (
{
closed = 1;
nodes = (
"303 2 OFFCURVE",
"619 -27 OFFCURVE",
"619 182 CURVE SMOOTH",
"619 357 OFFCURVE",
"436 500 OFFCURVE",
"160 500 CURVE",
"160 440 LINE",
"403 440 OFFCURVE",
"559 319 OFFCURVE",
"559 182 CURVE SMOOTH",
"559 39 OFFCURVE",
"305 62 OFFCURVE",
"120 60 CURVE",
"120 0 LINE"
);
}
);
width = 649;
}
);
unicode = 062F;
},
{
glyphname = "dal-ar.fina";
layers = (
{
anchors = (
{
name = "#entry";
position = "{662, 0}";
},
{
name = top;
position = "{12, 620}";
}
);
components = (
{
name = "dal-ar";
}
);
layerId = "7C6EC3B8-53E3-46D5-865A-ED8DFE2E3A2E";
paths = (
{
closed = 1;
nodes = (
"516 200 LINE",
"518 74 OFFCURVE",
"575 0 OFFCURVE",
"662 0 CURVE",
"662 30 LINE",
"606 30 OFFCURVE",
"546 81 OFFCURVE",
"546 198 CURVE SMOOTH",
"546 198 OFFCURVE",
"546 206 OFFCURVE",
"545 211 CURVE"
);
}
);
width = 662;
},
{
anchors = (
{
name = "#entry";
position = "{814, 0}";
},
{
name = top;
position = "{87, 756}";
}
);
components = (
{
name = "dal-ar";
transform = "{1, 0, 0, 1, 0, -5}";
}
);
layerId = "EA99615A-DD74-4F65-B9DC-480CDB683AEE";
paths = (
{
closed = 1;
nodes = (
"520 127 OFFCURVE",
"538 -20 OFFCURVE",
"814 0 CURVE",
"814 90 LINE",
"634 70 OFFCURVE",
"610 133 OFFCURVE",
"596 285 CURVE",
"508 267 LINE"
);
}
);
width = 814;
},
{
anchors = (
{
name = "#entry";
position = "{887, 0}";
},
{
name = top;
position = "{28, 677}";
}
);
components = (
{
name = "dal-ar";
transform = "{1, 0, 0, 1, 3, 0}";
}
);
layerId = "9AB624CD-9C19-4372-9845-4C197A276709";
paths = (
{
closed = 1;
nodes = (
"558 220 LINE",
"578 104 OFFCURVE",
"637 -2 OFFCURVE",
"887 0 CURVE",
"887 60 LINE",
"676 62 OFFCURVE",
"634 134 OFFCURVE",
"616 236 CURVE"
);
}
);
width = 887;
}
);
unicode = FEAA;
},
{
glyphname = "reh-ar";
layers = (
{
anchors = (
{
name = "#entry";
position = "{243, 0}";
},
{
name = top;
position = "{121, 682}";
}
);
background = {
paths = (
{
closed = 0;
nodes = (
"175 494 LINE",
"223 197 OFFCURVE",
"367 -207 OFFCURVE",
"-95 -529 CURVE"
);
}
);
};
layerId = "7C6EC3B8-53E3-46D5-865A-ED8DFE2E3A2E";
paths = (
{
closed = 1;
nodes = (
"378 -213 OFFCURVE",
"234 201 OFFCURVE",
"187 494 CURVE",
"158 489 LINE",
"205 193 OFFCURVE",
"342 -201 OFFCURVE",
"-100 -517 CURVE",
"-83 -541 LINE"
);
}
);
width = 246;
},
{
anchors = (
{
name = "#entry";
position = "{348, 0}";
},
{
name = top;
position = "{280, 678}";
}
);
layerId = "EA99615A-DD74-4F65-B9DC-480CDB683AEE";
paths = (
{
closed = 1;
nodes = (
"291 149 OFFCURVE",
"313 -258 OFFCURVE",
"-40 -509 CURVE",
"12 -583 LINE",
"405 -302 OFFCURVE",
"381 155 OFFCURVE",
"343 589 CURVE",
"253 581 LINE"
);
}
);
width = 367;
},
{
anchors = (
{
name = "#entry";
position = "{287, 0}";
},
{
name = top;
position = "{236, 712}";
}
);
layerId = "9AB624CD-9C19-4372-9845-4C197A276709";
paths = (
{
closed = 1;
nodes = (
"341 -243 OFFCURVE",
"318 70 OFFCURVE",
"280 503 CURVE",
"220 497 LINE",
"258 66 OFFCURVE",
"279 -213 OFFCURVE",
"-60 -455 CURVE",
"-26 -503 LINE"
);
}
);
width = 330;
}
);
unicode = 0631;
},
{
glyphname = "seen-ar";
layers = (
{
anchors = (
{
name = "#entry";
position = "{1355, 0}";
},
{
name = top;
position = "{881, 811}";
}
);
background = {
paths = (
{
closed = 0;
nodes = (
"1333 542 LINE",
"1344 491 OFFCURVE",
"1388 316 OFFCURVE",
"1388 178 CURVE SMOOTH",
"1388 76 OFFCURVE",
"1364 -19 OFFCURVE",
"1287 -19 CURVE SMOOTH",
"1238 -19 OFFCURVE",
"1136 27 OFFCURVE",
"1042 160 CURVE"
);
},
{
closed = 0;
nodes = (
"941 517 LINE",
"968 451 OFFCURVE",
"1042 286 OFFCURVE",
"1042 160 CURVE SMOOTH",
"1042 70 OFFCURVE",
"1004 -4 OFFCURVE",
"882 -1 CURVE SMOOTH",
"843 0 OFFCURVE",
"803 11 OFFCURVE",
"784 19 CURVE"
);
},
{
closed = 0;
nodes = (
"567 498 LINE",
"587 441 OFFCURVE",
"808 129 OFFCURVE",
"808 -158 CURVE SMOOTH",
"808 -755 OFFCURVE",
"31 -693 OFFCURVE",
"31 -60 CURVE SMOOTH",
"31 -19 OFFCURVE",
"36 22 OFFCURVE",
"48 63 CURVE SMOOTH"
);
}
);
};
layerId = "7C6EC3B8-53E3-46D5-865A-ED8DFE2E3A2E";
paths = (
{
closed = 1;
nodes = (
"1105 42 OFFCURVE",
"1210 -34 OFFCURVE",
"1284 -34 CURVE SMOOTH",
"1359 -34 OFFCURVE",
"1399 42 OFFCURVE",
"1399 178 CURVE SMOOTH",
"1399 318 OFFCURVE",
"1355 495 OFFCURVE",
"1344 545 CURVE",
"1315 539 LINE",
"1326 488 OFFCURVE",
"1369 315 OFFCURVE",
"1369 178 CURVE SMOOTH",
"1369 59 OFFCURVE",
"1338 -4 OFFCURVE",
"1284 -4 CURVE SMOOTH",
"1221 -4 OFFCURVE",
"1124 68 OFFCURVE",
"1052 169 CURVE",
"1028 151 LINE"
);
},
{
closed = 1;
nodes = (
"799 9 OFFCURVE",
"840 0 OFFCURVE",
"881 -1 CURVE SMOOTH",
"994 -4 OFFCURVE",
"1055 57 OFFCURVE",
"1055 173 CURVE SMOOTH",
"1055 302 OFFCURVE",
"980 467 OFFCURVE",
"954 532 CURVE",
"926 521 LINE",
"953 455 OFFCURVE",
"1025 295 OFFCURVE",
"1025 173 CURVE SMOOTH",
"1025 74 OFFCURVE",
"978 27 OFFCURVE",
"881 29 CURVE SMOOTH",
"844 30 OFFCURVE",
"806 38 OFFCURVE",
"788 43 CURVE",
"779 14 LINE"
);
},
{
closed = 1;
nodes = (
"25 27 OFFCURVE",
"20 -16 OFFCURVE",
"20 -60 CURVE SMOOTH",
"20 -712 OFFCURVE",
"822 -775 OFFCURVE",
"822 -158 CURVE SMOOTH",
"823 77 OFFCURVE",
"679 327 OFFCURVE",
"612 442 CURVE SMOOTH",
"596 470 OFFCURVE",
"585 489 OFFCURVE",
"582 498 CURVE",
"554 488 LINE",
"575 433 OFFCURVE",
"793 124 OFFCURVE",
"792 -158 CURVE SMOOTH",
"792 -734 OFFCURVE",
"50 -674 OFFCURVE",
"50 -60 CURVE SMOOTH",
"50 -18 OFFCURVE",
"55 21 OFFCURVE",
"66 59 CURVE",
"37 67 LINE"
);
}
);
width = 1409;
},
{
anchors = (
{
name = "#entry";
position = "{1483, 3}";
},
{
name = top;
position = "{835, 700}";
}
);
layerId = "EA99615A-DD74-4F65-B9DC-480CDB683AEE";
paths = (
{
closed = 1;
nodes = (
"46 82 OFFCURVE",
"40 41 OFFCURVE",
"40 -3 CURVE SMOOTH",
"40 -635 OFFCURVE",
"801 -698 OFFCURVE",
"801 -101 CURVE SMOOTH",
"801 186 OFFCURVE",
"595 494 OFFCURVE",
"561 538 CURVE",
"490 482 LINE",
"522 441 OFFCURVE",
"712 158 OFFCURVE",
"711 -101 CURVE SMOOTH",
"709 -573 OFFCURVE",
"130 -522 OFFCURVE",
"130 -3 CURVE SMOOTH",
"130 34 OFFCURVE",
"134 65 OFFCURVE",
"143 95 CURVE",
"57 120 LINE"
);
},
{
closed = 1;
nodes = (
"942 462 OFFCURVE",
"1012 316 OFFCURVE",
"1012 202 CURVE SMOOTH",
"1012 105 OFFCURVE",
"960 56 OFFCURVE",
"857 59 CURVE SMOOTH",
"808 59 OFFCURVE",
"780 62 OFFCURVE",
"772 67 CURVE",
"727 -10 LINE",
"753 -26 OFFCURVE",
"797 -31 OFFCURVE",
"855 -31 CURVE SMOOTH",
"1008 -35 OFFCURVE",
"1102 54 OFFCURVE",
"1102 202 CURVE SMOOTH",
"1102 336 OFFCURVE",
"1021 504 OFFCURVE",
"995 549 CURVE",
"917 504 LINE"
);
},
{
closed = 1;
nodes = (
"1370 482 OFFCURVE",
"1413 306 OFFCURVE",
"1413 168 CURVE SMOOTH",
"1413 37 OFFCURVE",
"1377 -29 OFFCURVE",
"1315 -29 CURVE SMOOTH",
"1249 -29 OFFCURVE",
"1149 44 OFFCURVE",
"1076 149 CURVE",
"1002 98 LINE",
"1093 -32 OFFCURVE",
"1217 -119 OFFCURVE",
"1315 -119 CURVE SMOOTH",
"1435 -119 OFFCURVE",
"1503 -12 OFFCURVE",
"1503 168 CURVE SMOOTH",
"1503 317 OFFCURVE",
"1458 502 OFFCURVE",
"1447 551 CURVE",
"1359 532 LINE"
);
}
);
width = 1543;
},
{
anchors = (
{
name = "#entry";
position = "{1461, 3}";
},
{
name = top;
position = "{1032, 805}";
}
);
layerId = "9AB624CD-9C19-4372-9845-4C197A276709";
paths = (
{
closed = 1;
nodes = (
"1396 488 OFFCURVE",
"1439 314 OFFCURVE",
"1439 178 CURVE SMOOTH",
"1439 57 OFFCURVE",
"1408 -4 OFFCURVE",
"1354 -4 CURVE SMOOTH",
"1291 -4 OFFCURVE",
"1194 67 OFFCURVE",
"1123 168 CURVE",
"1073 134 LINE",
"1156 16 OFFCURVE",
"1270 -64 OFFCURVE",
"1354 -64 CURVE SMOOTH",
"1448 -64 OFFCURVE",
"1499 24 OFFCURVE",
"1499 178 CURVE SMOOTH",
"1499 322 OFFCURVE",
"1454 502 OFFCURVE",
"1443 551 CURVE",
"1385 539 LINE"
);
},
{
closed = 1;
nodes = (
"1002 455 OFFCURVE",
"1075 296 OFFCURVE",
"1075 173 CURVE SMOOTH",
"1075 74 OFFCURVE",
"1028 26 OFFCURVE",
"932 29 CURVE SMOOTH",
"904 30 OFFCURVE",
"870 35 OFFCURVE",
"836 43 CURVE",
"822 -15 LINE",
"842 -20 OFFCURVE",
"886 -30 OFFCURVE",
"930 -31 CURVE SMOOTH",
"1060 -34 OFFCURVE",
"1135 40 OFFCURVE",
"1135 173 CURVE SMOOTH",
"1135 308 OFFCURVE",
"1058 479 OFFCURVE",
"1032 543 CURVE",
"976 521 LINE"
);
},
{
closed = 1;
nodes = (
"597 479 OFFCURVE",
"602 468 OFFCURVE",
"626 427 CURVE SMOOTH",
"693 312 OFFCURVE",
"833 69 OFFCURVE",
"832 -158 CURVE SMOOTH",
"829 -734 OFFCURVE",
"90 -674 OFFCURVE",
"90 -60 CURVE",
"30 -60 LINE",
"30 -750 OFFCURVE",
"892 -817 OFFCURVE",
"892 -158 CURVE SMOOTH",
"892 85 OFFCURVE",
"745 342 OFFCURVE",
"678 457 CURVE SMOOTH",
"656 495 OFFCURVE",
"652 503 OFFCURVE",
"650 507 CURVE",
"594 489 LINE"
);
}
);
width = 1529;
}
);
unicode = 0633;
},
{
glyphname = "seen-ar.fina";
layers = (
{
anchors = (
{
name = "#entry";
position = "{1529, 0}";
},
{
name = top;
position = "{903, 899}";
}
);
components = (
{
name = "seen-ar";
transform = "{1, 0, 0, 1, 0, 31}";
}
);
layerId = "7C6EC3B8-53E3-46D5-865A-ED8DFE2E3A2E";
paths = (
{
closed = 1;
nodes = (
"1444 30 OFFCURVE",
"1401 91 OFFCURVE",
"1399 215 CURVE",
"1369 215 LINE",
"1371 75 OFFCURVE",
"1427 0 OFFCURVE",
"1530 0 CURVE",
"1530 30 LINE"
);
}
);
width = 1530;
},
{
anchors = (
{
name = "#entry";
position = "{1717, 0}";
},
{
name = top;
position = "{903, 814}";
}
);
components = (
{
name = "seen-ar";
transform = "{1, 0, 0, 1, 0, 31}";
}
);
layerId = "EA99615A-DD74-4F65-B9DC-480CDB683AEE";
paths = (
{
closed = 1;
nodes = (
"1423 127 OFFCURVE",
"1441 -20 OFFCURVE",
"1717 0 CURVE",
"1717 90 LINE",
"1537 70 OFFCURVE",
"1513 133 OFFCURVE",
"1499 285 CURVE",
"1411 267 LINE"
);
}
);
width = 1717;
},
{
anchors = (
{
name = "#entry";
position = "{1773, 0}";
},
{
name = top;
position = "{903, 857}";
}
);
components = (
{
alignment = -1;
name = "seen-ar";
transform = "{1, 0, 0, 1, 0, 37}";
}
);
layerId = "9AB624CD-9C19-4372-9845-4C197A276709";
paths = (
{
closed = 1;
nodes = (
"1521 42 OFFCURVE",
"1506 160 OFFCURVE",
"1494 300 CURVE",
"1435 294 LINE",
"1447 154 OFFCURVE",
"1469 -22 OFFCURVE",
"1773 0 CURVE",
"1773 60 LINE"
);
}
);
width = 1773;
}
);
unicode = FEB2;
},
{
glyphname = "seen-ar.medi";
layers = (
{
anchors = (
{
name = "#entry";
position = "{821, 0}";
},
{
name = "#exit";
position = "{0, 0}";
},
{
name = top;
position = "{430, 802}";
}
);
background = {
paths = (
{
closed = 1;
nodes = (
"715 109 OFFCURVE",
"716 0 OFFCURVE",
"821 0 CURVE",
"821 30 LINE",
"753 30 OFFCURVE",
"744 107 OFFCURVE",
"744 286 CURVE",
"715 286 LINE"
);
}
);
};
components = (
{
name = "seen-ar.init";
}
);
layerId = "7C6EC3B8-53E3-46D5-865A-ED8DFE2E3A2E";
paths = (
{
closed = 1;
nodes = (
"744 255 OFFCURVE",
"718 233 OFFCURVE",
"715 169 CURVE",
"722 69 OFFCURVE",
"737 0 OFFCURVE",
"821 0 CURVE",
"821 30 LINE",
"765 30 OFFCURVE",
"748 86 OFFCURVE",
"744 201 CURVE"
);
}
);
width = 821;
},
{
anchors = (
{
name = "#entry";
position = "{1299, 0}";
},
{
name = "#exit";
position = "{0, 0}";
},
{
name = top;
position = "{539, 779}";
}
);
components = (
{
name = "seen-ar.init";
}
);
layerId = "EA99615A-DD74-4F65-B9DC-480CDB683AEE";
paths = (
{
closed = 1;
nodes = (
"1105 90 OFFCURVE",
"1037 186 OFFCURVE",
"1040 359 CURVE",
"953 361 LINE",
"950 138 OFFCURVE",
"1052 0 OFFCURVE",
"1299 0 CURVE",
"1299 90 LINE"
);
}
);
width = 1299;
},
{
anchors = (
{
name = "#entry";
position = "{1513, 0}";
},
{
name = "#exit";
position = "{0, 0}";
},
{
name = top;
position = "{801, 826}";
}
);
components = (
{
name = "seen-ar.init";
}
);
layerId = "9AB624CD-9C19-4372-9845-4C197A276709";
paths = (
{
closed = 1;
nodes = (
"1220 97 OFFCURVE",
"1314 0 OFFCURVE",
"1513 0 CURVE",
"1513 60 LINE",
"1348 60 OFFCURVE",
"1280 130 OFFCURVE",
"1284 308 CURVE",
"1224 300 LINE"
);
}
);
width = 1513;
}
);
unicode = FEB4;
},
{
glyphname = "seen-ar.init";
layers = (
{
anchors = (
{
name = "#entry";
position = "{-1, 0}";
},
{
name = top;
position = "{371, 826}";
}
);
layerId = "7C6EC3B8-53E3-46D5-865A-ED8DFE2E3A2E";
paths = (
{
closed = 1;
nodes = (
"481 69 OFFCURVE",
"565 0 OFFCURVE",
"636 0 CURVE SMOOTH",
"781 0 OFFCURVE",
"749 246 OFFCURVE",
"696 536 CURVE",
"666 532 LINE",
"719 242 OFFCURVE",
"747 30 OFFCURVE",
"636 30 CURVE SMOOTH",
"577 30 OFFCURVE",
"504 91 OFFCURVE",
"474 167 CURVE",
"446 155 LINE"
);
},
{
closed = 1;
nodes = (
"217 -40 OFFCURVE",
"475 -58 OFFCURVE",
"475 140 CURVE SMOOTH",
"475 201 OFFCURVE",
"475 240 OFFCURVE",
"429 478 CURVE",
"399 472 LINE",
"445 236 OFFCURVE",
"445 201 OFFCURVE",
"445 140 CURVE SMOOTH",
"445 -24 OFFCURVE",
"234 3 OFFCURVE",
"175 174 CURVE",
"147 164 LINE"
);
},
{
closed = 1;
nodes = (
"163 172 OFFCURVE",
"171 33 OFFCURVE",
"0 30 CURVE",
"0 0 LINE",
"203 3 OFFCURVE",
"193 174 OFFCURVE",
"170 508 CURVE",
"140 506 LINE"
);
}
);
width = 744;
},
{
anchors = (
{
name = "#entry";
position = "{0, 0}";
},
{
name = top;
position = "{613, 748}";
}
);
layerId = "EA99615A-DD74-4F65-B9DC-480CDB683AEE";
paths = (
{
closed = 1;
nodes = (
"336 0 OFFCURVE",
"334 265 OFFCURVE",
"312 459 CURVE",
"222 450 LINE",
"232 422 OFFCURVE",
"231 2 OFFCURVE",
"472 2 CURVE SMOOTH",
"698 2 OFFCURVE",
"698 263 OFFCURVE",
"676 527 CURVE",
"586 518 LINE",
"596 430 OFFCURVE",
"592 -2 OFFCURVE",
"833 -2 CURVE SMOOTH",
"1059 -2 OFFCURVE",
"1057 263 OFFCURVE",
"1025 597 CURVE",
"935 589 LINE",
"972 194 OFFCURVE",
"944 88 OFFCURVE",
"833 88 CURVE SMOOTH",
"682 88 OFFCURVE",
"686 434 OFFCURVE",
"676 528 CURVE",
"586 519 LINE",
"613 198 OFFCURVE",
"584 92 OFFCURVE",
"472 92 CURVE SMOOTH",
"321 92 OFFCURVE",
"322 366 OFFCURVE",
"312 460 CURVE",
"222 451 LINE",
"249 196 OFFCURVE",
"221 90 OFFCURVE",
"0 90 CURVE",
"0 0 LINE"
);
}
);
width = 1080;
},
{
anchors = (
{
name = "#entry";
position = "{0, 0}";
},
{
name = top;
position = "{759, 843}";
}
);
layerId = "9AB624CD-9C19-4372-9845-4C197A276709";
paths = (
{
closed = 1;
nodes = (
"802 198 OFFCURVE",
"756 62 OFFCURVE",
"598 62 CURVE SMOOTH",
"386 62 OFFCURVE",
"378 421 OFFCURVE",
"378 480 CURVE",
"318 480 LINE",
"318 421 OFFCURVE",
"328 2 OFFCURVE",
"598 2 CURVE SMOOTH",
"854 2 OFFCURVE",
"854 294 OFFCURVE",
"832 559 CURVE",
"772 555 LINE"
);
},
{
closed = 1;
nodes = (
"1252 202 OFFCURVE",
"1210 58 OFFCURVE",
"1049 58 CURVE SMOOTH",
"838 58 OFFCURVE",
"842 470 OFFCURVE",
"832 559 CURVE",
"772 555 LINE",
"782 468 OFFCURVE",
"778 -2 OFFCURVE",
"1049 -2 CURVE SMOOTH",
"1305 -2 OFFCURVE",
"1303 295 OFFCURVE",
"1271 630 CURVE",
"1211 624 LINE"
);
},
{
closed = 1;
nodes = (
"318 284 OFFCURVE",
"334 60 OFFCURVE",
"0 60 CURVE",
"0 0 LINE",
"398 1 OFFCURVE",
"378 287 OFFCURVE",
"378 480 CURVE",
"318 480 LINE"
);
}
);
width = 1316;
}
);
unicode = FEB3;
},
{
glyphname = "sad-ar";
layers = (
{
anchors = (
{
name = "#entry";
position = "{1164, 0}";
},
{
name = top;
position = "{832, 839}";
}
);
components = (
{
name = "sad-01";
}
);
layerId = "7C6EC3B8-53E3-46D5-865A-ED8DFE2E3A2E";
paths = (
{
closed = 1;
nodes = (
"2 -3 OFFCURVE",
"0 -39 OFFCURVE",
"0 -73 CURVE SMOOTH",
"0 -355 OFFCURVE",
"110 -513 OFFCURVE",
"313 -513 CURVE SMOOTH",
"334 -513 OFFCURVE",
"356 -511 OFFCURVE",
"384 -505 CURVE SMOOTH",
"638 -451 OFFCURVE",
"794 -273 OFFCURVE",
"794 -31 CURVE SMOOTH",
"794 43 OFFCURVE",
"770 126 OFFCURVE",
"744 215 CURVE SMOOTH",
"718 302 OFFCURVE",
"691 396 OFFCURVE",
"680 498 CURVE",
"650 495 LINE",
"673 282 OFFCURVE",
"764 108 OFFCURVE",
"764 -31 CURVE SMOOTH",
"764 -258 OFFCURVE",
"619 -425 OFFCURVE",
"378 -476 CURVE SMOOTH",
"353 -481 OFFCURVE",
"332 -483 OFFCURVE",
"313 -483 CURVE SMOOTH",
"128 -483 OFFCURVE",
"30 -339 OFFCURVE",
"30 -73 CURVE SMOOTH",
"30 -40 OFFCURVE",
"32 -4 OFFCURVE",
"35 33 CURVE",
"5 35 LINE"
);
}
);
width = 1704;
},
{
anchors = (
{
name = "#entry";
position = "{1279, 0}";
},
{
name = top;
position = "{952, 862}";
}
);
components = (
{
name = "sad-01";
}
);
layerId = "EA99615A-DD74-4F65-B9DC-480CDB683AEE";
paths = (
{
closed = 1;
nodes = (
"804 195 OFFCURVE",
"834 56 OFFCURVE",
"834 14 CURVE SMOOTH",
"834 -538 OFFCURVE",
"130 -589 OFFCURVE",
"130 -28 CURVE SMOOTH",
"130 1 OFFCURVE",
"131 34 OFFCURVE",
"135 76 CURVE",
"45 84 LINE",
"42 40 OFFCURVE",
"40 4 OFFCURVE",
"40 -28 CURVE SMOOTH",
"40 -713 OFFCURVE",
"924 -652 OFFCURVE",
"924 14 CURVE SMOOTH",
"924 66 OFFCURVE",
"894 205 OFFCURVE",
"809 554 CURVE",
"721 532 LINE"
);
}
);
width = 1908;
},
{
anchors = (
{
name = "#entry";
position = "{1279, 0}";
},
{
name = top;
position = "{994, 790}";
}
);
components = (
{
name = "sad-regular";
transform = "{1, 0, 0, 1, 722, 0}";
},
{
name = _connection2;
transform = "{0.57689, 0, 0, 1, 761, 0}";
}
);
layerId = "9AB624CD-9C19-4372-9845-4C197A276709";
paths = (
{
closed = 1;
nodes = (
"32 -35 OFFCURVE",
"30 -69 OFFCURVE",
"30 -105 CURVE SMOOTH",
"30 -707 OFFCURVE",
"794 -653 OFFCURVE",
"794 -63 CURVE SMOOTH",
"794 -17 OFFCURVE",
"763 127 OFFCURVE",
"680 462 CURVE",
"622 448 LINE",
"702 121 OFFCURVE",
"734 -24 OFFCURVE",
"734 -63 CURVE SMOOTH",
"734 -577 OFFCURVE",
"90 -625 OFFCURVE",
"90 -105 CURVE SMOOTH",
"90 -71 OFFCURVE",
"91 -40 OFFCURVE",
"95 -4 CURVE",
"35 2 LINE"
);
}
);
width = 1730;
}
);
unicode = 0635;
},
{
glyphname = "sad-ar.init";
layers = (
{
anchors = (
{
name = "#entry";
position = "{526, 0}";
},
{
name = "#exit";
position = "{0, 0}";
},
{
name = top;
position = "{230, 863}";
}
);
components = (
{
name = "sad-regular";
}
);
layerId = "7C6EC3B8-53E3-46D5-865A-ED8DFE2E3A2E";
paths = (
{
closed = 1;
nodes = (
"0 0 LINE",
"47 0 OFFCURVE",
"85 8 OFFCURVE",
"85 112 CURVE SMOOTH",
"85 170 OFFCURVE",
"77 249 OFFCURVE",
"88 483 CURVE",
"58 484 LINE",
"50 302 OFFCURVE",
"53 212 OFFCURVE",
"54 155 CURVE",
"55 139 OFFCURVE",
"55 125 OFFCURVE",
"55 112 CURVE SMOOTH",
"55 40 OFFCURVE",
"37 30 OFFCURVE",
"0 30 CURVE"
);
}
);
width = 1024;
},
{
anchors = (
{
name = "#entry";
position = "{566, 0}";
},
{
name = "#exit";
position = "{0, 0}";
},
{
name = top;
position = "{230, 863}";
}
);
components = (
{
name = "sad-regular";
}
);
layerId = "EA99615A-DD74-4F65-B9DC-480CDB683AEE";
paths = (
{
closed = 1;
nodes = (
"48 308 OFFCURVE",
"66 90 OFFCURVE",
"0 90 CURVE",
"0 0 LINE",
"147 0 OFFCURVE",
"139 120 OFFCURVE",
"133 529 CURVE",
"43 527 LINE"
);
}
);
width = 1175;
},
{
anchors = (
{
name = "#entry";
position = "{514, 0}";
},
{
name = "#exit";
position = "{0, 0}";
},
{
name = top;
position = "{363, 800}";
}
);
components = (
{
name = "sad-regular";
},
{
name = _connection2;
}
);
layerId = "9AB624CD-9C19-4372-9845-4C197A276709";
paths = (
{
closed = 1;
nodes = (
"100 172 OFFCURVE",
"112 60 OFFCURVE",
"50 60 CURVE",
"50 0 LINE",
"178 0 OFFCURVE",
"160 176 OFFCURVE",
"153 499 CURVE",
"93 497 LINE"
);
}
);
width = 1008;
}
);
unicode = FEBB;
},
{
glyphname = "tah-ar.init";
layers = (
{
anchors = (
{
name = "#entry";
position = "{472, 0}";
},
{
name = "#exit";
position = "{0, 0}";
},
{
name = top;
position = "{414, 893}";
}
);
layerId = "7C6EC3B8-53E3-46D5-865A-ED8DFE2E3A2E";
paths = (
{
closed = 1;
nodes = (
"39 0 OFFCURVE",
"338 0 OFFCURVE",
"472 0 CURVE SMOOTH",
"849 0 OFFCURVE",
"981 40 OFFCURVE",
"981 290 CURVE SMOOTH",
"981 460 OFFCURVE",
"865 561 OFFCURVE",
"671 561 CURVE SMOOTH",
"316 561 OFFCURVE",
"83 341 OFFCURVE",
"49 -27 CURVE",
"79 -29 LINE",
"111 323 OFFCURVE",
"332 531 OFFCURVE",
"671 531 CURVE SMOOTH",
"849 531 OFFCURVE",
"951 443 OFFCURVE",
"951 290 CURVE SMOOTH",
"951 59 OFFCURVE",
"811 30 OFFCURVE",
"472 30 CURVE SMOOTH",
"247 30 OFFCURVE",
"109 30 OFFCURVE",
"0 30 CURVE",
"0 0 LINE"
);
},
{
closed = 1;
nodes = (
"80 48 OFFCURVE",
"91 155 OFFCURVE",
"101 264 CURVE SMOOTH",
"112 389 OFFCURVE",
"124 514 OFFCURVE",
"124 664 CURVE SMOOTH",
"124 789 OFFCURVE",
"117 912 OFFCURVE",
"101 1049 CURVE",
"71 1045 LINE",
"88 908 OFFCURVE",
"94 787 OFFCURVE",
"94 664 CURVE SMOOTH",
"94 386 OFFCURVE",
"53 191 OFFCURVE",
"48 -75 CURVE",
"78 -75 LINE"
);
}
);
width = 981;
},
{
anchors = (
{
name = "#entry";
position = "{552, 0}";
},
{
name = "#exit";
position = "{0, 0}";
},
{
name = top;
position = "{413, 893}";
}
);
layerId = "EA99615A-DD74-4F65-B9DC-480CDB683AEE";
paths = (
{
closed = 1;
nodes = (
"206 359 OFFCURVE",
"419 561 OFFCURVE",
"751 561 CURVE SMOOTH",
"921 561 OFFCURVE",
"1016 479 OFFCURVE",
"1016 335 CURVE SMOOTH",
"1016 134 OFFCURVE",
"938 90 OFFCURVE",
"552 90 CURVE SMOOTH",
"419 90 OFFCURVE",
"40 90 OFFCURVE",
"0 90 CURVE",
"0 0 LINE",
"38 0 OFFCURVE",
"419 0 OFFCURVE",
"552 0 CURVE SMOOTH",
"982 0 OFFCURVE",
"1106 72 OFFCURVE",
"1106 335 CURVE SMOOTH",
"1106 530 OFFCURVE",
"970 651 OFFCURVE",
"751 651 CURVE SMOOTH",
"373 651 OFFCURVE",
"120 413 OFFCURVE",
"84 22 CURVE",
"174 14 LINE"
);
},
{
closed = 1;
nodes = (
"105 964 OFFCURVE",
"106 891 OFFCURVE",
"106 823 CURVE SMOOTH",
"106 578 OFFCURVE",
"109 399 OFFCURVE",
"82 -71 CURVE",
"172 -77 LINE",
"207 529 OFFCURVE",
"195 658 OFFCURVE",
"195 1050 CURVE",
"105 1050 LINE"
);
}
);
width = 1126;
},
{
anchors = (
{
name = "#entry";
position = "{552, 0}";
},
{
name = "#exit";
position = "{0, 0}";
},
{
name = top;
position = "{625, 784}";
}
);
layerId = "9AB624CD-9C19-4372-9845-4C197A276709";
paths = (
{
closed = 1;
nodes = (
"41 0 OFFCURVE",
"420 0 OFFCURVE",
"552 0 CURVE SMOOTH",
"879 0 OFFCURVE",
"1046 89 OFFCURVE",
"1046 275 CURVE SMOOTH",
"1046 408 OFFCURVE",
"923 501 OFFCURVE",
"751 501 CURVE SMOOTH",
"432 501 OFFCURVE",
"173 270 OFFCURVE",
"144 -43 CURVE",
"204 -49 LINE",
"230 234 OFFCURVE",
"463 441 OFFCURVE",
"751 441 CURVE SMOOTH",
"891 441 OFFCURVE",
"986 372 OFFCURVE",
"986 275 CURVE SMOOTH",
"986 130 OFFCURVE",
"848 60 OFFCURVE",
"552 60 CURVE SMOOTH",
"420 60 OFFCURVE",
"41 60 OFFCURVE",
"0 60 CURVE",
"0 0 LINE"
);
},
{
closed = 1;
nodes = (
"218 306 OFFCURVE",
"226 596 OFFCURVE",
"226 1001 CURVE",
"166 1001 LINE",
"166 596 OFFCURVE",
"158 308 OFFCURVE",
"143 -64 CURVE",
"203 -66 LINE"
);
}
);
width = 1076;
}
);
unicode = FEC3;
},
{
glyphname = "ain-ar";
layers = (
{
anchors = (
{
name = top;
position = "{97, 791}";
}
);
layerId = "7C6EC3B8-53E3-46D5-865A-ED8DFE2E3A2E";
paths = (
{
closed = 1;
nodes = (
"-87 -541 OFFCURVE",
"-59 42 OFFCURVE",
"394 -5 CURVE",
"398 25 LINE",
"-97 76 OFFCURVE",
"-129 -573 OFFCURVE",
"425 -558 CURVE",
"425 -528 LINE"
);
},
{
closed = 1;
nodes = (
"207 -2 LINE",
"184 8 OFFCURVE",
"161 22 OFFCURVE",
"144 36 CURVE SMOOTH",
"18 144 OFFCURVE",
"-7 286 OFFCURVE",
"87 401 CURVE SMOOTH",
"141 467 OFFCURVE",
"258 488 OFFCURVE",
"381 451 CURVE",
"390 482 LINE",
"255 519 OFFCURVE",
"124 495 OFFCURVE",
"64 420 CURVE SMOOTH",
"-40 291 OFFCURVE",
"-16 129 OFFCURVE",
"126 11 CURVE SMOOTH",
"137 2 OFFCURVE",
"152 -8 OFFCURVE",
"167 -16 CURVE"
);
}
);
width = 445;
},
{
anchors = (
{
name = top;
position = "{76, 791}";
}
);
layerId = "EA99615A-DD74-4F65-B9DC-480CDB683AEE";
paths = (
{
closed = 1;
nodes = (
"0 -506 OFFCURVE",
"27 45 OFFCURVE",
"459 0 CURVE",
"469 90 LINE",
"-89 147 OFFCURVE",
"-126 -600 OFFCURVE",
"492 -583 CURVE",
"490 -493 LINE"
);
},
{
closed = 1;
nodes = (
"-101 199 OFFCURVE",
"110 629 OFFCURVE",
"469 494 CURVE",
"502 579 LINE",
"38 750 OFFCURVE",
"-242 176 OFFCURVE",
"183 -72 CURVE",
"229 5 LINE"
);
}
);
width = 512;
},
{
anchors = (
{
name = top;
position = "{269, 791}";
}
);
layerId = "9AB624CD-9C19-4372-9845-4C197A276709";
paths = (
{
closed = 1;
nodes = (
"57 635 OFFCURVE",
"-178 157 OFFCURVE",
"184 -56 CURVE",
"214 -4 LINE",
"-85 172 OFFCURVE",
"104 553 OFFCURVE",
"428 431 CURVE",
"450 487 LINE"
);
},
{
closed = 1;
nodes = (
"-84 60 OFFCURVE",
"-179 -653 OFFCURVE",
"490 -653 CURVE",
"490 -593 LINE",
"-93 -593 OFFCURVE",
"-12 0 OFFCURVE",
"459 0 CURVE",
"459 60 LINE"
);
}
);
width = 600;
}
);
unicode = 0639;
},
{
glyphname = "ain-ar.fina";
layers = (
{
anchors = (
{
name = "#entry";
position = "{651, 0}";
},
{
name = top;
position = "{214, 746}";
}
);
layerId = "7C6EC3B8-53E3-46D5-865A-ED8DFE2E3A2E";
paths = (
{
closed = 1;
nodes = (
"349 -560 OFFCURVE",
"87 -485 OFFCURVE",
"87 -286 CURVE SMOOTH",
"87 -151 OFFCURVE",
"214 -67 OFFCURVE",
"344 19 CURVE SMOOTH",
"466 100 OFFCURVE",
"592 184 OFFCURVE",
"592 311 CURVE SMOOTH",
"592 397 OFFCURVE",
"563 453 OFFCURVE",
"508 472 CURVE SMOOTH",
"382 515 OFFCURVE",
"68 500 OFFCURVE",
"68 389 CURVE SMOOTH",
"68 150 OFFCURVE",
"442 0 OFFCURVE",
"651 0 CURVE",
"651 30 LINE",
"448 30 OFFCURVE",
"98 170 OFFCURVE",
"98 389 CURVE SMOOTH",
"98 457 OFFCURVE",
"354 492 OFFCURVE",
"498 444 CURVE SMOOTH",
"540 430 OFFCURVE",
"562 385 OFFCURVE",
"562 311 CURVE SMOOTH",
"562 78 OFFCURVE",
"57 3 OFFCURVE",
"57 -286 CURVE SMOOTH",
"57 -483 OFFCURVE",
"298 -598 OFFCURVE",
"597 -550 CURVE",
"593 -520 LINE"
);
}
);
width = 651;
},
{
anchors = (
{
name = "#entry";
position = "{651, 0}";
},
{
name = top;
position = "{291, 834}";
}
);
layerId = "EA99615A-DD74-4F65-B9DC-480CDB683AEE";
paths = (
{
closed = 1;
nodes = (
"391 90 OFFCURVE",
"113 268 OFFCURVE",
"113 434 CURVE SMOOTH",
"113 484 OFFCURVE",
"368 517 OFFCURVE",
"493 474 CURVE SMOOTH",
"622 430 OFFCURVE",
"536 245 OFFCURVE",
"319 102 CURVE SMOOTH",
"189 16 OFFCURVE",
"42 -82 OFFCURVE",
"42 -241 CURVE SMOOTH",
"42 -450 OFFCURVE",
"291 -570 OFFCURVE",
"600 -519 CURVE",
"586 -431 LINE",
"333 -472 OFFCURVE",
"132 -387 OFFCURVE",
"132 -241 CURVE SMOOTH",
"132 -130 OFFCURVE",
"239 -60 OFFCURVE",
"369 26 CURVE SMOOTH",
"657 216 OFFCURVE",
"738 486 OFFCURVE",
"523 560 CURVE SMOOTH",
"315 632 OFFCURVE",
"23 564 OFFCURVE",
"23 434 CURVE SMOOTH",
"23 165 OFFCURVE",
"433 0 OFFCURVE",
"651 0 CURVE",
"651 90 LINE"
);
}
);
width = 651;
},
{
anchors = (
{
name = "#entry";
position = "{738, 0}";
},
{
name = top;
position = "{310, 826}";
}
);
layerId = "9AB624CD-9C19-4372-9845-4C197A276709";
paths = (
{
closed = 1;
nodes = (
"464 60 OFFCURVE",
"90 277 OFFCURVE",
"90 434 CURVE SMOOTH",
"90 516 OFFCURVE",
"414 535 OFFCURVE",
"577 455 CURVE SMOOTH",
"702 394 OFFCURVE",
"626 217 OFFCURVE",
"406 72 CURVE SMOOTH",
"276 -14 OFFCURVE",
"129 -112 OFFCURVE",
"129 -271 CURVE SMOOTH",
"129 -479 OFFCURVE",
"377 -600 OFFCURVE",
"687 -549 CURVE",
"677 -489 LINE",
"404 -535 OFFCURVE",
"189 -436 OFFCURVE",
"189 -271 CURVE SMOOTH",
"189 -144 OFFCURVE",
"310 -64 OFFCURVE",
"440 22 CURVE SMOOTH",
"701 195 OFFCURVE",
"779 423 OFFCURVE",
"603 509 CURVE SMOOTH",
"386 615 OFFCURVE",
"30 574 OFFCURVE",
"30 434 CURVE SMOOTH",
"30 240 OFFCURVE",
"426 0 OFFCURVE",
"738 0 CURVE",
"738 60 LINE"
);
}
);
width = 738;
}
);
unicode = FECA;
},
{
glyphname = "ain-ar.medi";
layers = (
{
anchors = (
{
name = "#entry";
position = "{651, 0}";
},
{
name = "#exit";
position = "{0, 0}";
},
{
name = top;
position = "{274, 839}";
}
);
layerId = "7C6EC3B8-53E3-46D5-865A-ED8DFE2E3A2E";
paths = (
{
closed = 1;
nodes = (
"444 30 OFFCURVE",
"49 160 OFFCURVE",
"49 421 CURVE SMOOTH",
"49 497 OFFCURVE",
"338 528 OFFCURVE",
"503 473 CURVE SMOOTH",
"551 457 OFFCURVE",
"577 406 OFFCURVE",
"577 326 CURVE SMOOTH",
"577 39 OFFCURVE",
"285 30 OFFCURVE",
"0 30 CURVE",
"0 0 LINE",
"285 0 OFFCURVE",
"607 9 OFFCURVE",
"607 326 CURVE SMOOTH",
"607 418 OFFCURVE",
"574 480 OFFCURVE",
"513 501 CURVE SMOOTH",
"385 545 OFFCURVE",
"19 547 OFFCURVE",
"19 421 CURVE SMOOTH",
"19 138 OFFCURVE",
"440 0 OFFCURVE",
"651 0 CURVE",
"651 30 LINE"
);
}
);
width = 651;
},
{
anchors = (
{
name = "#entry";
position = "{678, 0}";
},
{
name = "#exit";
position = "{0, 0}";
},
{
name = top;
position = "{313, 870}";
}
);
layerId = "EA99615A-DD74-4F65-B9DC-480CDB683AEE";
paths = (
{
closed = 1;
nodes = (
"474 90 OFFCURVE",
"97 216 OFFCURVE",
"90 466 CURVE SMOOTH",
"88 523 OFFCURVE",
"380 552 OFFCURVE",
"524 503 CURVE SMOOTH",
"565 489 OFFCURVE",
"588 445 OFFCURVE",
"588 371 CURVE SMOOTH",
"588 98 OFFCURVE",
"310 90 OFFCURVE",
"0 90 CURVE",
"0 0 LINE",
"312 0 OFFCURVE",
"678 10 OFFCURVE",
"678 371 CURVE SMOOTH",
"678 482 OFFCURVE",
"634 561 OFFCURVE",
"554 589 CURVE SMOOTH",
"419 636 OFFCURVE",
"-1 636 OFFCURVE",
"0 466 CURVE SMOOTH",
"1 150 OFFCURVE",
"460 0 OFFCURVE",
"678 0 CURVE",
"678 90 LINE"
);
}
);
width = 678;
},
{
anchors = (
{
name = "#entry";
position = "{758, 0}";
},
{
name = "#exit";
position = "{0, 0}";
},
{
name = top;
position = "{390, 788}";
}
);
layerId = "9AB624CD-9C19-4372-9845-4C197A276709";
paths = (
{
closed = 1;
nodes = (
"390 0 OFFCURVE",
"698 9 OFFCURVE",
"698 311 CURVE SMOOTH",
"698 426 OFFCURVE",
"665 473 OFFCURVE",
"614 501 CURVE SMOOTH",
"466 582 OFFCURVE",
"50 577 OFFCURVE",
"50 426 CURVE SMOOTH",
"50 114 OFFCURVE",
"552 0 OFFCURVE",
"758 0 CURVE",
"758 60 LINE",
"556 60 OFFCURVE",
"110 164 OFFCURVE",
"110 426 CURVE SMOOTH",
"110 490 OFFCURVE",
"414 533 OFFCURVE",
"594 445 CURVE SMOOTH",
"621 432 OFFCURVE",
"638 371 OFFCURVE",
"638 311 CURVE SMOOTH",
"638 67 OFFCURVE",
"390 60 OFFCURVE",
"0 60 CURVE",
"0 0 LINE"
);
}
);
width = 758;
}
);
unicode = FECC;
},
{
glyphname = "ain-ar.init";
layers = (
{
anchors = (
{
name = top;
position = "{303, 841}";
}
);
layerId = "7C6EC3B8-53E3-46D5-865A-ED8DFE2E3A2E";
paths = (
{
closed = 1;
nodes = (
"166 78 OFFCURVE",
"88 168 OFFCURVE",
"88 253 CURVE SMOOTH",
"88 402 OFFCURVE",
"197 500 OFFCURVE",
"364 500 CURVE SMOOTH",
"391 500 OFFCURVE",
"426 493 OFFCURVE",
"453 483 CURVE",
"463 511 LINE",
"434 522 OFFCURVE",
"395 530 OFFCURVE",
"364 530 CURVE SMOOTH",
"181 530 OFFCURVE",
"58 419 OFFCURVE",
"58 253 CURVE SMOOTH",
"58 156 OFFCURVE",
"144 55 OFFCURVE",
"272 -1 CURVE",
"284 27 LINE"
);
},
{
closed = 1;
nodes = (
"0 0 LINE",
"57 -2 OFFCURVE",
"119 -4 OFFCURVE",
"174 -4 CURVE SMOOTH",
"302 -4 OFFCURVE",
"457 3 OFFCURVE",
"562 14 CURVE",
"558 44 LINE",
"456 33 OFFCURVE",
"303 26 OFFCURVE",
"174 26 CURVE SMOOTH",
"118 26 OFFCURVE",
"56 28 OFFCURVE",
"0 30 CURVE"
);
}
);
width = 600;
},
{
anchors = (
{
name = "#entry";
position = "{0, 0}";
},
{
name = top;
position = "{303, 877}";
}
);
layerId = "EA99615A-DD74-4F65-B9DC-480CDB683AEE";
paths = (
{
closed = 1;
nodes = (
"180 144 OFFCURVE",
"105 231 OFFCURVE",
"105 308 CURVE SMOOTH",
"105 478 OFFCURVE",
"281 588 OFFCURVE",
"449 524 CURVE",
"481 608 LINE",
"254 694 OFFCURVE",
"15 541 OFFCURVE",
"15 308 CURVE SMOOTH",
"15 193 OFFCURVE",
"111 76 OFFCURVE",
"256 13 CURVE",
"292 95 LINE"
);
},
{
closed = 1;
nodes = (
"454 108 OFFCURVE",
"301 97 OFFCURVE",
"172 92 CURVE SMOOTH",
"118 90 OFFCURVE",
"57 91 OFFCURVE",
"0 90 CURVE",
"0 0 LINE",
"57 0 OFFCURVE",
"120 0 OFFCURVE",
"176 2 CURVE SMOOTH",
"307 7 OFFCURVE",
"462 19 OFFCURVE",
"568 34 CURVE",
"554 123 LINE"
);
}
);
width = 600;
},
{
anchors = (
{
name = "#entry";
position = "{0, 0}";
},
{
name = top;
position = "{280, 798}";
}
);
layerId = "9AB624CD-9C19-4372-9845-4C197A276709";
paths = (
{
closed = 1;
nodes = (
"405 71 OFFCURVE",
"221 60 OFFCURVE",
"0 60 CURVE",
"0 0 LINE",
"191 0 OFFCURVE",
"389 8 OFFCURVE",
"572 34 CURVE",
"564 94 LINE"
);
},
{
closed = 1;
nodes = (
"86 674 OFFCURVE",
"-139 137 OFFCURVE",
"244 5 CURVE",
"264 61 LINE",
"-39 165 OFFCURVE",
"132 580 OFFCURVE",
"427 420 CURVE",
"455 472 LINE"
);
}
);
width = 602;
}
);
unicode = FECB;
},
{
glyphname = "fehDotless-ar";
layers = (
{
anchors = (
{
name = top;
position = "{891, 781}";
}
);
layerId = "7C6EC3B8-53E3-46D5-865A-ED8DFE2E3A2E";
paths = (
{
closed = 1;
nodes = (
"834 -5 OFFCURVE",
"884 0 CURVE SMOOTH",
"1061 18 OFFCURVE",
"1257 31 OFFCURVE",
"1257 239 CURVE SMOOTH",
"1257 476 OFFCURVE",
"1076 659 OFFCURVE",
"876 546 CURVE SMOOTH",
"782 492 OFFCURVE",
"726 400 OFFCURVE",
"726 298 CURVE SMOOTH",
"726 160 OFFCURVE",
"809 117 OFFCURVE",
"966 117 CURVE SMOOTH",
"1061 117 OFFCURVE",
"1188 146 OFFCURVE",
"1284 189 CURVE",
"1272 216 LINE",
"1180 179 OFFCURVE",
"1056 147 OFFCURVE",
"966 147 CURVE SMOOTH",
"829 147 OFFCURVE",
"758 174 OFFCURVE",
"756 298 CURVE",
"756 389 OFFCURVE",
"806 472 OFFCURVE",
"891 520 CURVE SMOOTH",
"1068 620 OFFCURVE",
"1227 454 OFFCURVE",
"1227 240 CURVE SMOOTH",
"1227 91 OFFCURVE",
"1121 46 OFFCURVE",
"884 30 CURVE SMOOTH",
"812 25 OFFCURVE",
"529 24 OFFCURVE",
"437 29 CURVE SMOOTH",
"77 49 OFFCURVE",
"-30 184 OFFCURVE",
"83 558 CURVE",
"54 568 LINE",
"-64 175 OFFCURVE",
"55 23 OFFCURVE",
"437 0 CURVE SMOOTH",
"520 -5 OFFCURVE"
);
}
);
width = 1304;
},
{
anchors = (
{
name = top;
position = "{965, 1000}";
}
);
layerId = "EA99615A-DD74-4F65-B9DC-480CDB683AEE";
paths = (
{
closed = 1;
nodes = (
"1255 271 OFFCURVE",
"1142 250 OFFCURVE",
"1040 250 CURVE SMOOTH",
"903 250 OFFCURVE",
"845 298 OFFCURVE",
"845 406 CURVE SMOOTH",
"845 492 OFFCURVE",
"892 570 OFFCURVE",
"972 615 CURVE SMOOTH",
"1118 697 OFFCURVE",
"1286 524 OFFCURVE",
"1286 287 CURVE SMOOTH",
"1286 121 OFFCURVE",
"1131 112 OFFCURVE",
"953 93 CURVE SMOOTH",
"906 88 OFFCURVE",
"594 88 OFFCURVE",
"514 93 CURVE SMOOTH",
"154 115 OFFCURVE",
"64 246 OFFCURVE",
"171 603 CURVE",
"85 629 LINE",
"-39 216 OFFCURVE",
"88 27 OFFCURVE",
"508 3 CURVE SMOOTH",
"594 -2 OFFCURVE",
"910 -2 OFFCURVE",
"963 3 CURVE SMOOTH",
"1139 20 OFFCURVE",
"1376 37 OFFCURVE",
"1376 287 CURVE SMOOTH",
"1376 594 OFFCURVE",
"1139 813 OFFCURVE",
"928 693 CURVE SMOOTH",
"821 632 OFFCURVE",
"755 524 OFFCURVE",
"755 406 CURVE SMOOTH",
"755 245 OFFCURVE",
"855 160 OFFCURVE",
"1040 160 CURVE SMOOTH",
"1153 160 OFFCURVE",
"1284 185 OFFCURVE",
"1356 220 CURVE",
"1316 300 LINE"
);
}
);
width = 1416;
},
{
anchors = (
{
name = top;
position = "{1040, 836}";
}
);
layerId = "9AB624CD-9C19-4372-9845-4C197A276709";
paths = (
{
closed = 1;
nodes = (
"30 178 OFFCURVE",
"131 27 OFFCURVE",
"512 4 CURVE SMOOTH",
"594 -1 OFFCURVE",
"907 -1 OFFCURVE",
"956 4 CURVE SMOOTH",
"1133 22 OFFCURVE",
"1316 34 OFFCURVE",
"1316 228 CURVE SMOOTH",
"1316 487 OFFCURVE",
"1126 678 OFFCURVE",
"957 582 CURVE SMOOTH",
"869 532 OFFCURVE",
"815 444 OFFCURVE",
"815 347 CURVE SMOOTH",
"815 220 OFFCURVE",
"888 161 OFFCURVE",
"1040 161 CURVE SMOOTH",
"1140 161 OFFCURVE",
"1263 182 OFFCURVE",
"1302 205 CURVE",
"1270 257 LINE",
"1242 239 OFFCURVE",
"1127 221 OFFCURVE",
"1040 221 CURVE SMOOTH",
"919 221 OFFCURVE",
"875 256 OFFCURVE",
"875 347 CURVE SMOOTH",
"875 423 OFFCURVE",
"916 490 OFFCURVE",
"987 530 CURVE SMOOTH",
"1111 600 OFFCURVE",
"1256 440 OFFCURVE",
"1256 228 CURVE SMOOTH",
"1256 90 OFFCURVE",
"1129 84 OFFCURVE",
"950 64 CURVE SMOOTH",
"905 59 OFFCURVE",
"594 59 OFFCURVE",
"516 64 CURVE SMOOTH",
"175 86 OFFCURVE",
"98 198 OFFCURVE",
"200 535 CURVE",
"142 553 LINE"
);
}
);
width = 1359;
}
);
unicode = 06A1;
},
{
glyphname = "fehDotless-ar.fina";
layers = (
{
anchors = (
{
name = "#entry";
position = "{1239, 0}";
},
{
name = top;
position = "{970, 804}";
}
);
layerId = "7C6EC3B8-53E3-46D5-865A-ED8DFE2E3A2E";
paths = (
{
closed = 1;
nodes = (
"1086 31 OFFCURVE",
"887 42 OFFCURVE",
"791 142 CURVE SMOOTH",
"629 311 OFFCURVE",
"740 573 OFFCURVE",
"970 573 CURVE SMOOTH",
"1097 573 OFFCURVE",
"1197 455 OFFCURVE",
"1197 309 CURVE SMOOTH",
"1197 126 OFFCURVE",
"1051 30 OFFCURVE",
"770 30 CURVE SMOOTH",
"735 30 OFFCURVE",
"695 30 OFFCURVE",
"649 30 CURVE SMOOTH",
"587 30 OFFCURVE",
"514 29 OFFCURVE",
"427 29 CURVE SMOOTH",
"144 29 OFFCURVE",
"15 125 OFFCURVE",
"15 331 CURVE SMOOTH",
"15 399 OFFCURVE",
"29 480 OFFCURVE",
"58 578 CURVE",
"30 586 LINE",
"0 486 OFFCURVE",
"-15 403 OFFCURVE",
"-15 331 CURVE SMOOTH",
"-15 106 OFFCURVE",
"129 -1 OFFCURVE",
"427 -1 CURVE SMOOTH",
"578 -1 OFFCURVE",
"687 0 OFFCURVE",
"770 0 CURVE SMOOTH",
"1067 0 OFFCURVE",
"1227 107 OFFCURVE",
"1227 309 CURVE SMOOTH",
"1227 472 OFFCURVE",
"1114 603 OFFCURVE",
"970 603 CURVE SMOOTH",
"713 603 OFFCURVE",
"588 309 OFFCURVE",
"769 122 CURVE SMOOTH",
"874 13 OFFCURVE",
"1086 1 OFFCURVE",
"1239 0 CURVE",
"1239 30 LINE"
);
}
);
width = 1239;
},
{
anchors = (
{
name = "#entry";
position = "{1419, 0}";
},
{
name = top;
position = "{1070, 920}";
}
);
layerId = "EA99615A-DD74-4F65-B9DC-480CDB683AEE";
paths = (
{
closed = 1;
nodes = (
"1110 92 OFFCURVE",
"972 125 OFFCURVE",
"901 198 CURVE SMOOTH",
"748 356 OFFCURVE",
"852 603 OFFCURVE",
"1070 603 CURVE SMOOTH",
"1188 603 OFFCURVE",
"1282 493 OFFCURVE",
"1282 354 CURVE SMOOTH",
"1282 180 OFFCURVE",
"1143 90 OFFCURVE",
"870 90 CURVE SMOOTH",
"835 90 OFFCURVE",
"795 90 OFFCURVE",
"748 90 CURVE SMOOTH",
"686 90 OFFCURVE",
"614 89 OFFCURVE",
"527 89 CURVE SMOOTH",
"251 89 OFFCURVE",
"130 179 OFFCURVE",
"130 376 CURVE SMOOTH",
"130 443 OFFCURVE",
"144 520 OFFCURVE",
"173 618 CURVE",
"87 644 LINE",
"55 539 OFFCURVE",
"40 451 OFFCURVE",
"40 376 CURVE SMOOTH",
"40 125 OFFCURVE",
"204 -1 OFFCURVE",
"527 -1 CURVE SMOOTH",
"678 -1 OFFCURVE",
"787 0 OFFCURVE",
"870 0 CURVE SMOOTH",
"1192 0 OFFCURVE",
"1372 125 OFFCURVE",
"1372 354 CURVE SMOOTH",
"1372 542 OFFCURVE",
"1239 693 OFFCURVE",
"1070 693 CURVE SMOOTH",
"773 693 OFFCURVE",
"630 352 OFFCURVE",
"837 136 CURVE SMOOTH",
"927 42 OFFCURVE",
"1084 2 OFFCURVE",
"1419 0 CURVE",
"1419 90 LINE"
);
}
);
width = 1419;
},
{
anchors = (
{
name = "#entry";
position = "{1459, 0}";
},
{
name = top;
position = "{1110, 839}";
}
);
layerId = "9AB624CD-9C19-4372-9845-4C197A276709";
paths = (
{
closed = 1;
nodes = (
"154 465 OFFCURVE",
"140 385 OFFCURVE",
"140 316 CURVE SMOOTH",
"140 99 OFFCURVE",
"277 -1 OFFCURVE",
"567 -1 CURVE SMOOTH",
"617 -1 OFFCURVE",
"719 -2 OFFCURVE",
"801 0 CURVE SMOOTH",
"852 1 OFFCURVE",
"896 0 OFFCURVE",
"910 0 CURVE SMOOTH",
"1199 0 OFFCURVE",
"1352 101 OFFCURVE",
"1352 294 CURVE SMOOTH",
"1352 449 OFFCURVE",
"1245 573 OFFCURVE",
"1110 573 CURVE SMOOTH",
"866 573 OFFCURVE",
"747 293 OFFCURVE",
"919 117 CURVE SMOOTH",
"1000 34 OFFCURVE",
"1152 2 OFFCURVE",
"1459 0 CURVE",
"1459 60 LINE",
"1169 62 OFFCURVE",
"1029 90 OFFCURVE",
"963 159 CURVE SMOOTH",
"829 299 OFFCURVE",
"918 513 OFFCURVE",
"1110 513 CURVE SMOOTH",
"1211 513 OFFCURVE",
"1292 416 OFFCURVE",
"1292 294 CURVE SMOOTH",
"1292 139 OFFCURVE",
"1167 60 OFFCURVE",
"910 60 CURVE SMOOTH",
"896 60 OFFCURVE",
"854 60 OFFCURVE",
"800 60 CURVE SMOOTH",
"720 60 OFFCURVE",
"617 59 OFFCURVE",
"567 59 CURVE SMOOTH",
"308 59 OFFCURVE",
"200 136 OFFCURVE",
"200 316 CURVE SMOOTH",
"200 379 OFFCURVE",
"213 453 OFFCURVE",
"242 549 CURVE",
"184 567 LINE"
);
}
);
width = 1459;
}
);
},
{
glyphname = "fehDotless-ar.medi";
layers = (
{
anchors = (
{
name = "#entry";
position = "{600, 0}";
},
{
name = "#exit";
position = "{0, 0}";
},
{
name = top;
position = "{326, 799}";
}
);
layerId = "7C6EC3B8-53E3-46D5-865A-ED8DFE2E3A2E";
paths = (
{
closed = 1;
nodes = (
"326 30 OFFCURVE",
"109 10 OFFCURVE",
"109 254 CURVE SMOOTH",
"109 435 OFFCURVE",
"208 570 OFFCURVE",
"338 570 CURVE SMOOTH",
"455 570 OFFCURVE",
"555 417 OFFCURVE",
"555 238 CURVE SMOOTH",
"555 88 OFFCURVE",
"449 30 OFFCURVE",
"170 30 CURVE SMOOTH",
"108 30 OFFCURVE",
"49 30 OFFCURVE",
"0 30 CURVE",
"0 0 LINE",
"47 0 OFFCURVE",
"107 0 OFFCURVE",
"170 0 CURVE SMOOTH",
"465 0 OFFCURVE",
"585 67 OFFCURVE",
"585 238 CURVE SMOOTH",
"585 434 OFFCURVE",
"473 600 OFFCURVE",
"338 600 CURVE SMOOTH",
"190 600 OFFCURVE",
"79 451 OFFCURVE",
"79 254 CURVE SMOOTH",
"79 -22 OFFCURVE",
"328 0 OFFCURVE",
"600 0 CURVE",
"600 30 LINE"
);
}
);
width = 600;
},
{
anchors = (
{
name = "#entry";
position = "{724, 0}";
},
{
name = "#exit";
position = "{0, 0}";
},
{
name = top;
position = "{376, 944}";
}
);
layerId = "EA99615A-DD74-4F65-B9DC-480CDB683AEE";
paths = (
{
closed = 1;
nodes = (
"356 90 OFFCURVE",
"174 113 OFFCURVE",
"174 349 CURVE SMOOTH",
"174 522 OFFCURVE",
"267 650 OFFCURVE",
"388 650 CURVE SMOOTH",
"495 650 OFFCURVE",
"590 505 OFFCURVE",
"590 333 CURVE SMOOTH",
"590 184 OFFCURVE",
"494 90 OFFCURVE",
"220 90 CURVE SMOOTH",
"157 90 OFFCURVE",
"126 90 OFFCURVE",
"0 90 CURVE",
"0 0 LINE",
"126 0 OFFCURVE",
"156 0 OFFCURVE",
"220 0 CURVE SMOOTH",
"540 0 OFFCURVE",
"680 123 OFFCURVE",
"680 333 CURVE SMOOTH",
"680 555 OFFCURVE",
"549 740 OFFCURVE",
"388 740 CURVE SMOOTH",
"214 740 OFFCURVE",
"84 571 OFFCURVE",
"84 349 CURVE SMOOTH",
"84 13 OFFCURVE",
"360 0 OFFCURVE",
"724 0 CURVE",
"724 90 LINE"
);
}
);
width = 724;
},
{
anchors = (
{
name = "#entry";
position = "{640, 0}";
},
{
name = "#exit";
position = "{0, 0}";
},
{
name = top;
position = "{326, 799}";
}
);
layerId = "9AB624CD-9C19-4372-9845-4C197A276709";
paths = (
{
closed = 1;
nodes = (
"50 0 OFFCURVE",
"107 0 OFFCURVE",
"170 0 CURVE SMOOTH",
"463 0 OFFCURVE",
"585 67 OFFCURVE",
"585 238 CURVE SMOOTH",
"585 434 OFFCURVE",
"473 600 OFFCURVE",
"338 600 CURVE SMOOTH",
"190 600 OFFCURVE",
"79 451 OFFCURVE",
"79 254 CURVE SMOOTH",
"79 -23 OFFCURVE",
"327 0 OFFCURVE",
"640 0 CURVE",
"640 60 LINE",
"325 60 OFFCURVE",
"139 43 OFFCURVE",
"139 254 CURVE SMOOTH",
"139 418 OFFCURVE",
"225 540 OFFCURVE",
"338 540 CURVE SMOOTH",
"436 540 OFFCURVE",
"525 400 OFFCURVE",
"525 238 CURVE SMOOTH",
"525 108 OFFCURVE",
"434 60 OFFCURVE",
"170 60 CURVE SMOOTH",
"109 60 OFFCURVE",
"50 60 OFFCURVE",
"0 60 CURVE",
"0 0 LINE"
);
}
);
width = 640;
}
);
},
{
glyphname = "fehDotless-ar.init";
layers = (
{
anchors = (
{
name = "#entry";
position = "{0, 0}";
},
{
name = top;
position = "{317, 793}";
}
);
layerId = "7C6EC3B8-53E3-46D5-865A-ED8DFE2E3A2E";
paths = (
{
closed = 1;
nodes = (
"0 0 LINE",
"-1 0 OFFCURVE",
"180 -3 OFFCURVE",
"223 -3 CURVE SMOOTH",
"422 -2 OFFCURVE",
"596 -22 OFFCURVE",
"596 236 CURVE SMOOTH",
"596 409 OFFCURVE",
"502 575 OFFCURVE",
"335 575 CURVE SMOOTH",
"194 575 OFFCURVE",
"65 445 OFFCURVE",
"65 295 CURVE SMOOTH",
"65 153 OFFCURVE",
"149 114 OFFCURVE",
"305 114 CURVE SMOOTH",
"422 114 OFFCURVE",
"527 143 OFFCURVE",
"623 186 CURVE",
"611 213 LINE",
"519 172 OFFCURVE",
"395 144 OFFCURVE",
"305 144 CURVE SMOOTH",
"168 144 OFFCURVE",
"97 171 OFFCURVE",
"95 295 CURVE SMOOTH",
"95 427 OFFCURVE",
"208 545 OFFCURVE",
"335 545 CURVE SMOOTH",
"482 545 OFFCURVE",
"566 394 OFFCURVE",
"566 237 CURVE SMOOTH",
"566 38 OFFCURVE",
"482 23 OFFCURVE",
"223 27 CURVE SMOOTH",
"188 28 OFFCURVE",
"3 30 OFFCURVE",
"0 30 CURVE"
);
}
);
width = 600;
},
{
anchors = (
{
name = "#entry";
position = "{0, 0}";
},
{
name = top;
position = "{367, 840}";
}
);
layerId = "EA99615A-DD74-4F65-B9DC-480CDB683AEE";
paths = (
{
closed = 1;
nodes = (
"273 0 LINE SMOOTH",
"470 0 OFFCURVE",
"691 -64 OFFCURVE",
"691 354 CURVE SMOOTH",
"691 573 OFFCURVE",
"562 738 OFFCURVE",
"385 738 CURVE SMOOTH",
"218 738 OFFCURVE",
"70 586 OFFCURVE",
"70 413 CURVE SMOOTH",
"70 255 OFFCURVE",
"159 187 OFFCURVE",
"355 187 CURVE SMOOTH",
"466 187 OFFCURVE",
"585 212 OFFCURVE",
"665 252 CURVE",
"625 332 LINE",
"556 298 OFFCURVE",
"454 277 OFFCURVE",
"355 277 CURVE SMOOTH",
"206 277 OFFCURVE",
"160 311 OFFCURVE",
"160 413 CURVE SMOOTH",
"160 536 OFFCURVE",
"267 648 OFFCURVE",
"385 648 CURVE SMOOTH",
"509 648 OFFCURVE",
"601 524 OFFCURVE",
"601 354 CURVE SMOOTH",
"601 36 OFFCURVE",
"474 90 OFFCURVE",
"273 90 CURVE SMOOTH",
"0 90 LINE",
"0 0 LINE"
);
}
);
width = 731;
},
{
anchors = (
{
name = "#entry";
position = "{0, 0}";
},
{
name = top;
position = "{385, 793}";
}
);
layerId = "9AB624CD-9C19-4372-9845-4C197A276709";
paths = (
{
closed = 1;
nodes = (
"273 0 LINE SMOOTH",
"474 0 OFFCURVE",
"631 -5 OFFCURVE",
"631 234 CURVE SMOOTH",
"631 420 OFFCURVE",
"527 558 OFFCURVE",
"385 558 CURVE SMOOTH",
"251 558 OFFCURVE",
"130 433 OFFCURVE",
"130 293 CURVE SMOOTH",
"130 171 OFFCURVE",
"192 127 OFFCURVE",
"355 127 CURVE SMOOTH",
"468 127 OFFCURVE",
"551 142 OFFCURVE",
"618 175 CURVE",
"592 229 LINE",
"533 200 OFFCURVE",
"460 187 OFFCURVE",
"355 187 CURVE SMOOTH",
"222 187 OFFCURVE",
"190 210 OFFCURVE",
"190 293 CURVE SMOOTH",
"190 399 OFFCURVE",
"284 498 OFFCURVE",
"385 498 CURVE SMOOTH",
"492 498 OFFCURVE",
"571 387 OFFCURVE",
"571 234 CURVE SMOOTH",
"571 57 OFFCURVE",
"474 60 OFFCURVE",
"273 60 CURVE SMOOTH",
"0 60 LINE",
"0 0 LINE"
);
}
);
width = 661;
}
);
},
{
glyphname = "qafDotless-ar";
layers = (
{
anchors = (
{
name = top;
position = "{509, 725}";
}
);
layerId = "7C6EC3B8-53E3-46D5-865A-ED8DFE2E3A2E";
paths = (
{
closed = 1;
nodes = (
"-36 -391 OFFCURVE",
"267 -640 OFFCURVE",
"603 -463 CURVE SMOOTH",
"779 -371 OFFCURVE",
"843 -144 OFFCURVE",
"798 196 CURVE SMOOTH",
"773 388 OFFCURVE",
"673 505 OFFCURVE",
"533 505 CURVE SMOOTH",
"393 505 OFFCURVE",
"262 375 OFFCURVE",
"262 225 CURVE SMOOTH",
"265 -5 OFFCURVE",
"581 -52 OFFCURVE",
"844 54 CURVE",
"833 81 LINE",
"591 -15 OFFCURVE",
"295 25 OFFCURVE",
"292 225 CURVE SMOOTH",
"292 357 OFFCURVE",
"407 475 OFFCURVE",
"533 475 CURVE SMOOTH",
"657 475 OFFCURVE",
"745 370 OFFCURVE",
"768 192 CURVE SMOOTH",
"812 -135 OFFCURVE",
"752 -351 OFFCURVE",
"589 -437 CURVE SMOOTH",
"275 -602 OFFCURVE",
"-3 -371 OFFCURVE",
"58 0 CURVE",
"29 5 LINE"
);
}
);
width = 864;
},
{
anchors = (
{
name = top;
position = "{672, 812}";
}
);
layerId = "EA99615A-DD74-4F65-B9DC-480CDB683AEE";
paths = (
{
closed = 1;
nodes = (
"725 -11 OFFCURVE",
"472 53 OFFCURVE",
"470 225 CURVE",
"470 348 OFFCURVE",
"578 460 OFFCURVE",
"696 460 CURVE SMOOTH",
"980 460 OFFCURVE",
"1039 -260 OFFCURVE",
"770 -441 CURVE SMOOTH",
"546 -591 OFFCURVE",
"120 -470 OFFCURVE",
"130 -1 CURVE",
"40 1 LINE",
"28 -538 OFFCURVE",
"562 -689 OFFCURVE",
"820 -515 CURVE SMOOTH",
"1167 -284 OFFCURVE",
"1072 550 OFFCURVE",
"696 550 CURVE SMOOTH",
"529 550 OFFCURVE",
"380 397 OFFCURVE",
"380 225 CURVE SMOOTH",
"383 -20 OFFCURVE",
"697 -120 OFFCURVE",
"1024 12 CURVE",
"990 96 LINE"
);
}
);
width = 1075;
},
{
anchors = (
{
name = top;
position = "{672, 812}";
}
);
layerId = "9AB624CD-9C19-4372-9845-4C197A276709";
paths = (
{
closed = 1;
nodes = (
"90 -506 OFFCURVE",
"551 -637 OFFCURVE",
"787 -479 CURVE SMOOTH",
"1082 -282 OFFCURVE",
"1011 497 OFFCURVE",
"696 497 CURVE SMOOTH",
"565 497 OFFCURVE",
"440 356 OFFCURVE",
"440 212 CURVE SMOOTH",
"440 15 OFFCURVE",
"716 -60 OFFCURVE",
"971 45 CURVE",
"949 101 LINE",
"735 13 OFFCURVE",
"502 65 OFFCURVE",
"500 212 CURVE",
"500 323 OFFCURVE",
"599 437 OFFCURVE",
"696 437 CURVE SMOOTH",
"948 437 OFFCURVE",
"997 -265 OFFCURVE",
"753 -429 CURVE SMOOTH",
"541 -571 OFFCURVE",
"150 -460 OFFCURVE",
"160 -15 CURVE",
"100 -13 LINE"
);
}
);
width = 1065;
}
);
unicode = 066F;
},
{
glyphname = "qafDotless-ar.fina";
layers = (
{
anchors = (
{
name = "#entry";
position = "{852, 0}";
},
{
name = top;
position = "{539, 710}";
}
);
layerId = "7C6EC3B8-53E3-46D5-865A-ED8DFE2E3A2E";
paths = (
{
closed = 1;
nodes = (
"-11 -376 OFFCURVE",
"278 -616 OFFCURVE",
"600 -445 CURVE SMOOTH",
"767 -356 OFFCURVE",
"830 -136 OFFCURVE",
"785 199 CURVE SMOOTH",
"760 384 OFFCURVE",
"669 495 OFFCURVE",
"537 495 CURVE SMOOTH",
"347 495 OFFCURVE",
"209 262 OFFCURVE",
"331 108 CURVE SMOOTH",
"425 -11 OFFCURVE",
"632 0 OFFCURVE",
"852 0 CURVE",
"852 30 LINE",
"631 30 OFFCURVE",
"439 19 OFFCURVE",
"355 126 CURVE SMOOTH",
"250 259 OFFCURVE",
"369 465 OFFCURVE",
"537 465 CURVE SMOOTH",
"652 465 OFFCURVE",
"733 365 OFFCURVE",
"755 195 CURVE SMOOTH",
"797 -128 OFFCURVE",
"740 -337 OFFCURVE",
"586 -419 CURVE SMOOTH",
"286 -579 OFFCURVE",
"23 -357 OFFCURVE",
"81 5 CURVE",
"52 10 LINE"
);
}
);
width = 852;
},
{
anchors = (
{
name = "#entry";
position = "{913, 0}";
},
{
name = top;
position = "{534, 839}";
}
);
layerId = "EA99615A-DD74-4F65-B9DC-480CDB683AEE";
paths = (
{
closed = 1;
nodes = (
"652 90 OFFCURVE",
"467 80 OFFCURVE",
"387 181 CURVE SMOOTH",
"292 301 OFFCURVE",
"399 495 OFFCURVE",
"558 495 CURVE SMOOTH",
"834 495 OFFCURVE",
"858 -223 OFFCURVE",
"600 -360 CURVE SMOOTH",
"311 -513 OFFCURVE",
"60 -302 OFFCURVE",
"117 48 CURVE",
"29 62 LINE",
"-40 -360 OFFCURVE",
"287 -629 OFFCURVE",
"642 -440 CURVE SMOOTH",
"980 -260 OFFCURVE",
"941 585 OFFCURVE",
"558 585 CURVE SMOOTH",
"324 585 OFFCURVE",
"176 304 OFFCURVE",
"317 125 CURVE SMOOTH",
"425 -12 OFFCURVE",
"654 0 OFFCURVE",
"913 0 CURVE",
"913 90 LINE"
);
}
);
width = 913;
},
{
anchors = (
{
name = "#entry";
position = "{857, 0}";
},
{
name = top;
position = "{502, 811}";
}
);
layerId = "9AB624CD-9C19-4372-9845-4C197A276709";
paths = (
{
closed = 1;
nodes = (
"15 -333 OFFCURVE",
"283 -556 OFFCURVE",
"555 -448 CURVE SMOOTH",
"856 -328 OFFCURVE",
"852 505 OFFCURVE",
"502 505 CURVE SMOOTH",
"318 505 OFFCURVE",
"177 232 OFFCURVE",
"287 92 CURVE SMOOTH",
"376 -22 OFFCURVE",
"597 0 OFFCURVE",
"857 0 CURVE",
"857 60 LINE",
"595 60 OFFCURVE",
"405 41 OFFCURVE",
"335 130 CURVE SMOOTH",
"256 231 OFFCURVE",
"368 445 OFFCURVE",
"502 445 CURVE SMOOTH",
"783 445 OFFCURVE",
"772 -297 OFFCURVE",
"533 -392 CURVE SMOOTH",
"302 -484 OFFCURVE",
"77 -293 OFFCURVE",
"91 -13 CURVE",
"31 -11 LINE"
);
}
);
width = 857;
}
);
},
{
glyphname = "kaf-ar";
layers = (
{
components = (
{
alignment = -1;
name = "hamza-ar";
transform = "{1, 0, 0, 1, 242, 36}";
}
);
layerId = "7C6EC3B8-53E3-46D5-865A-ED8DFE2E3A2E";
paths = (
{
closed = 1;
nodes = (
"-3 194 OFFCURVE",
"164 0 OFFCURVE",
"506 0 CURVE SMOOTH",
"1109 0 OFFCURVE",
"965 356 OFFCURVE",
"965 1007 CURVE",
"935 1007 LINE",
"941 330 OFFCURVE",
"1060 30 OFFCURVE",
"506 30 CURVE SMOOTH",
"182 30 OFFCURVE",
"28 210 OFFCURVE",
"53 559 CURVE",
"23 561 LINE"
);
}
);
width = 1000;
},
{
components = (
{
alignment = -1;
name = "hamza-ar";
transform = "{1, 0, 0, 1, 281, 16}";
}
);
layerId = "EA99615A-DD74-4F65-B9DC-480CDB683AEE";
paths = (
{
closed = 1;
nodes = (
"1015 413 OFFCURVE",
"1113 90 OFFCURVE",
"571 90 CURVE SMOOTH",
"256 90 OFFCURVE",
"109 261 OFFCURVE",
"133 603 CURVE",
"43 609 LINE",
"15 216 OFFCURVE",
"202 0 OFFCURVE",
"571 0 CURVE SMOOTH",
"1235 0 OFFCURVE",
"1105 427 OFFCURVE",
"1105 1045 CURVE",
"1015 1045 LINE"
);
}
);
width = 1155;
},
{
anchors = (
{
name = top;
position = "{448, 672}";
}
);
components = (
{
name = "hamza-ar";
transform = "{1, 0, 0, 1, 239, 105}";
}
);
layerId = "9AB624CD-9C19-4372-9845-4C197A276709";
paths = (
{
closed = 1;
nodes = (
"30 201 OFFCURVE",
"30 0 OFFCURVE",
"498 0 CURVE SMOOTH",
"1055 0 OFFCURVE",
"972 356 OFFCURVE",
"972 1005 CURVE",
"912 1005 LINE",
"912 350 OFFCURVE",
"979 60 OFFCURVE",
"498 60 CURVE SMOOTH",
"90 60 OFFCURVE",
"90 201 OFFCURVE",
"90 503 CURVE",
"30 503 LINE"
);
}
);
width = 1006;
}
);
unicode = 0643;
},
{
glyphname = "kaf-ar.fina";
layers = (
{
anchors = (
{
name = "#entry";
position = "{1145, 0}";
}
);
components = (
{
name = "kaf-ar";
}
);
layerId = "7C6EC3B8-53E3-46D5-865A-ED8DFE2E3A2E";
paths = (
{
closed = 1;
nodes = (
"949 426 LINE",
"956 99 OFFCURVE",
"1005 0 OFFCURVE",
"1145 0 CURVE",
"1145 30 LINE",
"1024 30 OFFCURVE",
"984 117 OFFCURVE",
"979 447 CURVE"
);
}
);
width = 1145;
},
{
anchors = (
{
name = "#entry";
position = "{1354, 0}";
}
);
components = (
{
name = "kaf-ar";
}
);
layerId = "EA99615A-DD74-4F65-B9DC-480CDB683AEE";
paths = (
{
closed = 1;
nodes = (
"1075 90 OFFCURVE",
"1115 348 OFFCURVE",
"1115 528 CURVE",
"1021 528 LINE",
"1021 344 OFFCURVE",
"983 0 OFFCURVE",
"1354 0 CURVE",
"1354 90 LINE"
);
}
);
width = 1354;
},
{
anchors = (
{
name = "#entry";
position = "{1279, 0}";
}
);
components = (
{
name = "kaf-ar";
}
);
layerId = "9AB624CD-9C19-4372-9845-4C197A276709";
paths = (
{
closed = 1;
nodes = (
"941 60 OFFCURVE",
"976 372 OFFCURVE",
"976 558 CURVE",
"916 558 LINE",
"916 376 OFFCURVE",
"875 0 OFFCURVE",
"1279 0 CURVE",
"1279 60 LINE"
);
}
);
width = 1279;
}
);
unicode = FEDA;
},
{
glyphname = "kaf-ar.init";
layers = (
{
anchors = (
{
name = "#entry";
position = "{351, 0}";
},
{
name = "#exit";
position = "{0, 0}";
}
);
layerId = "7C6EC3B8-53E3-46D5-865A-ED8DFE2E3A2E";
paths = (
{
closed = 1;
nodes = (
"26 0 OFFCURVE",
"193 0 OFFCURVE",
"351 0 CURVE SMOOTH",
"506 0 OFFCURVE",
"647 13 OFFCURVE",
"647 179 CURVE SMOOTH",
"647 362 OFFCURVE",
"474 383 OFFCURVE",
"317 401 CURVE SMOOTH",
"165 418 OFFCURVE",
"30 434 OFFCURVE",
"30 573 CURVE SMOOTH",
"30 669 OFFCURVE",
"282 803 OFFCURVE",
"610 1000 CURVE",
"594 1026 LINE",
"268 829 OFFCURVE",
"0 687 OFFCURVE",
"0 573 CURVE SMOOTH",
"0 241 OFFCURVE",
"617 492 OFFCURVE",
"617 179 CURVE SMOOTH",
"617 41 OFFCURVE",
"494 30 OFFCURVE",
"359 30 CURVE SMOOTH",
"205 30 OFFCURVE",
"28 30 OFFCURVE",
"0 30 CURVE",
"0 0 LINE"
);
}
);
width = 647;
},
{
anchors = (
{
name = "#entry";
position = "{469, 0}";
},
{
name = "#exit";
position = "{0, 0}";
}
);
layerId = "EA99615A-DD74-4F65-B9DC-480CDB683AEE";
paths = (
{
closed = 1;
nodes = (
"139 0 OFFCURVE",
"315 0 OFFCURVE",
"469 0 CURVE SMOOTH",
"606 0 OFFCURVE",
"772 15 OFFCURVE",
"772 194 CURVE SMOOTH",
"772 388 OFFCURVE",
"582 410 OFFCURVE",
"430 428 CURVE SMOOTH",
"274 446 OFFCURVE",
"155 460 OFFCURVE",
"155 588 CURVE SMOOTH",
"155 675 OFFCURVE",
"400 805 OFFCURVE",
"727 1002 CURVE",
"681 1080 LINE",
"356 883 OFFCURVE",
"65 729 OFFCURVE",
"65 588 CURVE SMOOTH",
"65 190 OFFCURVE",
"682 441 OFFCURVE",
"682 194 CURVE SMOOTH",
"682 114 OFFCURVE",
"634 90 OFFCURVE",
"469 90 CURVE SMOOTH",
"316 90 OFFCURVE",
"138 90 OFFCURVE",
"0 90 CURVE",
"0 0 LINE"
);
}
);
width = 792;
},
{
anchors = (
{
name = "#entry";
position = "{429, 0}";
},
{
name = "#exit";
position = "{0, 0}";
}
);
layerId = "9AB624CD-9C19-4372-9845-4C197A276709";
paths = (
{
closed = 1;
nodes = (
"29 0 OFFCURVE",
"274 0 OFFCURVE",
"429 0 CURVE SMOOTH",
"565 0 OFFCURVE",
"717 14 OFFCURVE",
"717 179 CURVE SMOOTH",
"717 360 OFFCURVE",
"541 380 OFFCURVE",
"389 398 CURVE SMOOTH",
"232 416 OFFCURVE",
"100 431 OFFCURVE",
"100 573 CURVE SMOOTH",
"100 669 OFFCURVE",
"353 803 OFFCURVE",
"680 1000 CURVE",
"648 1052 LINE",
"323 855 OFFCURVE",
"40 705 OFFCURVE",
"40 573 CURVE SMOOTH",
"40 378 OFFCURVE",
"225 356 OFFCURVE",
"382 338 CURVE SMOOTH",
"534 321 OFFCURVE",
"657 306 OFFCURVE",
"657 179 CURVE SMOOTH",
"657 88 OFFCURVE",
"602 60 OFFCURVE",
"429 60 CURVE SMOOTH",
"276 60 OFFCURVE",
"28 60 OFFCURVE",
"0 60 CURVE",
"0 0 LINE"
);
}
);
width = 747;
}
);
unicode = FEDB;
},
{
glyphname = "lam-ar";
layers = (
{
anchors = (
{
name = "#entry";
position = "{970, -1}";
},
{
name = top;
position = "{450, 781}";
}
);
layerId = "7C6EC3B8-53E3-46D5-865A-ED8DFE2E3A2E";
paths = (
{
closed = 1;
nodes = (
"-3 -298 OFFCURVE",
"164 -492 OFFCURVE",
"506 -492 CURVE SMOOTH",
"764 -492 OFFCURVE",
"971 -369 OFFCURVE",
"977 -205 CURVE SMOOTH",
"978 -178 OFFCURVE",
"975 -106 OFFCURVE",
"972 -39 CURVE SMOOTH",
"970 12 OFFCURVE",
"967 60 OFFCURVE",
"967 84 CURVE SMOOTH",
"962 769 OFFCURVE",
"967 860 OFFCURVE",
"965 1075 CURVE",
"935 1075 LINE",
"937 860 OFFCURVE",
"932 769 OFFCURVE",
"937 84 CURVE SMOOTH",
"937 26 OFFCURVE",
"950 -159 OFFCURVE",
"947 -203 CURVE SMOOTH",
"937 -349 OFFCURVE",
"748 -462 OFFCURVE",
"506 -462 CURVE SMOOTH",
"182 -462 OFFCURVE",
"28 -282 OFFCURVE",
"53 67 CURVE",
"23 69 LINE"
);
}
);
width = 977;
},
{
anchors = (
{
name = "#entry";
position = "{1092, -1}";
},
{
name = top;
position = "{343, 500}";
}
);
layerId = "EA99615A-DD74-4F65-B9DC-480CDB683AEE";
paths = (
{
closed = 1;
nodes = (
"1001 660 OFFCURVE",
"1004 460 OFFCURVE",
"1004 268 CURVE SMOOTH",
"1004 -282 OFFCURVE",
"1020 -447 OFFCURVE",
"571 -447 CURVE SMOOTH",
"256 -447 OFFCURVE",
"106 -272 OFFCURVE",
"133 65 CURVE",
"43 73 LINE",
"12 -317 OFFCURVE",
"203 -537 OFFCURVE",
"571 -537 CURVE SMOOTH",
"1120 -537 OFFCURVE",
"1094 -278 OFFCURVE",
"1094 268 CURVE SMOOTH",
"1094 460 OFFCURVE",
"1091 662 OFFCURVE",
"1086 1001 CURVE",
"996 999 LINE"
);
}
);
width = 1099;
},
{
anchors = (
{
name = "#entry";
position = "{958, 0}";
},
{
name = top;
position = "{450, 500}";
}
);
layerId = "9AB624CD-9C19-4372-9845-4C197A276709";
paths = (
{
closed = 1;
nodes = (
"30 -330 OFFCURVE",
"156 -478 OFFCURVE",
"498 -478 CURVE SMOOTH",
"980 -478 OFFCURVE",
"961 -282 OFFCURVE",
"961 267 CURVE SMOOTH",
"961 459 OFFCURVE",
"958 659 OFFCURVE",
"953 998 CURVE",
"893 998 LINE",
"898 659 OFFCURVE",
"901 459 OFFCURVE",
"901 267 CURVE SMOOTH",
"901 -284 OFFCURVE",
"914 -418 OFFCURVE",
"498 -418 CURVE SMOOTH",
"191 -418 OFFCURVE",
"90 -298 OFFCURVE",
"90 64 CURVE",
"30 64 LINE"
);
}
);
width = 991;
}
);
unicode = 0644;
},
{
glyphname = "lam-ar.medi";
layers = (
{
anchors = (
{
name = "#entry";
position = "{296, -1}";
},
{
name = "#exit";
position = "{0, 0}";
}
);
layerId = "7C6EC3B8-53E3-46D5-865A-ED8DFE2E3A2E";
paths = (
{
closed = 1;
nodes = (
"297 30 LINE",
"162 30 OFFCURVE",
"172 98 OFFCURVE",
"172 202 CURVE SMOOTH",
"172 602 OFFCURVE",
"175 937 OFFCURVE",
"179 1039 CURVE",
"149 1041 LINE",
"145 937 OFFCURVE",
"142 602 OFFCURVE",
"142 202 CURVE SMOOTH",
"142 82 OFFCURVE",
"129 0 OFFCURVE",
"297 0 CURVE"
);
},
{
closed = 1;
nodes = (
"141 2 OFFCURVE",
"172 1 OFFCURVE",
"172 226 CURVE",
"142 226 LINE",
"142 29 OFFCURVE",
"120 31 OFFCURVE",
"0 30 CURVE",
"0 0 LINE"
);
}
);
width = 297;
},
{
anchors = (
{
name = "#entry";
position = "{408, 0}";
},
{
name = "#exit";
position = "{0, 0}";
}
);
layerId = "EA99615A-DD74-4F65-B9DC-480CDB683AEE";
paths = (
{
closed = 1;
nodes = (
"189 683 OFFCURVE",
"188 648 OFFCURVE",
"188 247 CURVE SMOOTH",
"188 91 OFFCURVE",
"269 0 OFFCURVE",
"408 0 CURVE",
"408 90 LINE",
"320 90 OFFCURVE",
"278 140 OFFCURVE",
"278 247 CURVE SMOOTH",
"278 646 OFFCURVE",
"279 683 OFFCURVE",
"268 1085 CURVE",
"178 1083 LINE"
);
},
{
closed = 1;
nodes = (
"188 91 OFFCURVE",
"142 90 OFFCURVE",
"0 90 CURVE",
"0 0 LINE",
"142 0 OFFCURVE",
"278 1 OFFCURVE",
"278 271 CURVE",
"188 271 LINE"
);
}
);
width = 408;
},
{
anchors = (
{
name = "#entry";
position = "{378, 0}";
},
{
name = "#exit";
position = "{0, 0}";
}
);
layerId = "9AB624CD-9C19-4372-9845-4C197A276709";
paths = (
{
closed = 1;
nodes = (
"157 622 OFFCURVE",
"155 586 OFFCURVE",
"158 187 CURVE SMOOTH",
"159 64 OFFCURVE",
"193 0 OFFCURVE",
"378 0 CURVE",
"378 60 LINE",
"248 60 OFFCURVE",
"219 96 OFFCURVE",
"218 187 CURVE SMOOTH",
"214 586 OFFCURVE",
"217 624 OFFCURVE",
"208 996 CURVE",
"148 994 LINE"
);
},
{
closed = 1;
nodes = (
"142 0 OFFCURVE",
"218 2 OFFCURVE",
"218 211 CURVE",
"158 211 LINE",
"158 60 OFFCURVE",
"142 60 OFFCURVE",
"0 60 CURVE",
"0 0 LINE"
);
}
);
width = 378;
}
);
unicode = FEE0;
},
{
glyphname = "lam-ar.init";
layers = (
{
anchors = (
{
name = "#entry";
position = "{0, 0}";
}
);
layerId = "7C6EC3B8-53E3-46D5-865A-ED8DFE2E3A2E";
paths = (
{
closed = 1;
nodes = (
"0 0 LINE",
"249 0 OFFCURVE",
"208 -9 OFFCURVE",
"208 996 CURVE",
"178 996 LINE",
"178 6 OFFCURVE",
"211 30 OFFCURVE",
"0 30 CURVE"
);
}
);
width = 224;
},
{
anchors = (
{
name = "#entry";
position = "{0, 0}";
}
);
layerId = "EA99615A-DD74-4F65-B9DC-480CDB683AEE";
paths = (
{
closed = 1;
nodes = (
"293 94 OFFCURVE",
"324 90 OFFCURVE",
"0 90 CURVE",
"0 0 LINE",
"427 0 OFFCURVE",
"383 125 OFFCURVE",
"383 1041 CURVE",
"293 1041 LINE"
);
}
);
width = 424;
},
{
anchors = (
{
name = "#entry";
position = "{0, 0}";
}
);
layerId = "9AB624CD-9C19-4372-9845-4C197A276709";
paths = (
{
closed = 1;
nodes = (
"359 0 OFFCURVE",
"323 238 OFFCURVE",
"323 1001 CURVE",
"263 1001 LINE",
"263 234 OFFCURVE",
"289 60 OFFCURVE",
"0 60 CURVE",
"0 0 LINE"
);
}
);
width = 324;
}
);
unicode = FEDF;
},
{
glyphname = "meem-ar";
layers = (
{
anchors = (
{
name = "#entry";
position = "{460, 0}";
}
);
layerId = "7C6EC3B8-53E3-46D5-865A-ED8DFE2E3A2E";
paths = (
{
closed = 1;
nodes = (
"453 515 LINE",
"257 492 OFFCURVE",
"7 378 OFFCURVE",
"20 185 CURVE SMOOTH",
"29 54 OFFCURVE",
"31 -162 OFFCURVE",
"32 -340 CURVE SMOOTH",
"33 -466 OFFCURVE",
"26 -573 OFFCURVE",
"25 -615 CURVE",
"55 -615 LINE",
"56 -574 OFFCURVE",
"63 -472 OFFCURVE",
"62 -351 CURVE SMOOTH",
"61 -172 OFFCURVE",
"60 51 OFFCURVE",
"50 185 CURVE SMOOTH",
"38 340 OFFCURVE",
"269 466 OFFCURVE",
"455 487 CURVE"
);
},
{
closed = 1;
nodes = (
"342 30 OFFCURVE",
"246 132 OFFCURVE",
"246 257 CURVE SMOOTH",
"246 383 OFFCURVE",
"342 485 OFFCURVE",
"460 485 CURVE SMOOTH",
"578 485 OFFCURVE",
"674 383 OFFCURVE",
"674 257 CURVE SMOOTH",
"674 132 OFFCURVE",
"578 30 OFFCURVE",
"460 30 CURVE SMOOTH"
);
},
{
closed = 1;
nodes = (
"595 0 OFFCURVE",
"704 115 OFFCURVE",
"704 257 CURVE SMOOTH",
"704 401 OFFCURVE",
"595 515 OFFCURVE",
"460 515 CURVE SMOOTH",
"325 515 OFFCURVE",
"216 400 OFFCURVE",
"216 257 CURVE SMOOTH",
"216 115 OFFCURVE",
"325 0 OFFCURVE",
"460 0 CURVE SMOOTH"
);
}
);
width = 724;
},
{
anchors = (
{
name = "#entry";
position = "{525, 0}";
}
);
layerId = "EA99615A-DD74-4F65-B9DC-480CDB683AEE";
paths = (
{
closed = 1;
nodes = (
"136 -528 OFFCURVE",
"135 -421 OFFCURVE",
"134 -295 CURVE SMOOTH",
"133 -170 OFFCURVE",
"132 -27 OFFCURVE",
"131 93 CURVE",
"131 144 OFFCURVE",
"130 191 OFFCURVE",
"130 230 CURVE",
"129 367 OFFCURVE",
"297 489 OFFCURVE",
"523 515 CURVE",
"513 605 LINE",
"240 573 OFFCURVE",
"39 417 OFFCURVE",
"40 230 CURVE SMOOTH",
"41 99 OFFCURVE",
"43 -117 OFFCURVE",
"44 -295 CURVE SMOOTH",
"45 -421 OFFCURVE",
"46 -528 OFFCURVE",
"45 -569 CURVE",
"135 -571 LINE"
);
},
{
closed = 1;
nodes = (
"685 0 OFFCURVE",
"814 135 OFFCURVE",
"814 302 CURVE SMOOTH",
"814 470 OFFCURVE",
"685 605 OFFCURVE",
"525 605 CURVE SMOOTH",
"365 605 OFFCURVE",
"236 469 OFFCURVE",
"236 302 CURVE SMOOTH",
"236 135 OFFCURVE",
"365 0 OFFCURVE",
"525 0 CURVE SMOOTH"
);
},
{
closed = 1;
nodes = (
"415 90 OFFCURVE",
"326 185 OFFCURVE",
"326 302 CURVE SMOOTH",
"326 420 OFFCURVE",
"415 515 OFFCURVE",
"525 515 CURVE SMOOTH",
"636 515 OFFCURVE",
"724 421 OFFCURVE",
"724 302 CURVE SMOOTH",
"724 185 OFFCURVE",
"635 90 OFFCURVE",
"525 90 CURVE SMOOTH"
);
}
);
width = 854;
},
{
anchors = (
{
name = "#entry";
position = "{453, 0}";
}
);
layerId = "9AB624CD-9C19-4372-9845-4C197A276709";
paths = (
{
closed = 1;
nodes = (
"310 60 OFFCURVE",
"274 161 OFFCURVE",
"274 262 CURVE SMOOTH",
"274 363 OFFCURVE",
"360 445 OFFCURVE",
"453 445 CURVE SMOOTH",
"542 445 OFFCURVE",
"612 371 OFFCURVE",
"612 262 CURVE SMOOTH",
"612 155 OFFCURVE",
"591 60 OFFCURVE",
"453 60 CURVE SMOOTH"
);
},
{
closed = 1;
nodes = (
"625 0 OFFCURVE",
"672 122 OFFCURVE",
"672 262 CURVE SMOOTH",
"672 404 OFFCURVE",
"576 505 OFFCURVE",
"453 505 CURVE SMOOTH",
"326 505 OFFCURVE",
"214 396 OFFCURVE",
"214 262 CURVE SMOOTH",
"214 129 OFFCURVE",
"276 0 OFFCURVE",
"453 0 CURVE SMOOTH"
);
},
{
closed = 1;
nodes = (
"-28 499 OFFCURVE",
"30 276 OFFCURVE",
"35 -335 CURVE SMOOTH",
"36 -461 OFFCURVE",
"37 -568 OFFCURVE",
"36 -612 CURVE",
"96 -612 LINE",
"97 -568 OFFCURVE",
"96 -461 OFFCURVE",
"95 -335 CURVE SMOOTH",
"90 284 OFFCURVE",
"50 441 OFFCURVE",
"455 445 CURVE",
"453 505 LINE"
);
}
);
width = 702;
}
);
rightMetricsKey = "=|";
unicode = 0645;
},
{
glyphname = "meem-ar.medi";
layers = (
{
components = (
{
name = "meem-ar.init";
}
);
layerId = "7C6EC3B8-53E3-46D5-865A-ED8DFE2E3A2E";
paths = (
{
closed = 1;
nodes = (
"619 258 LINE",
"607 107 OFFCURVE",
"629 5 OFFCURVE",
"766 0 CURVE",
"766 30 LINE",
"657 37 OFFCURVE",
"638 115 OFFCURVE",
"648 250 CURVE"
);
}
);
width = 766;
},
{
anchors = (
{
name = "#entry";
position = "{985, 0}";
},
{
name = "#exit";
position = "{0, 0}";
}
);
components = (
{
name = "meem-ar.init";
}
);
layerId = "EA99615A-DD74-4F65-B9DC-480CDB683AEE";
paths = (
{
closed = 1;
nodes = (
"680 98 OFFCURVE",
"709 0 OFFCURVE",
"985 0 CURVE",
"985 90 LINE",
"805 90 OFFCURVE",
"770 121 OFFCURVE",
"775 323 CURVE",
"687 310 LINE"
);
}
);
width = 985;
},
{
anchors = (
{
name = "#entry";
position = "{991, 0}";
}
);
components = (
{
name = "meem-ar.init";
}
);
layerId = "9AB624CD-9C19-4372-9845-4C197A276709";
paths = (
{
closed = 1;
nodes = (
"663 267 LINE",
"671 63 OFFCURVE",
"754 0 OFFCURVE",
"991 0 CURVE",
"991 60 LINE",
"787 60 OFFCURVE",
"727 101 OFFCURVE",
"722 272 CURVE"
);
}
);
width = 991;
}
);
unicode = FEE4;
},
{
glyphname = "meem-ar.init";
layers = (
{
anchors = (
{
name = "#exit";
position = "{0, 0}";
}
);
layerId = "7C6EC3B8-53E3-46D5-865A-ED8DFE2E3A2E";
paths = (
{
closed = 1;
nodes = (
"534 1 OFFCURVE",
"649 124 OFFCURVE",
"649 274 CURVE SMOOTH",
"649 424 OFFCURVE",
"534 547 OFFCURVE",
"393 547 CURVE SMOOTH",
"247 547 OFFCURVE",
"117 419 OFFCURVE",
"117 274 CURVE SMOOTH",
"117 129 OFFCURVE",
"247 1 OFFCURVE",
"393 1 CURVE SMOOTH"
);
},
{
closed = 1;
nodes = (
"263 31 OFFCURVE",
"147 145 OFFCURVE",
"147 274 CURVE SMOOTH",
"147 403 OFFCURVE",
"263 517 OFFCURVE",
"393 517 CURVE SMOOTH",
"518 517 OFFCURVE",
"619 408 OFFCURVE",
"619 274 CURVE SMOOTH",
"619 140 OFFCURVE",
"518 31 OFFCURVE",
"393 31 CURVE SMOOTH"
);
},
{
closed = 1;
nodes = (
"121 234 OFFCURVE",
"167 41 OFFCURVE",
"0 30 CURVE",
"0 0 LINE",
"206 8 OFFCURVE",
"151 239 OFFCURVE",
"116 519 CURVE",
"86 515 LINE"
);
}
);
width = 649;
},
{
anchors = (
{
name = "#exit";
position = "{0, 0}";
}
);
layerId = "EA99615A-DD74-4F65-B9DC-480CDB683AEE";
paths = (
{
closed = 1;
nodes = (
"655 1 OFFCURVE",
"775 138 OFFCURVE",
"775 319 CURVE SMOOTH",
"775 500 OFFCURVE",
"655 637 OFFCURVE",
"494 637 CURVE SMOOTH",
"330 637 OFFCURVE",
"203 497 OFFCURVE",
"203 319 CURVE SMOOTH",
"203 141 OFFCURVE",
"330 1 OFFCURVE",
"494 1 CURVE SMOOTH"
);
},
{
closed = 1;
nodes = (
"380 91 OFFCURVE",
"293 190 OFFCURVE",
"293 319 CURVE SMOOTH",
"293 448 OFFCURVE",
"380 547 OFFCURVE",
"494 547 CURVE SMOOTH",
"604 547 OFFCURVE",
"685 451 OFFCURVE",
"685 319 CURVE SMOOTH",
"685 187 OFFCURVE",
"604 91 OFFCURVE",
"494 91 CURVE SMOOTH"
);
},
{
closed = 1;
nodes = (
"218 281 OFFCURVE",
"240 90 OFFCURVE",
"0 90 CURVE",
"0 0 LINE",
"340 0 OFFCURVE",
"308 287 OFFCURVE",
"268 624 CURVE",
"178 624 LINE"
);
}
);
width = 815;
},
{
anchors = (
{
name = "#exit";
position = "{0, 0}";
}
);
layerId = "9AB624CD-9C19-4372-9845-4C197A276709";
paths = (
{
closed = 1;
nodes = (
"405 62 OFFCURVE",
"331 147 OFFCURVE",
"331 260 CURVE SMOOTH",
"331 373 OFFCURVE",
"405 458 OFFCURVE",
"502 458 CURVE SMOOTH",
"595 458 OFFCURVE",
"663 375 OFFCURVE",
"663 260 CURVE SMOOTH",
"663 145 OFFCURVE",
"595 62 OFFCURVE",
"502 62 CURVE SMOOTH"
);
},
{
closed = 1;
nodes = (
"630 2 OFFCURVE",
"723 112 OFFCURVE",
"723 260 CURVE SMOOTH",
"723 408 OFFCURVE",
"630 518 OFFCURVE",
"502 518 CURVE SMOOTH",
"371 518 OFFCURVE",
"271 405 OFFCURVE",
"271 260 CURVE SMOOTH",
"271 115 OFFCURVE",
"371 2 OFFCURVE",
"502 2 CURVE SMOOTH"
);
},
{
closed = 1;
nodes = (
"273 133 OFFCURVE",
"298 60 OFFCURVE",
"0 60 CURVE",
"0 0 LINE",
"382 0 OFFCURVE",
"333 144 OFFCURVE",
"323 502 CURVE",
"263 501 LINE"
);
}
);
width = 753;
}
);
unicode = FEE3;
},
{
glyphname = "noonghunna-ar";
layers = (
{
anchors = (
{
name = "#entry";
position = "{788, 0}";
},
{
name = top;
position = "{355, 273}";
}
);
layerId = "7C6EC3B8-53E3-46D5-865A-ED8DFE2E3A2E";
paths = (
{
closed = 1;
nodes = (
"-3 -44 OFFCURVE",
"-84 -526 OFFCURVE",
"429 -515 CURVE SMOOTH",
"904 -505 OFFCURVE",
"791 65 OFFCURVE",
"740 502 CURVE",
"710 498 LINE",
"761 61 OFFCURVE",
"868 -475 OFFCURVE",
"429 -485 CURVE SMOOTH",
"-48 -496 OFFCURVE",
"27 -50 OFFCURVE",
"47 53 CURVE",
"17 59 LINE"
);
}
);
width = 789;
},
{
anchors = (
{
name = "#entry";
position = "{907, 0}";
},
{
name = top;
position = "{420, 300}";
}
);
layerId = "EA99615A-DD74-4F65-B9DC-480CDB683AEE";
paths = (
{
closed = 1;
nodes = (
"832 58 OFFCURVE",
"934 -460 OFFCURVE",
"513 -470 CURVE SMOOTH",
"207 -477 OFFCURVE",
"80 -289 OFFCURVE",
"146 50 CURVE",
"58 68 LINE",
"-19 -329 OFFCURVE",
"150 -568 OFFCURVE",
"515 -560 CURVE SMOOTH",
"1044 -548 OFFCURVE",
"920 72 OFFCURVE",
"870 507 CURVE",
"780 497 LINE"
);
}
);
width = 919;
},
{
anchors = (
{
name = "#entry";
position = "{823, 0}";
},
{
name = top;
position = "{404, 317}";
}
);
layerId = "9AB624CD-9C19-4372-9845-4C197A276709";
paths = (
{
closed = 1;
nodes = (
"30 -317 OFFCURVE",
"166 -499 OFFCURVE",
"471 -497 CURVE SMOOTH",
"907 -494 OFFCURVE",
"843 63 OFFCURVE",
"787 503 CURVE",
"727 503 LINE",
"780 59 OFFCURVE",
"839 -434 OFFCURVE",
"471 -437 CURVE SMOOTH",
"202 -439 OFFCURVE",
"90 -285 OFFCURVE",
"90 63 CURVE",
"30 63 LINE"
);
}
);
width = 876;
}
);
unicode = 06BA;
},
{
glyphname = "heh-ar";
layers = (
{
anchors = (
{
name = top;
position = "{305, 664}";
}
);
layerId = "7C6EC3B8-53E3-46D5-865A-ED8DFE2E3A2E";
paths = (
{
closed = 1;
nodes = (
"0 30 OFFCURVE",
"63 472 OFFCURVE",
"328 472 CURVE SMOOTH",
"545 472 OFFCURVE",
"593 30 OFFCURVE",
"270 30 CURVE SMOOTH"
);
},
{
closed = 1;
nodes = (
"635 0 OFFCURVE",
"583 502 OFFCURVE",
"328 502 CURVE SMOOTH",
"27 502 OFFCURVE",
"-42 0 OFFCURVE",
"270 0 CURVE SMOOTH"
);
}
);
width = 605;
},
{
anchors = (
{
name = top;
position = "{305, 808}";
}
);
layerId = "EA99615A-DD74-4F65-B9DC-480CDB683AEE";
paths = (
{
closed = 1;
nodes = (
"721 0 OFFCURVE",
"655 622 OFFCURVE",
"328 622 CURVE SMOOTH",
"-45 622 OFFCURVE",
"-131 0 OFFCURVE",
"270 0 CURVE SMOOTH"
);
},
{
closed = 1;
nodes = (
"-1 90 OFFCURVE",
"63 532 OFFCURVE",
"328 532 CURVE SMOOTH",
"545 532 OFFCURVE",
"593 90 OFFCURVE",
"270 90 CURVE SMOOTH"
);
}
);
width = 605;
},
{
anchors = (
{
name = top;
position = "{305, 808}";
}
);
layerId = "9AB624CD-9C19-4372-9845-4C197A276709";
paths = (
{
closed = 1;
nodes = (
"98 41 OFFCURVE",
"110 422 OFFCURVE",
"336 446 CURVE SMOOTH",
"524 466 OFFCURVE",
"537 89 OFFCURVE",
"292 62 CURVE SMOOTH"
);
},
{
closed = 1;
nodes = (
"621 37 OFFCURVE",
"599 535 OFFCURVE",
"329 506 CURVE SMOOTH",
"30 474 OFFCURVE",
"19 -28 OFFCURVE",
"298 2 CURVE SMOOTH"
);
}
);
width = 600;
}
);
unicode = 0647;
},
{
glyphname = "heh-ar.fina";
layers = (
{
anchors = (
{
name = "#entry";
position = "{839, 0}";
},
{
name = top;
position = "{361, 815}";
}
);
layerId = "7C6EC3B8-53E3-46D5-865A-ED8DFE2E3A2E";
paths = (
{
closed = 1;
nodes = (
"687 667 OFFCURVE",
"49 647 OFFCURVE",
"52 234 CURVE SMOOTH",
"53 74 OFFCURVE",
"146 0 OFFCURVE",
"349 0 CURVE SMOOTH",
"581 0 OFFCURVE",
"687 92 OFFCURVE",
"687 292 CURVE SMOOTH"
);
},
{
closed = 1;
nodes = (
"657 112 OFFCURVE",
"560 30 OFFCURVE",
"349 30 CURVE SMOOTH",
"167 30 OFFCURVE",
"83 94 OFFCURVE",
"82 234 CURVE SMOOTH",
"79 607 OFFCURVE",
"657 627 OFFCURVE",
"657 292 CURVE SMOOTH"
);
},
{
closed = 1;
nodes = (
"717 30 OFFCURVE",
"688 124 OFFCURVE",
"684 554 CURVE",
"654 554 LINE",
"658 110 OFFCURVE",
"692 0 OFFCURVE",
"839 0 CURVE",
"839 30 LINE"
);
}
);
width = 839;
},
{
anchors = (
{
name = "#entry";
position = "{911, 0}";
},
{
name = top;
position = "{394, 860}";
}
);
layerId = "EA99615A-DD74-4F65-B9DC-480CDB683AEE";
paths = (
{
closed = 1;
nodes = (
"638 0 OFFCURVE",
"765 111 OFFCURVE",
"765 337 CURVE SMOOTH",
"765 772 OFFCURVE",
"37 751 OFFCURVE",
"40 279 CURVE SMOOTH",
"41 92 OFFCURVE",
"155 0 OFFCURVE",
"382 0 CURVE SMOOTH"
);
},
{
closed = 1;
nodes = (
"203 90 OFFCURVE",
"131 146 OFFCURVE",
"130 279 CURVE SMOOTH",
"127 633 OFFCURVE",
"675 652 OFFCURVE",
"675 337 CURVE SMOOTH",
"675 163 OFFCURVE",
"589 90 OFFCURVE",
"382 90 CURVE SMOOTH"
);
},
{
closed = 1;
nodes = (
"670 148 OFFCURVE",
"726 0 OFFCURVE",
"911 0 CURVE",
"911 90 LINE",
"797 90 OFFCURVE",
"760 195 OFFCURVE",
"756 659 CURVE",
"666 659 LINE"
);
}
);
width = 911;
},
{
anchors = (
{
name = "#entry";
position = "{882, 0}";
},
{
name = top;
position = "{352, 818}";
}
);
layerId = "9AB624CD-9C19-4372-9845-4C197A276709";
paths = (
{
closed = 1;
nodes = (
"211 59 OFFCURVE",
"90 144 OFFCURVE",
"90 242 CURVE SMOOTH",
"90 377 OFFCURVE",
"212 489 OFFCURVE",
"355 489 CURVE SMOOTH",
"507 489 OFFCURVE",
"575 429 OFFCURVE",
"575 296 CURVE SMOOTH",
"575 111 OFFCURVE",
"525 59 OFFCURVE",
"352 59 CURVE SMOOTH"
);
},
{
closed = 1;
nodes = (
"559 -1 OFFCURVE",
"635 77 OFFCURVE",
"635 296 CURVE SMOOTH",
"635 463 OFFCURVE",
"539 549 OFFCURVE",
"355 549 CURVE SMOOTH",
"179 549 OFFCURVE",
"30 410 OFFCURVE",
"30 242 CURVE SMOOTH",
"30 108 OFFCURVE",
"178 -1 OFFCURVE",
"352 -1 CURVE SMOOTH"
);
},
{
closed = 1;
nodes = (
"567 107 OFFCURVE",
"621 0 OFFCURVE",
"882 0 CURVE",
"882 60 LINE",
"665 60 OFFCURVE",
"627 133 OFFCURVE",
"627 599 CURVE",
"567 599 LINE"
);
}
);
width = 882;
}
);
unicode = FEEA;
},
{
glyphname = "heh-ar.medi";
layers = (
{
anchors = (
{
name = "#entry";
position = "{716, 0}";
},
{
name = "#exit";
position = "{0, 0}";
}
);
layerId = "7C6EC3B8-53E3-46D5-865A-ED8DFE2E3A2E";
paths = (
{
closed = 1;
nodes = (
"171 -75 OFFCURVE",
"104 -189 OFFCURVE",
"104 -286 CURVE SMOOTH",
"104 -405 OFFCURVE",
"214 -497 OFFCURVE",
"350 -497 CURVE SMOOTH",
"444 -497 OFFCURVE",
"695 -361 OFFCURVE",
"695 -52 CURVE SMOOTH",
"695 45 OFFCURVE",
"671 149 OFFCURVE",
"624 260 CURVE SMOOTH",
"544 449 OFFCURVE",
"448 549 OFFCURVE",
"347 549 CURVE SMOOTH",
"232 549 OFFCURVE",
"128 404 OFFCURVE",
"128 249 CURVE SMOOTH",
"128 209 OFFCURVE",
"135 174 OFFCURVE",
"150 145 CURVE SMOOTH",
"225 -1 OFFCURVE",
"403 -46 OFFCURVE",
"716 0 CURVE",
"716 30 LINE",
"411 -14 OFFCURVE",
"243 26 OFFCURVE",
"176 159 CURVE SMOOTH",
"164 183 OFFCURVE",
"158 214 OFFCURVE",
"158 249 CURVE SMOOTH",
"158 387 OFFCURVE",
"250 519 OFFCURVE",
"347 519 CURVE SMOOTH",
"433 519 OFFCURVE",
"521 425 OFFCURVE",
"596 248 CURVE SMOOTH",
"642 140 OFFCURVE",
"665 41 OFFCURVE",
"665 -52 CURVE SMOOTH",
"665 -343 OFFCURVE",
"436 -467 OFFCURVE",
"350 -467 CURVE SMOOTH",
"230 -467 OFFCURVE",
"134 -387 OFFCURVE",
"134 -286 CURVE SMOOTH",
"134 -198 OFFCURVE",
"197 -92 OFFCURVE",
"320 24 CURVE",
"300 46 LINE"
);
},
{
closed = 1;
nodes = (
"150 -7 OFFCURVE",
"216 -1 OFFCURVE",
"292 10 CURVE",
"288 40 LINE",
"212 29 OFFCURVE",
"150 23 OFFCURVE",
"0 30 CURVE",
"0 0 LINE"
);
}
);
width = 716;
},
{
anchors = (
{
name = "#entry";
position = "{914, 1}";
},
{
name = "#exit";
position = "{0, 1}";
}
);
layerId = "EA99615A-DD74-4F65-B9DC-480CDB683AEE";
paths = (
{
closed = 1;
nodes = (
"557 64 OFFCURVE",
"296 114 OFFCURVE",
"246 212 CURVE SMOOTH",
"133 434 OFFCURVE",
"423 802 OFFCURVE",
"639 288 CURVE SMOOTH",
"684 181 OFFCURVE",
"706 85 OFFCURVE",
"706 -6 CURVE SMOOTH",
"706 -429 OFFCURVE",
"205 -524 OFFCURVE",
"205 -240 CURVE SMOOTH",
"205 -157 OFFCURVE",
"267 -53 OFFCURVE",
"387 59 CURVE",
"325 125 LINE",
"188 -4 OFFCURVE",
"115 -129 OFFCURVE",
"115 -240 CURVE SMOOTH",
"115 -662 OFFCURVE",
"796 -536 OFFCURVE",
"796 -6 CURVE SMOOTH",
"796 96 OFFCURVE",
"771 207 OFFCURVE",
"721 324 CURVE SMOOTH",
"435 993 OFFCURVE",
"16 462 OFFCURVE",
"166 170 CURVE SMOOTH",
"238 30 OFFCURVE",
"518 -29 OFFCURVE",
"914 1 CURVE",
"914 91 LINE"
);
},
{
closed = 1;
nodes = (
"271 101 OFFCURVE",
"175 90 OFFCURVE",
"0 90 CURVE",
"0 0 LINE",
"151 0 OFFCURVE",
"280 8 OFFCURVE",
"373 45 CURVE",
"339 129 LINE"
);
}
);
width = 914;
},
{
anchors = (
{
name = "#entry";
position = "{933, 0}";
},
{
name = "#exit";
position = "{0, 0}";
}
);
layerId = "9AB624CD-9C19-4372-9845-4C197A276709";
paths = (
{
closed = 1;
nodes = (
"279 9 OFFCURVE",
"192 -135 OFFCURVE",
"192 -301 CURVE SMOOTH",
"192 -631 OFFCURVE",
"753 -526 OFFCURVE",
"753 -67 CURVE SMOOTH",
"753 28 OFFCURVE",
"730 128 OFFCURVE",
"684 239 CURVE SMOOTH",
"449 806 OFFCURVE",
"111 383 OFFCURVE",
"236 137 CURVE SMOOTH",
"294 23 OFFCURVE",
"565 -28 OFFCURVE",
"933 0 CURVE",
"933 60 LINE",
"594 35 OFFCURVE",
"333 80 OFFCURVE",
"290 165 CURVE SMOOTH",
"190 363 OFFCURVE",
"433 676 OFFCURVE",
"628 215 CURVE SMOOTH",
"672 111 OFFCURVE",
"693 20 OFFCURVE",
"693 -67 CURVE SMOOTH",
"693 -454 OFFCURVE",
"252 -539 OFFCURVE",
"252 -301 CURVE SMOOTH",
"252 -157 OFFCURVE",
"326 -35 OFFCURVE",
"450 27 CURVE",
"424 81 LINE"
);
},
{
closed = 1;
nodes = (
"296 66 OFFCURVE",
"183 55 OFFCURVE",
"0 60 CURVE",
"0 0 LINE",
"153 -4 OFFCURVE",
"294 1 OFFCURVE",
"396 39 CURVE",
"376 95 LINE"
);
}
);
width = 933;
}
);
unicode = FEEC;
},
{
glyphname = "heh-ar.init";
layers = (
{
anchors = (
{
name = "#exit";
position = "{0, 0}";
}
);
layerId = "7C6EC3B8-53E3-46D5-865A-ED8DFE2E3A2E";
paths = (
{
closed = 1;
nodes = (
"34 -2 OFFCURVE",
"141 -9 OFFCURVE",
"303 32 CURVE SMOOTH",
"619 112 OFFCURVE",
"624 635 OFFCURVE",
"309 580 CURVE SMOOTH",
"29 531 OFFCURVE",
"66 112 OFFCURVE",
"354 38 CURVE SMOOTH",
"1119 -159 OFFCURVE",
"1014 596 OFFCURVE",
"286 710 CURVE",
"282 680 LINE",
"976 572 OFFCURVE",
"1074 -114 OFFCURVE",
"362 68 CURVE SMOOTH",
"104 134 OFFCURVE",
"68 502 OFFCURVE",
"315 550 CURVE SMOOTH",
"589 603 OFFCURVE",
"573 133 OFFCURVE",
"295 62 CURVE SMOOTH",
"139 22 OFFCURVE",
"36 28 OFFCURVE",
"0 30 CURVE",
"0 0 LINE"
);
}
);
width = 882;
},
{
anchors = (
{
name = "#exit";
position = "{0, 0}";
}
);
layerId = "EA99615A-DD74-4F65-B9DC-480CDB683AEE";
paths = (
{
closed = 1;
nodes = (
"1091 654 OFFCURVE",
"1063 -51 OFFCURVE",
"368 127 CURVE SMOOTH",
"126 189 OFFCURVE",
"89 540 OFFCURVE",
"320 581 CURVE SMOOTH",
"576 626 OFFCURVE",
"554 186 OFFCURVE",
"295 121 CURVE SMOOTH",
"140 82 OFFCURVE",
"40 88 OFFCURVE",
"0 90 CURVE",
"0 0 LINE",
"34 -2 OFFCURVE",
"148 -9 OFFCURVE",
"317 33 CURVE SMOOTH",
"689 125 OFFCURVE",
"678 735 OFFCURVE",
"304 669 CURVE SMOOTH",
"-23 611 OFFCURVE",
"11 126 OFFCURVE",
"346 39 CURVE SMOOTH",
"1181 -178 OFFCURVE",
"1221 730 OFFCURVE",
"124 858 CURVE",
"114 768 LINE"
);
}
);
width = 1001;
},
{
anchors = (
{
name = "#exit";
position = "{0, 0}";
}
);
layerId = "9AB624CD-9C19-4372-9845-4C197A276709";
paths = (
{
closed = 1;
nodes = (
"88 -4 OFFCURVE",
"209 9 OFFCURVE",
"301 32 CURVE SMOOTH",
"612 110 OFFCURVE",
"627 578 OFFCURVE",
"316 551 CURVE SMOOTH",
"48 528 OFFCURVE",
"85 108 OFFCURVE",
"360 38 CURVE SMOOTH",
"1102 -151 OFFCURVE",
"1134 728 OFFCURVE",
"116 738 CURVE",
"110 678 LINE",
"1039 671 OFFCURVE",
"1022 -71 OFFCURVE",
"374 96 CURVE SMOOTH",
"165 150 OFFCURVE",
"123 474 OFFCURVE",
"322 491 CURVE SMOOTH",
"558 511 OFFCURVE",
"525 150 OFFCURVE",
"287 90 CURVE SMOOTH",
"200 68 OFFCURVE",
"85 56 OFFCURVE",
"0 60 CURVE",
"0 0 LINE"
);
}
);
width = 930;
}
);
unicode = FEEB;
},
{
glyphname = "waw-ar";
layers = (
{
anchors = (
{
name = top;
position = "{159, 764}";
}
);
layerId = "7C6EC3B8-53E3-46D5-865A-ED8DFE2E3A2E";
paths = (
{
closed = 1;
nodes = (
"436 -374 OFFCURVE",
"554 -169 OFFCURVE",
"554 152 CURVE SMOOTH",
"554 638 OFFCURVE",
"6 702 OFFCURVE",
"6 252 CURVE SMOOTH",
"6 28 OFFCURVE",
"207 -31 OFFCURVE",
"540 -5 CURVE",
"540 25 LINE",
"228 1 OFFCURVE",
"36 45 OFFCURVE",
"36 252 CURVE SMOOTH",
"36 660 OFFCURVE",
"524 600 OFFCURVE",
"524 152 CURVE SMOOTH",
"524 -158 OFFCURVE",
"412 -353 OFFCURVE",
"160 -483 CURVE",
"174 -509 LINE"
);
}
);
width = 600;
},
{
anchors = (
{
name = "#entry";
position = "{659, 0}";
},
{
name = top;
position = "{273, 931}";
}
);
layerId = "EA99615A-DD74-4F65-B9DC-480CDB683AEE";
paths = (
{
closed = 1;
nodes = (
"273 63 OFFCURVE",
"130 129 OFFCURVE",
"130 302 CURVE SMOOTH",
"130 687 OFFCURVE",
"588 633 OFFCURVE",
"588 202 CURVE SMOOTH",
"588 -103 OFFCURVE",
"479 -292 OFFCURVE",
"232 -419 CURVE",
"274 -499 LINE",
"551 -356 OFFCURVE",
"678 -135 OFFCURVE",
"678 202 CURVE SMOOTH",
"678 743 OFFCURVE",
"40 816 OFFCURVE",
"40 302 CURVE SMOOTH",
"40 65 OFFCURVE",
"230 -31 OFFCURVE",
"623 0 CURVE",
"615 90 LINE"
);
}
);
width = 718;
},
{
anchors = (
{
name = "#entry";
position = "{533, 0}";
},
{
name = top;
position = "{239, 648}";
}
);
layerId = "9AB624CD-9C19-4372-9845-4C197A276709";
paths = (
{
closed = 1;
nodes = (
"433 -367 OFFCURVE",
"548 -167 OFFCURVE",
"548 148 CURVE SMOOTH",
"548 616 OFFCURVE",
"30 676 OFFCURVE",
"30 248 CURVE SMOOTH",
"30 51 OFFCURVE",
"193 -22 OFFCURVE",
"527 6 CURVE",
"543 66 LINE",
"220 40 OFFCURVE",
"90 96 OFFCURVE",
"90 248 CURVE SMOOTH",
"90 590 OFFCURVE",
"488 542 OFFCURVE",
"488 148 CURVE SMOOTH",
"488 -146 OFFCURVE",
"386 -324 OFFCURVE",
"148 -446 CURVE",
"176 -500 LINE"
);
}
);
width = 578;
}
);
unicode = 0648;
},
{
glyphname = "alefMaksura-ar";
layers = (
{
anchors = (
{
name = top;
position = "{106, 291}";
}
);
layerId = "7C6EC3B8-53E3-46D5-865A-ED8DFE2E3A2E";
paths = (
{
closed = 1;
nodes = (
"-42 -381 OFFCURVE",
"88 -515 OFFCURVE",
"532 -515 CURVE SMOOTH",
"878 -515 OFFCURVE",
"1050 -417 OFFCURVE",
"1050 -216 CURVE SMOOTH",
"1050 23 OFFCURVE",
"824 25 OFFCURVE",
"638 27 CURVE SMOOTH",
"490 28 OFFCURVE",
"372 29 OFFCURVE",
"372 126 CURVE SMOOTH",
"372 382 OFFCURVE",
"642 536 OFFCURVE",
"830 486 CURVE",
"838 516 LINE",
"638 568 OFFCURVE",
"342 400 OFFCURVE",
"342 126 CURVE SMOOTH",
"342 -153 OFFCURVE",
"1020 167 OFFCURVE",
"1020 -216 CURVE SMOOTH",
"1020 -398 OFFCURVE",
"861 -485 OFFCURVE",
"532 -485 CURVE SMOOTH",
"106 -485 OFFCURVE",
"-10 -365 OFFCURVE",
"41 27 CURVE",
"11 31 LINE"
);
}
);
width = 1050;
},
{
anchors = (
{
name = top;
position = "{141, 456}";
}
);
layerId = "EA99615A-DD74-4F65-B9DC-480CDB683AEE";
paths = (
{
closed = 1;
nodes = (
"-3 -330 OFFCURVE",
"134 -472 OFFCURVE",
"587 -472 CURVE SMOOTH",
"940 -472 OFFCURVE",
"1120 -370 OFFCURVE",
"1120 -158 CURVE SMOOTH",
"1120 93 OFFCURVE",
"878 96 OFFCURVE",
"696 97 CURVE SMOOTH",
"493 98 OFFCURVE",
"442 116 OFFCURVE",
"442 184 CURVE SMOOTH",
"442 398 OFFCURVE",
"679 583 OFFCURVE",
"882 530 CURVE",
"904 618 LINE",
"645 685 OFFCURVE",
"352 456 OFFCURVE",
"352 184 CURVE SMOOTH",
"352 -173 OFFCURVE",
"1030 162 OFFCURVE",
"1030 -158 CURVE SMOOTH",
"1030 -309 OFFCURVE",
"893 -382 OFFCURVE",
"587 -382 CURVE SMOOTH",
"187 -382 OFFCURVE",
"93 -283 OFFCURVE",
"141 79 CURVE",
"51 91 LINE"
);
}
);
width = 1160;
},
{
anchors = (
{
name = bottom;
position = "{578, -695}";
},
{
name = top;
position = "{141, 397}";
}
);
layerId = "9AB624CD-9C19-4372-9845-4C197A276709";
paths = (
{
closed = 1;
nodes = (
"687 550 OFFCURVE",
"432 350 OFFCURVE",
"432 117 CURVE SMOOTH",
"432 25 OFFCURVE",
"499 1 OFFCURVE",
"716 0 CURVE SMOOTH",
"898 -1 OFFCURVE",
"1110 -4 OFFCURVE",
"1110 -225 CURVE SMOOTH",
"1110 -415 OFFCURVE",
"948 -509 OFFCURVE",
"607 -509 CURVE SMOOTH",
"171 -509 OFFCURVE",
"49 -381 OFFCURVE",
"101 20 CURVE",
"41 28 LINE",
"-15 -411 OFFCURVE",
"135 -569 OFFCURVE",
"607 -569 CURVE SMOOTH",
"980 -569 OFFCURVE",
"1170 -454 OFFCURVE",
"1170 -225 CURVE SMOOTH",
"1170 56 OFFCURVE",
"898 59 OFFCURVE",
"716 60 CURVE SMOOTH",
"528 61 OFFCURVE",
"492 74 OFFCURVE",
"492 117 CURVE SMOOTH",
"492 311 OFFCURVE",
"710 482 OFFCURVE",
"894 434 CURVE",
"910 492 LINE"
);
}
);
width = 1200;
}
);
unicode = 0649;
},
{
glyphname = "alefMaksura-ar.fina";
layers = (
{
anchors = (
{
name = "#entry";
position = "{875, 0}";
},
{
name = top;
position = "{258, 304}";
}
);
layerId = "7C6EC3B8-53E3-46D5-865A-ED8DFE2E3A2E";
paths = (
{
closed = 1;
nodes = (
"10 14 OFFCURVE",
"0 -56 OFFCURVE",
"0 -122 CURVE SMOOTH",
"0 -361 OFFCURVE",
"176 -526 OFFCURVE",
"429 -526 CURVE SMOOTH",
"759 -526 OFFCURVE",
"875 -330 OFFCURVE",
"751 15 CURVE",
"723 5 LINE",
"840 -322 OFFCURVE",
"737 -496 OFFCURVE",
"429 -496 CURVE SMOOTH",
"192 -496 OFFCURVE",
"30 -344 OFFCURVE",
"30 -122 CURVE SMOOTH",
"30 -58 OFFCURVE",
"40 10 OFFCURVE",
"49 80 CURVE",
"19 84 LINE"
);
},
{
closed = 1;
nodes = (
"751 26 OFFCURVE",
"691 27 OFFCURVE",
"541 48 CURVE",
"537 18 LINE",
"691 -3 OFFCURVE",
"751 0 OFFCURVE",
"875 0 CURVE",
"875 30 LINE"
);
}
);
width = 875;
},
{
anchors = (
{
name = "#entry";
position = "{960, 0}";
},
{
name = top;
position = "{385, 442}";
}
);
layerId = "EA99615A-DD74-4F65-B9DC-480CDB683AEE";
paths = (
{
closed = 1;
nodes = (
"835 90 OFFCURVE",
"778 87 OFFCURVE",
"628 108 CURVE",
"616 18 LINE",
"774 -3 OFFCURVE",
"837 0 OFFCURVE",
"960 0 CURVE",
"960 90 LINE"
);
},
{
closed = 1;
nodes = (
"907 -271 OFFCURVE",
"812 -436 OFFCURVE",
"514 -436 CURVE SMOOTH",
"285 -436 OFFCURVE",
"130 -290 OFFCURVE",
"130 -77 CURVE SMOOTH",
"130 -14 OFFCURVE",
"140 53 OFFCURVE",
"149 123 CURVE",
"59 135 LINE",
"50 65 OFFCURVE",
"40 -8 OFFCURVE",
"40 -77 CURVE SMOOTH",
"40 -341 OFFCURVE",
"236 -526 OFFCURVE",
"514 -526 CURVE SMOOTH",
"876 -526 OFFCURVE",
"1013 -299 OFFCURVE",
"878 75 CURVE",
"794 45 LINE"
);
}
);
width = 960;
},
{
anchors = (
{
name = "#entry";
position = "{910, 0}";
},
{
name = bottom;
position = "{464, -691}";
},
{
name = top;
position = "{374, 336}";
}
);
layerId = "9AB624CD-9C19-4372-9845-4C197A276709";
paths = (
{
closed = 1;
nodes = (
"671 7 OFFCURVE",
"785 0 OFFCURVE",
"910 0 CURVE",
"910 60 LINE",
"787 60 OFFCURVE",
"676 67 OFFCURVE",
"602 78 CURVE",
"594 18 LINE"
);
},
{
closed = 1;
nodes = (
"-6 -264 OFFCURVE",
"112 -488 OFFCURVE",
"464 -488 CURVE SMOOTH",
"757 -488 OFFCURVE",
"882 -275 OFFCURVE",
"772 33 CURVE",
"716 13 LINE",
"812 -257 OFFCURVE",
"714 -428 OFFCURVE",
"464 -428 CURVE SMOOTH",
"153 -428 OFFCURVE",
"57 -236 OFFCURVE",
"99 57 CURVE",
"39 65 LINE"
);
}
);
width = 910;
}
);
unicode = FEF0;
},
{
glyphname = "lam_alef-ar";
layers = (
{
anchors = (
{
name = _top;
position = "{177, -219}";
},
{
name = top;
position = "{148, 1153}";
}
);
layerId = "7C6EC3B8-53E3-46D5-865A-ED8DFE2E3A2E";
paths = (
{
closed = 1;
nodes = (
"20 0 LINE",
"379 0 OFFCURVE",
"453 -4 OFFCURVE",
"453 1001 CURVE",
"423 1001 LINE",
"423 11 OFFCURVE",
"341 30 OFFCURVE",
"20 30 CURVE"
);
},
{
closed = 1;
nodes = (
"161 712 OFFCURVE",
"177 512 OFFCURVE",
"159 12 CURVE",
"189 10 LINE",
"207 512 OFFCURVE",
"191 714 OFFCURVE",
"173 999 CURVE",
"143 997 LINE"
);
}
);
width = 466;
},
{
anchors = (
{
name = bottom;
position = "{197, -174}";
},
{
name = top;
position = "{171, 1113}";
}
);
layerId = "EA99615A-DD74-4F65-B9DC-480CDB683AEE";
paths = (
{
closed = 1;
nodes = (
"431 0 OFFCURVE",
"468 111 OFFCURVE",
"468 1006 CURVE",
"378 1006 LINE",
"378 136 OFFCURVE",
"354 90 OFFCURVE",
"20 90 CURVE",
"20 0 LINE"
);
},
{
closed = 1;
nodes = (
"201 546 OFFCURVE",
"197 728 OFFCURVE",
"188 1003 CURVE",
"98 1001 LINE",
"107 726 OFFCURVE",
"111 544 OFFCURVE",
"114 45 CURVE",
"204 45 LINE"
);
}
);
width = 508;
},
{
anchors = (
{
name = bottom;
position = "{320, -124}";
},
{
name = top;
position = "{145, 1053}";
}
);
layerId = "9AB624CD-9C19-4372-9845-4C197A276709";
paths = (
{
closed = 1;
nodes = (
"221 530 OFFCURVE",
"217 667 OFFCURVE",
"208 942 CURVE",
"148 940 LINE",
"157 665 OFFCURVE",
"161 528 OFFCURVE",
"164 30 CURVE",
"224 30 LINE"
);
},
{
closed = 1;
nodes = (
"413 0 OFFCURVE",
"438 73 OFFCURVE",
"438 946 CURVE",
"378 946 LINE",
"378 93 OFFCURVE",
"361 60 OFFCURVE",
"50 60 CURVE",
"50 0 LINE"
);
}
);
width = 438;
}
);
leftMetricsKey = "alef-ar.fina";
rightMetricsKey = "lam-ar.init";
unicode = FEFB;
},
{
glyphname = "lam_alef-ar.fina";
layers = (
{
anchors = (
{
name = top;
position = "{136, 1129}";
}
);
components = (
{
name = "lam_alef-ar";
}
);
layerId = "7C6EC3B8-53E3-46D5-865A-ED8DFE2E3A2E";
paths = (
{
closed = 1;
nodes = (
"574 30 LINE",
"375 30 OFFCURVE",
"435 370 OFFCURVE",
"443 525 CURVE",
"413 527 LINE",
"403 348 OFFCURVE",
"349 0 OFFCURVE",
"574 0 CURVE"
);
}
);
width = 574;
},
{
anchors = (
{
name = "#entry";
position = "{631, 0}";
},
{
name = bottom;
position = "{307, -123}";
},
{
name = top;
position = "{166, 1099}";
}
);
components = (
{
name = "lam_alef-ar";
}
);
layerId = "EA99615A-DD74-4F65-B9DC-480CDB683AEE";
paths = (
{
closed = 1;
nodes = (
"504 90 OFFCURVE",
"462 205 OFFCURVE",
"461 562 CURVE",
"373 579 LINE",
"373 286 OFFCURVE",
"390 0 OFFCURVE",
"631 0 CURVE",
"631 90 LINE"
);
}
);
width = 631;
},
{
anchors = (
{
name = "#entry";
position = "{587, 0}";
},
{
name = _top;
position = "{168, 1000}";
},
{
name = bottom;
position = "{307, -123}";
},
{
name = top;
position = "{166, 1083}";
}
);
components = (
{
name = "lam_alef-ar";
}
);
layerId = "9AB624CD-9C19-4372-9845-4C197A276709";
paths = (
{
closed = 1;
nodes = (
"470 60 OFFCURVE",
"433 171 OFFCURVE",
"433 534 CURVE",
"374 534 LINE",
"374 242 OFFCURVE",
"388 0 OFFCURVE",
"587 0 CURVE",
"587 60 LINE"
);
}
);
width = 587;
}
);
leftMetricsKey = "alef-ar.fina";
rightMetricsKey = "lam-ar.medi";
unicode = FEFC;
},
{
glyphname = alef_small;
layers = (
{
anchors = (
{
name = bottom;
position = "{300, 0}";
},
{
name = bottomleft;
position = "{5, 0}";
},
{
name = center;
position = "{300, 250}";
},
{
name = top;
position = "{300, 500}";
},
{
name = topleft;
position = "{20, 500}";
}
);
layerId = "7C6EC3B8-53E3-46D5-865A-ED8DFE2E3A2E";
paths = (
{
closed = 1;
nodes = (
"316 173 OFFCURVE",
"316 186 OFFCURVE",
"316 197 CURVE",
"315 235 OFFCURVE",
"314 288 OFFCURVE",
"309 330 CURVE",
"304 354 OFFCURVE",
"275 351 OFFCURVE",
"279 326 CURVE SMOOTH",
"287 274 OFFCURVE",
"285 201 OFFCURVE",
"286 168 CURVE SMOOTH",
"287 142 OFFCURVE",
"316 140 OFFCURVE",
"316 165 CURVE SMOOTH"
);
}
);
width = 600;
},
{
layerId = "EA99615A-DD74-4F65-B9DC-480CDB683AEE";
width = 600;
},
{
layerId = "9AB624CD-9C19-4372-9845-4C197A276709";
width = 600;
}
);
},
{
glyphname = one_dot;
layers = (
{
layerId = "7C6EC3B8-53E3-46D5-865A-ED8DFE2E3A2E";
paths = (
{
closed = 1;
nodes = (
"306 605 OFFCURVE",
"324 622 OFFCURVE",
"324 640 CURVE SMOOTH",
"324 659 OFFCURVE",
"306 675 OFFCURVE",
"289 675 CURVE SMOOTH",
"269 675 OFFCURVE",
"254 659 OFFCURVE",
"254 640 CURVE SMOOTH",
"254 622 OFFCURVE",
"269 605 OFFCURVE",
"289 605 CURVE SMOOTH"
);
}
);
width = 600;
},
{
layerId = "EA99615A-DD74-4F65-B9DC-480CDB683AEE";
paths = (
{
closed = 1;
nodes = (
"348 605 OFFCURVE",
"380 636 OFFCURVE",
"380 668 CURVE SMOOTH",
"380 703 OFFCURVE",
"348 731 OFFCURVE",
"317 731 CURVE SMOOTH",
"281 731 OFFCURVE",
"254 703 OFFCURVE",
"254 668 CURVE SMOOTH",
"254 636 OFFCURVE",
"281 605 OFFCURVE",
"317 605 CURVE SMOOTH"
);
}
);
width = 600;
},
{
layerId = "9AB624CD-9C19-4372-9845-4C197A276709";
paths = (
{
closed = 1;
nodes = (
"333 26 OFFCURVE",
"359 50 OFFCURVE",
"359 76 CURVE SMOOTH",
"359 103 OFFCURVE",
"333 125 OFFCURVE",
"310 125 CURVE SMOOTH",
"281 125 OFFCURVE",
"260 103 OFFCURVE",
"260 76 CURVE SMOOTH",
"260 50 OFFCURVE",
"281 26 OFFCURVE",
"310 26 CURVE SMOOTH"
);
}
);
width = 600;
}
);
},
{
glyphname = two_dots_2;
layers = (
{
layerId = "7C6EC3B8-53E3-46D5-865A-ED8DFE2E3A2E";
paths = (
{
closed = 1;
nodes = (
"272 -599 OFFCURVE",
"278 -607 OFFCURVE",
"289 -612 CURVE SMOOTH",
"306 -620 OFFCURVE",
"329 -607 OFFCURVE",
"329 -584 CURVE SMOOTH",
"329 -569 OFFCURVE",
"315 -556 OFFCURVE",
"300 -556 CURVE SMOOTH",
"282 -556 OFFCURVE",
"278 -571 OFFCURVE",
"264 -571 CURVE SMOOTH",
"249 -571 OFFCURVE",
"248 -551 OFFCURVE",
"223 -551 CURVE SMOOTH",
"204 -551 OFFCURVE",
"188 -569 OFFCURVE",
"188 -588 CURVE SMOOTH",
"188 -605 OFFCURVE",
"204 -621 OFFCURVE",
"222 -621 CURVE SMOOTH",
"230 -621 OFFCURVE",
"236 -619 OFFCURVE",
"244 -613 CURVE SMOOTH",
"247 -610 OFFCURVE",
"259 -599 OFFCURVE",
"265 -599 CURVE SMOOTH"
);
}
);
width = 600;
},
{
layerId = "EA99615A-DD74-4F65-B9DC-480CDB683AEE";
width = 600;
},
{
layerId = "9AB624CD-9C19-4372-9845-4C197A276709";
width = 600;
}
);
},
{
glyphname = "decimalseparator-ar";
layers = (
{
layerId = "7C6EC3B8-53E3-46D5-865A-ED8DFE2E3A2E";
paths = (
{
closed = 1;
nodes = (
"118 -103 OFFCURVE",
"175 -48 OFFCURVE",
"175 33 CURVE SMOOTH",
"175 210 OFFCURVE",
"20 171 OFFCURVE",
"20 84 CURVE SMOOTH",
"20 33 OFFCURVE",
"76 0 OFFCURVE",
"158 0 CURVE",
"158 30 LINE",
"93 30 OFFCURVE",
"50 53 OFFCURVE",
"50 84 CURVE SMOOTH",
"50 137 OFFCURVE",
"145 164 OFFCURVE",
"145 33 CURVE SMOOTH",
"145 -32 OFFCURVE",
"102 -73 OFFCURVE",
"35 -73 CURVE",
"35 -103 LINE"
);
}
);
width = 195;
},
{
layerId = "EA99615A-DD74-4F65-B9DC-480CDB683AEE";
paths = (
{
closed = 1;
nodes = (
"177 2 OFFCURVE",
"130 31 OFFCURVE",
"130 71 CURVE SMOOTH",
"130 142 OFFCURVE",
"255 173 OFFCURVE",
"255 20 CURVE SMOOTH",
"255 -52 OFFCURVE",
"205 -101 OFFCURVE",
"130 -101 CURVE",
"130 -191 LINE",
"254 -191 OFFCURVE",
"345 -102 OFFCURVE",
"345 20 CURVE SMOOTH",
"345 314 OFFCURVE",
"40 240 OFFCURVE",
"40 71 CURVE SMOOTH",
"40 -24 OFFCURVE",
"127 -88 OFFCURVE",
"253 -88 CURVE",
"253 2 LINE"
);
}
);
width = 385;
},
{
layerId = "9AB624CD-9C19-4372-9845-4C197A276709";
paths = (
{
closed = 1;
nodes = (
"132 30 OFFCURVE",
"90 53 OFFCURVE",
"90 84 CURVE SMOOTH",
"90 138 OFFCURVE",
"185 163 OFFCURVE",
"185 33 CURVE SMOOTH",
"185 -31 OFFCURVE",
"142 -73 OFFCURVE",
"75 -73 CURVE",
"75 -133 LINE",
"175 -133 OFFCURVE",
"245 -64 OFFCURVE",
"245 33 CURVE SMOOTH",
"245 257 OFFCURVE",
"30 204 OFFCURVE",
"30 84 CURVE SMOOTH",
"30 15 OFFCURVE",
"98 -30 OFFCURVE",
"198 -30 CURVE",
"198 30 LINE"
);
}
);
width = 275;
}
);
rightMetricsKey = "=|";
unicode = 066B;
},
{
glyphname = "thousandseparator-ar";
layers = (
{
layerId = "7C6EC3B8-53E3-46D5-865A-ED8DFE2E3A2E";
paths = (
{
closed = 1;
nodes = (
"0 -130 OFFCURVE",
"28 -143 OFFCURVE",
"44 -125 CURVE",
"79 -82 OFFCURVE",
"109 30 OFFCURVE",
"109 118 CURVE",
"109 148 OFFCURVE",
"79 143 OFFCURVE",
"79 118 CURVE SMOOTH",
"79 37 OFFCURVE",
"51 -69 OFFCURVE",
"20 -107 CURVE SMOOTH"
);
}
);
width = 122;
},
{
layerId = "EA99615A-DD74-4F65-B9DC-480CDB683AEE";
paths = (
{
closed = 1;
nodes = (
"179 -93 OFFCURVE",
"175 52 OFFCURVE",
"176 139 CURVE SMOOTH",
"178 222 OFFCURVE",
"84 209 OFFCURVE",
"86 141 CURVE",
"85 52 OFFCURVE",
"89 -63 OFFCURVE",
"57 -102 CURVE SMOOTH",
"4 -166 OFFCURVE",
"87 -212 OFFCURVE",
"127 -158 CURVE"
);
}
);
width = 216;
},
{
layerId = "9AB624CD-9C19-4372-9845-4C197A276709";
paths = (
{
closed = 1;
nodes = (
"135 -78 OFFCURVE",
"132 52 OFFCURVE",
"132 140 CURVE",
"135 209 OFFCURVE",
"70 204 OFFCURVE",
"72 140 CURVE SMOOTH",
"72 52 OFFCURVE",
"75 -58 OFFCURVE",
"47 -92 CURVE SMOOTH",
"2 -145 OFFCURVE",
"56 -183 OFFCURVE",
"93 -130 CURVE"
);
}
);
width = 162;
}
);
rightMetricsKey = "=|";
unicode = 066C;
},
{
glyphname = "zero-ar";
layers = (
{
layerId = "7C6EC3B8-53E3-46D5-865A-ED8DFE2E3A2E";
paths = (
{
closed = 1;
nodes = (
"319 429 OFFCURVE",
"338 451 OFFCURVE",
"338 499 CURVE SMOOTH",
"338 547 OFFCURVE",
"319 569 OFFCURVE",
"278 569 CURVE SMOOTH",
"236 569 OFFCURVE",
"217 547 OFFCURVE",
"217 499 CURVE SMOOTH",
"217 451 OFFCURVE",
"236 429 OFFCURVE",
"278 429 CURVE SMOOTH"
);
}
);
width = 600;
},
{
layerId = "EA99615A-DD74-4F65-B9DC-480CDB683AEE";
paths = (
{
closed = 1;
nodes = (
"366 350 OFFCURVE",
"406 397 OFFCURVE",
"406 499 CURVE SMOOTH",
"406 601 OFFCURVE",
"366 648 OFFCURVE",
"278 648 CURVE SMOOTH",
"189 648 OFFCURVE",
"149 601 OFFCURVE",
"149 499 CURVE SMOOTH",
"149 397 OFFCURVE",
"189 350 OFFCURVE",
"278 350 CURVE SMOOTH"
);
}
);
width = 600;
},
{
layerId = "9AB624CD-9C19-4372-9845-4C197A276709";
paths = (
{
closed = 1;
nodes = (
"338 397 OFFCURVE",
"365 429 OFFCURVE",
"365 499 CURVE SMOOTH",
"365 569 OFFCURVE",
"338 601 OFFCURVE",
"278 601 CURVE SMOOTH",
"217 601 OFFCURVE",
"190 569 OFFCURVE",
"190 499 CURVE SMOOTH",
"190 429 OFFCURVE",
"217 397 OFFCURVE",
"278 397 CURVE SMOOTH"
);
}
);
width = 600;
}
);
unicode = 0660;
},
{
glyphname = "one-ar";
layers = (
{
layerId = "7C6EC3B8-53E3-46D5-865A-ED8DFE2E3A2E";
paths = (
{
closed = 1;
nodes = (
"97 333 OFFCURVE",
"91 667 OFFCURVE",
"80 1000 CURVE",
"50 1000 LINE",
"61 667 OFFCURVE",
"67 333 OFFCURVE",
"70 0 CURVE",
"100 0 LINE"
);
}
);
width = 159;
},
{
layerId = "EA99615A-DD74-4F65-B9DC-480CDB683AEE";
paths = (
{
closed = 1;
nodes = (
"122 911 OFFCURVE",
"129 531 OFFCURVE",
"138 1 CURVE",
"291 1 LINE",
"280 605 OFFCURVE",
"272 986 OFFCURVE",
"273 1005 CURVE",
"121 1001 LINE"
);
}
);
width = 404;
},
{
layerId = "9AB624CD-9C19-4372-9845-4C197A276709";
paths = (
{
closed = 1;
nodes = (
"111 666 OFFCURVE",
"117 333 OFFCURVE",
"120 0 CURVE",
"180 0 LINE",
"177 333 OFFCURVE",
"171 668 OFFCURVE",
"160 1001 CURVE",
"100 999 LINE"
);
}
);
width = 280;
}
);
unicode = 0661;
},
{
glyphname = "two-ar";
layers = (
{
layerId = "7C6EC3B8-53E3-46D5-865A-ED8DFE2E3A2E";
paths = (
{
closed = 1;
nodes = (
"121 980 OFFCURVE",
"49 950 OFFCURVE",
"49 833 CURVE SMOOTH",
"49 776 OFFCURVE",
"49 706 OFFCURVE",
"49 628 CURVE SMOOTH",
"48 529 OFFCURVE",
"48 419 OFFCURVE",
"48 305 CURVE SMOOTH",
"48 108 OFFCURVE",
"48 47 OFFCURVE",
"49 0 CURVE",
"19 0 LINE",
"18 47 OFFCURVE",
"18 108 OFFCURVE",
"18 305 CURVE SMOOTH",
"18 509 OFFCURVE",
"19 704 OFFCURVE",
"19 833 CURVE SMOOTH",
"19 973 OFFCURVE",
"108 1010 OFFCURVE",
"433 1015 CURVE",
"433 985 LINE"
);
}
);
width = 453;
},
{
layerId = "EA99615A-DD74-4F65-B9DC-480CDB683AEE";
paths = (
{
closed = 1;
nodes = (
"174 1010 OFFCURVE",
"41 948 OFFCURVE",
"41 742 CURVE SMOOTH",
"41 685 OFFCURVE",
"41 615 OFFCURVE",
"41 537 CURVE SMOOTH",
"42 440 OFFCURVE",
"40 328 OFFCURVE",
"40 214 CURVE SMOOTH",
"40 163 OFFCURVE",
"40 8 OFFCURVE",
"41 -2 CURVE",
"193 2 LINE",
"192 11 OFFCURVE",
"192 163 OFFCURVE",
"192 214 CURVE SMOOTH",
"192 418 OFFCURVE",
"193 613 OFFCURVE",
"193 742 CURVE SMOOTH",
"193 833 OFFCURVE",
"246 858 OFFCURVE",
"546 863 CURVE",
"546 1015 LINE"
);
}
);
width = 586;
},
{
layerId = "9AB624CD-9C19-4372-9845-4C197A276709";
paths = (
{
closed = 1;
nodes = (
"143 995 OFFCURVE",
"41 949 OFFCURVE",
"41 788 CURVE SMOOTH",
"41 731 OFFCURVE",
"41 661 OFFCURVE",
"41 583 CURVE SMOOTH",
"41 485 OFFCURVE",
"40 374 OFFCURVE",
"40 260 CURVE SMOOTH",
"40 135 OFFCURVE",
"40 28 OFFCURVE",
"41 -1 CURVE",
"101 1 LINE",
"100 29 OFFCURVE",
"100 135 OFFCURVE",
"100 260 CURVE SMOOTH",
"100 464 OFFCURVE",
"101 659 OFFCURVE",
"101 788 CURVE SMOOTH",
"101 904 OFFCURVE",
"172 935 OFFCURVE",
"485 940 CURVE",
"485 1000 LINE"
);
}
);
width = 525;
}
);
unicode = 0662;
},
{
glyphname = "three-ar";
layers = (
{
layerId = "7C6EC3B8-53E3-46D5-865A-ED8DFE2E3A2E";
paths = (
{
closed = 1;
nodes = (
"867 568 OFFCURVE",
"557 405 OFFCURVE",
"341 565 CURVE",
"323 541 LINE",
"555 369 OFFCURVE",
"903 552 OFFCURVE",
"778 1013 CURVE",
"750 1005 LINE"
);
},
{
closed = 1;
nodes = (
"530 588 OFFCURVE",
"260 466 OFFCURVE",
"71 561 CURVE",
"57 535 LINE",
"260 432 OFFCURVE",
"568 572 OFFCURVE",
"414 1005 CURVE",
"386 995 LINE"
);
},
{
closed = 1;
nodes = (
"79 368 OFFCURVE",
"79 631 OFFCURVE",
"50 1015 CURVE",
"20 1013 LINE",
"49 629 OFFCURVE",
"49 368 OFFCURVE",
"39 6 CURVE",
"69 6 LINE"
);
}
);
width = 824;
},
{
layerId = "EA99615A-DD74-4F65-B9DC-480CDB683AEE";
paths = (
{
closed = 1;
nodes = (
"848 678 OFFCURVE",
"778 519 OFFCURVE",
"646 515 CURVE SMOOTH",
"610 514 OFFCURVE",
"515 509 OFFCURVE",
"460 622 CURVE",
"380 582 LINE",
"461 415 OFFCURVE",
"614 424 OFFCURVE",
"648 425 CURVE SMOOTH",
"842 431 OFFCURVE",
"938 627 OFFCURVE",
"938 1000 CURVE",
"848 1000 LINE"
);
},
{
closed = 1;
nodes = (
"57 774 OFFCURVE",
"65 581 OFFCURVE",
"65 378 CURVE SMOOTH",
"65 264 OFFCURVE",
"63 145 OFFCURVE",
"59 -4 CURVE",
"149 -6 LINE",
"153 142 OFFCURVE",
"155 262 OFFCURVE",
"155 378 CURVE SMOOTH",
"155 582 OFFCURVE",
"147 778 OFFCURVE",
"130 1018 CURVE",
"40 1012 LINE"
);
},
{
closed = 1;
nodes = (
"434 572 OFFCURVE",
"428 518 OFFCURVE",
"92 515 CURVE",
"92 425 LINE",
"510 428 OFFCURVE",
"524 568 OFFCURVE",
"524 1005 CURVE",
"434 1005 LINE"
);
}
);
width = 978;
},
{
layerId = "9AB624CD-9C19-4372-9845-4C197A276709";
paths = (
{
closed = 1;
nodes = (
"113 141 OFFCURVE",
"115 261 OFFCURVE",
"115 378 CURVE SMOOTH",
"115 586 OFFCURVE",
"107 781 OFFCURVE",
"90 1015 CURVE",
"30 1011 LINE",
"47 777 OFFCURVE",
"55 584 OFFCURVE",
"55 378 CURVE SMOOTH",
"55 263 OFFCURVE",
"53 144 OFFCURVE",
"49 7 CURVE",
"109 5 LINE"
);
},
{
closed = 1;
nodes = (
"424 574 OFFCURVE",
"420 533 OFFCURVE",
"97 530 CURVE",
"97 470 LINE",
"474 473 OFFCURVE",
"484 570 OFFCURVE",
"484 1005 CURVE",
"424 1005 LINE"
);
},
{
closed = 1;
nodes = (
"808 690 OFFCURVE",
"742 533 OFFCURVE",
"620 530 CURVE SMOOTH",
"585 529 OFFCURVE",
"499 524 OFFCURVE",
"449 628 CURVE",
"395 602 LINE",
"463 462 OFFCURVE",
"587 469 OFFCURVE",
"622 470 CURVE SMOOTH",
"787 475 OFFCURVE",
"868 656 OFFCURVE",
"868 1000 CURVE",
"808 1000 LINE"
);
}
);
width = 898;
}
);
rightMetricsKey = "=|";
unicode = 0663;
},
{
glyphname = "four-ar";
layers = (
{
layerId = "7C6EC3B8-53E3-46D5-865A-ED8DFE2E3A2E";
paths = (
{
closed = 1;
nodes = (
"179 526 OFFCURVE",
"73 453 OFFCURVE",
"73 274 CURVE SMOOTH",
"73 61 OFFCURVE",
"191 0 OFFCURVE",
"571 0 CURVE",
"571 30 LINE",
"205 30 OFFCURVE",
"103 82 OFFCURVE",
"103 274 CURVE SMOOTH",
"103 434 OFFCURVE",
"193 496 OFFCURVE",
"431 496 CURVE",
"431 526 LINE"
);
},
{
closed = 1;
nodes = (
"181 526 OFFCURVE",
"95 584 OFFCURVE",
"95 753 CURVE SMOOTH",
"95 912 OFFCURVE",
"192 964 OFFCURVE",
"425 967 CURVE",
"427 997 LINE",
"178 995 OFFCURVE",
"65 931 OFFCURVE",
"65 753 CURVE SMOOTH",
"65 565 OFFCURVE",
"165 496 OFFCURVE",
"431 496 CURVE",
"431 526 LINE"
);
}
);
width = 600;
},
{
layerId = "EA99615A-DD74-4F65-B9DC-480CDB683AEE";
paths = (
{
closed = 1;
nodes = (
"232 89 OFFCURVE",
"136 127 OFFCURVE",
"136 257 CURVE SMOOTH",
"136 406 OFFCURVE",
"220 464 OFFCURVE",
"451 464 CURVE",
"451 554 LINE",
"194 554 OFFCURVE",
"130 595 OFFCURVE",
"130 744 CURVE SMOOTH",
"130 879 OFFCURVE",
"200 922 OFFCURVE",
"447 924 CURVE",
"447 1014 LINE",
"154 1012 OFFCURVE",
"40 939 OFFCURVE",
"40 744 CURVE SMOOTH",
"40 619 OFFCURVE",
"79 543 OFFCURVE",
"176 502 CURVE",
"88 455 OFFCURVE",
"46 375 OFFCURVE",
"46 257 CURVE SMOOTH",
"46 54 OFFCURVE",
"192 -1 OFFCURVE",
"653 -1 CURVE",
"653 89 LINE"
);
}
);
width = 693;
},
{
layerId = "9AB624CD-9C19-4372-9845-4C197A276709";
paths = (
{
closed = 1;
nodes = (
"240 60 OFFCURVE",
"98 119 OFFCURVE",
"98 243 CURVE SMOOTH",
"98 402 OFFCURVE",
"188 465 OFFCURVE",
"426 465 CURVE",
"426 525 LINE",
"196 525 OFFCURVE",
"90 590 OFFCURVE",
"90 723 CURVE SMOOTH",
"90 878 OFFCURVE",
"172 935 OFFCURVE",
"412 937 CURVE",
"412 997 LINE",
"143 995 OFFCURVE",
"30 916 OFFCURVE",
"30 723 CURVE SMOOTH",
"30 610 OFFCURVE",
"89 534 OFFCURVE",
"204 495 CURVE",
"90 455 OFFCURVE",
"38 374 OFFCURVE",
"38 243 CURVE SMOOTH",
"38 74 OFFCURVE",
"208 0 OFFCURVE",
"566 0 CURVE",
"566 60 LINE"
);
}
);
width = 596;
}
);
unicode = 0664;
},
{
glyphname = "five-ar";
layers = (
{
layerId = "7C6EC3B8-53E3-46D5-865A-ED8DFE2E3A2E";
paths = (
{
closed = 1;
nodes = (
"839 838 OFFCURVE",
"709 1002 OFFCURVE",
"439 1007 CURVE SMOOTH",
"156 1012 OFFCURVE",
"20 848 OFFCURVE",
"20 503 CURVE SMOOTH",
"20 162 OFFCURVE",
"154 0 OFFCURVE",
"437 0 CURVE SMOOTH",
"716 0 OFFCURVE",
"839 156 OFFCURVE",
"839 503 CURVE SMOOTH"
);
},
{
closed = 1;
nodes = (
"809 171 OFFCURVE",
"697 30 OFFCURVE",
"437 30 CURVE SMOOTH",
"172 30 OFFCURVE",
"50 178 OFFCURVE",
"50 503 CURVE SMOOTH",
"50 833 OFFCURVE",
"173 982 OFFCURVE",
"439 977 CURVE SMOOTH",
"691 972 OFFCURVE",
"809 822 OFFCURVE",
"809 503 CURVE SMOOTH"
);
}
);
width = 859;
},
{
layerId = "EA99615A-DD74-4F65-B9DC-480CDB683AEE";
paths = (
{
closed = 1;
nodes = (
"774 202 OFFCURVE",
"687 90 OFFCURVE",
"460 90 CURVE SMOOTH",
"226 90 OFFCURVE",
"130 210 OFFCURVE",
"130 510 CURVE SMOOTH",
"130 816 OFFCURVE",
"227 935 OFFCURVE",
"460 931 CURVE SMOOTH",
"680 927 OFFCURVE",
"774 804 OFFCURVE",
"774 510 CURVE SMOOTH"
);
},
{
closed = 1;
nodes = (
"864 850 OFFCURVE",
"736 1015 OFFCURVE",
"462 1021 CURVE SMOOTH",
"173 1027 OFFCURVE",
"40 863 OFFCURVE",
"40 510 CURVE SMOOTH",
"40 162 OFFCURVE",
"172 0 OFFCURVE",
"460 0 CURVE SMOOTH",
"743 0 OFFCURVE",
"864 156 OFFCURVE",
"864 510 CURVE SMOOTH"
);
}
);
width = 904;
},
{
layerId = "9AB624CD-9C19-4372-9845-4C197A276709";
paths = (
{
closed = 1;
nodes = (
"789 187 OFFCURVE",
"689 60 OFFCURVE",
"447 60 CURVE SMOOTH",
"199 60 OFFCURVE",
"90 195 OFFCURVE",
"90 503 CURVE SMOOTH",
"90 817 OFFCURVE",
"200 952 OFFCURVE",
"448 947 CURVE SMOOTH",
"683 942 OFFCURVE",
"789 806 OFFCURVE",
"789 503 CURVE SMOOTH"
);
},
{
closed = 1;
nodes = (
"849 837 OFFCURVE",
"720 1002 OFFCURVE",
"450 1007 CURVE SMOOTH",
"165 1012 OFFCURVE",
"30 849 OFFCURVE",
"30 503 CURVE SMOOTH",
"30 162 OFFCURVE",
"164 0 OFFCURVE",
"447 0 CURVE SMOOTH",
"725 0 OFFCURVE",
"849 156 OFFCURVE",
"849 503 CURVE SMOOTH"
);
}
);
width = 879;
}
);
rightMetricsKey = "=|";
unicode = 0665;
},
{
glyphname = "six-ar";
layers = (
{
layerId = "7C6EC3B8-53E3-46D5-865A-ED8DFE2E3A2E";
paths = (
{
closed = 1;
nodes = (
"511 57 OFFCURVE",
"511 78 OFFCURVE",
"511 275 CURVE SMOOTH",
"511 378 OFFCURVE",
"511 452 OFFCURVE",
"510 524 CURVE",
"510 595 OFFCURVE",
"510 666 OFFCURVE",
"510 762 CURVE SMOOTH",
"510 932 OFFCURVE",
"379 994 OFFCURVE",
"20 1000 CURVE",
"20 970 LINE",
"363 965 OFFCURVE",
"480 911 OFFCURVE",
"480 762 CURVE SMOOTH",
"480 567 OFFCURVE",
"481 479 OFFCURVE",
"481 275 CURVE SMOOTH",
"481 78 OFFCURVE",
"481 57 OFFCURVE",
"480 10 CURVE",
"510 10 LINE"
);
}
);
width = 531;
},
{
layerId = "EA99615A-DD74-4F65-B9DC-480CDB683AEE";
paths = (
{
closed = 1;
nodes = (
"531 39 OFFCURVE",
"531 60 OFFCURVE",
"531 275 CURVE SMOOTH",
"531 378 OFFCURVE",
"531 452 OFFCURVE",
"530 524 CURVE",
"530 595 OFFCURVE",
"530 666 OFFCURVE",
"530 762 CURVE SMOOTH",
"530 936 OFFCURVE",
"395 996 OFFCURVE",
"40 1000 CURVE",
"40 909 LINE",
"351 904 OFFCURVE",
"439 866 OFFCURVE",
"439 762 CURVE SMOOTH",
"439 567 OFFCURVE",
"440 479 OFFCURVE",
"440 275 CURVE SMOOTH",
"440 60 OFFCURVE",
"440 39 OFFCURVE",
"439 -6 CURVE",
"530 -10 LINE"
);
}
);
width = 571;
},
{
layerId = "9AB624CD-9C19-4372-9845-4C197A276709";
paths = (
{
closed = 1;
nodes = (
"521 48 OFFCURVE",
"521 69 OFFCURVE",
"521 275 CURVE SMOOTH",
"521 378 OFFCURVE",
"521 452 OFFCURVE",
"520 524 CURVE",
"520 595 OFFCURVE",
"520 666 OFFCURVE",
"520 762 CURVE SMOOTH",
"520 934 OFFCURVE",
"387 995 OFFCURVE",
"30 1000 CURVE",
"30 940 LINE",
"357 935 OFFCURVE",
"460 889 OFFCURVE",
"460 762 CURVE SMOOTH",
"460 567 OFFCURVE",
"461 479 OFFCURVE",
"461 275 CURVE SMOOTH",
"461 69 OFFCURVE",
"461 48 OFFCURVE",
"460 2 CURVE",
"520 0 LINE"
);
}
);
width = 551;
}
);
rightMetricsKey = "=|";
unicode = 0666;
},
{
glyphname = "seven-ar";
layers = (
{
layerId = "7C6EC3B8-53E3-46D5-865A-ED8DFE2E3A2E";
paths = (
{
closed = 1;
nodes = (
"20 375 OFFCURVE",
"137 1 OFFCURVE",
"343 0 CURVE SMOOTH",
"539 -1 OFFCURVE",
"651 374 OFFCURVE",
"651 1015 CURVE",
"621 1015 LINE",
"621 398 OFFCURVE",
"514 29 OFFCURVE",
"343 30 CURVE SMOOTH",
"161 31 OFFCURVE",
"50 398 OFFCURVE",
"50 1015 CURVE",
"20 1015 LINE"
);
}
);
width = 671;
},
{
layerId = "EA99615A-DD74-4F65-B9DC-480CDB683AEE";
paths = (
{
closed = 1;
nodes = (
"40 381 OFFCURVE",
"155 1 OFFCURVE",
"363 0 CURVE SMOOTH",
"561 -1 OFFCURVE",
"671 384 OFFCURVE",
"671 1015 CURVE",
"580 1015 LINE",
"580 461 OFFCURVE",
"486 90 OFFCURVE",
"363 91 CURVE SMOOTH",
"232 92 OFFCURVE",
"131 453 OFFCURVE",
"131 1015 CURVE",
"40 1015 LINE"
);
}
);
width = 711;
},
{
layerId = "9AB624CD-9C19-4372-9845-4C197A276709";
paths = (
{
closed = 1;
nodes = (
"30 378 OFFCURVE",
"146 1 OFFCURVE",
"353 0 CURVE SMOOTH",
"550 -1 OFFCURVE",
"661 379 OFFCURVE",
"661 1015 CURVE",
"601 1015 LINE",
"601 429 OFFCURVE",
"500 59 OFFCURVE",
"353 60 CURVE SMOOTH",
"196 61 OFFCURVE",
"90 425 OFFCURVE",
"90 1015 CURVE",
"30 1015 LINE"
);
}
);
width = 691;
}
);
rightMetricsKey = "=|";
unicode = 0667;
},
{
glyphname = "nine-ar";
layers = (
{
layerId = "7C6EC3B8-53E3-46D5-865A-ED8DFE2E3A2E";
paths = (
{
closed = 1;
nodes = (
"570 759 LINE",
"540 759 LINE",
"540 13 LINE",
"570 13 LINE"
);
},
{
closed = 1;
nodes = (
"506 481 OFFCURVE",
"570 547 OFFCURVE",
"570 759 CURVE SMOOTH",
"570 969 OFFCURVE",
"510 1029 OFFCURVE",
"300 1029 CURVE SMOOTH",
"90 1029 OFFCURVE",
"29 968 OFFCURVE",
"29 759 CURVE SMOOTH",
"29 547 OFFCURVE",
"94 481 OFFCURVE",
"300 481 CURVE SMOOTH"
);
},
{
closed = 1;
nodes = (
"111 511 OFFCURVE",
"59 564 OFFCURVE",
"59 759 CURVE SMOOTH",
"59 951 OFFCURVE",
"107 999 OFFCURVE",
"300 999 CURVE SMOOTH",
"492 999 OFFCURVE",
"540 951 OFFCURVE",
"540 759 CURVE SMOOTH",
"540 564 OFFCURVE",
"489 511 OFFCURVE",
"300 511 CURVE SMOOTH"
);
}
);
width = 599;
},
{
layerId = "EA99615A-DD74-4F65-B9DC-480CDB683AEE";
paths = (
{
closed = 1;
nodes = (
"525 748 LINE",
"435 748 LINE",
"435 -1 LINE",
"525 -1 LINE"
);
},
{
closed = 1;
nodes = (
"148 600 OFFCURVE",
"130 617 OFFCURVE",
"130 759 CURVE SMOOTH",
"130 897 OFFCURVE",
"142 911 OFFCURVE",
"283 911 CURVE SMOOTH",
"422 911 OFFCURVE",
"435 898 OFFCURVE",
"435 759 CURVE SMOOTH",
"435 616 OFFCURVE",
"418 600 OFFCURVE",
"283 600 CURVE SMOOTH"
);
},
{
closed = 1;
nodes = (
"471 510 OFFCURVE",
"525 566 OFFCURVE",
"525 759 CURVE SMOOTH",
"525 950 OFFCURVE",
"474 1001 OFFCURVE",
"283 1001 CURVE SMOOTH",
"91 1001 OFFCURVE",
"40 949 OFFCURVE",
"40 759 CURVE SMOOTH",
"40 567 OFFCURVE",
"94 510 OFFCURVE",
"283 510 CURVE SMOOTH"
);
}
);
width = 565;
},
{
layerId = "9AB624CD-9C19-4372-9845-4C197A276709";
paths = (
{
closed = 1;
nodes = (
"526 756 LINE",
"466 756 LINE",
"466 -3 LINE",
"526 -3 LINE"
);
},
{
closed = 1;
nodes = (
"124 558 OFFCURVE",
"90 593 OFFCURVE",
"90 753 CURVE SMOOTH",
"90 909 OFFCURVE",
"120 940 OFFCURVE",
"279 940 CURVE SMOOTH",
"436 940 OFFCURVE",
"466 910 OFFCURVE",
"466 753 CURVE SMOOTH",
"466 592 OFFCURVE",
"432 558 OFFCURVE",
"279 558 CURVE SMOOTH"
);
},
{
closed = 1;
nodes = (
"467 498 OFFCURVE",
"526 559 OFFCURVE",
"526 753 CURVE SMOOTH",
"526 944 OFFCURVE",
"470 1000 OFFCURVE",
"279 1000 CURVE SMOOTH",
"87 1000 OFFCURVE",
"30 944 OFFCURVE",
"30 753 CURVE SMOOTH",
"30 559 OFFCURVE",
"90 498 OFFCURVE",
"279 498 CURVE SMOOTH"
);
}
);
width = 556;
}
);
rightMetricsKey = "=|";
unicode = 0669;
},
{
glyphname = period;
layers = (
{
layerId = "7C6EC3B8-53E3-46D5-865A-ED8DFE2E3A2E";
paths = (
{
closed = 1;
nodes = (
"79 -1 OFFCURVE",
"93 16 OFFCURVE",
"93 37 CURVE SMOOTH",
"93 58 OFFCURVE",
"79 75 OFFCURVE",
"57 75 CURVE SMOOTH",
"34 75 OFFCURVE",
"20 58 OFFCURVE",
"20 37 CURVE SMOOTH",
"20 16 OFFCURVE",
"34 -1 OFFCURVE",
"57 -1 CURVE SMOOTH"
);
}
);
width = 113;
},
{
layerId = "EA99615A-DD74-4F65-B9DC-480CDB683AEE";
paths = (
{
closed = 1;
nodes = (
"178 -1 OFFCURVE",
"210 39 OFFCURVE",
"210 87 CURVE SMOOTH",
"210 137 OFFCURVE",
"178 176 OFFCURVE",
"126 176 CURVE SMOOTH",
"72 176 OFFCURVE",
"40 137 OFFCURVE",
"40 87 CURVE SMOOTH",
"40 39 OFFCURVE",
"72 -1 OFFCURVE",
"126 -1 CURVE SMOOTH"
);
}
);
width = 250;
},
{
layerId = "9AB624CD-9C19-4372-9845-4C197A276709";
paths = (
{
closed = 1;
nodes = (
"124 -1 OFFCURVE",
"146 26 OFFCURVE",
"146 59 CURVE SMOOTH",
"146 93 OFFCURVE",
"124 120 OFFCURVE",
"89 120 CURVE SMOOTH",
"52 120 OFFCURVE",
"30 93 OFFCURVE",
"30 59 CURVE SMOOTH",
"30 26 OFFCURVE",
"52 -1 OFFCURVE",
"89 -1 CURVE SMOOTH"
);
}
);
width = 176;
}
);
unicode = 002E;
},
{
glyphname = comma;
layers = (
{
layerId = "7C6EC3B8-53E3-46D5-865A-ED8DFE2E3A2E";
paths = (
{
closed = 1;
nodes = (
"100 -20 OFFCURVE",
"127 18 OFFCURVE",
"127 48 CURVE SMOOTH",
"127 126 OFFCURVE",
"20 125 OFFCURVE",
"20 56 CURVE SMOOTH",
"20 17 OFFCURVE",
"53 -4 OFFCURVE",
"104 1 CURVE",
"102 31 LINE",
"68 28 OFFCURVE",
"50 37 OFFCURVE",
"50 56 CURVE SMOOTH",
"50 87 OFFCURVE",
"97 86 OFFCURVE",
"97 48 CURVE SMOOTH",
"97 28 OFFCURVE",
"75 -1 OFFCURVE",
"41 -25 CURVE",
"59 -49 LINE"
);
}
);
width = 147;
},
{
layerId = "EA99615A-DD74-4F65-B9DC-480CDB683AEE";
paths = (
{
closed = 1;
nodes = (
"159 18 OFFCURVE",
"130 33 OFFCURVE",
"130 60 CURVE SMOOTH",
"130 95 OFFCURVE",
"192 104 OFFCURVE",
"193 60 CURVE",
"190 -25 OFFCURVE",
"141 -78 OFFCURVE",
"65 -78 CURVE",
"65 -168 LINE",
"191 -168 OFFCURVE",
"280 -75 OFFCURVE",
"283 60 CURVE",
"282 227 OFFCURVE",
"40 210 OFFCURVE",
"40 60 CURVE SMOOTH",
"40 -30 OFFCURVE",
"121 -78 OFFCURVE",
"228 -63 CURVE",
"214 27 LINE"
);
}
);
width = 323;
},
{
layerId = "9AB624CD-9C19-4372-9845-4C197A276709";
paths = (
{
closed = 1;
nodes = (
"97 57 OFFCURVE",
"90 63 OFFCURVE",
"90 78 CURVE SMOOTH",
"90 102 OFFCURVE",
"122 96 OFFCURVE",
"123 71 CURVE",
"121 29 OFFCURVE",
"91 -6 OFFCURVE",
"51 -9 CURVE",
"57 -69 LINE",
"127 -63 OFFCURVE",
"181 -2 OFFCURVE",
"183 71 CURVE",
"182 179 OFFCURVE",
"30 177 OFFCURVE",
"30 78 CURVE SMOOTH",
"30 21 OFFCURVE",
"72 -6 OFFCURVE",
"136 1 CURVE",
"130 61 LINE"
);
}
);
width = 213;
}
);
unicode = 002C;
},
{
glyphname = exclam;
layers = (
{
components = (
{
name = "dotcenter-ar";
transform = "{1, 0, 0, 1, -220, 0}";
}
);
layerId = "7C6EC3B8-53E3-46D5-865A-ED8DFE2E3A2E";
paths = (
{
closed = 1;
nodes = (
"96 374 OFFCURVE",
"96 747 OFFCURVE",
"94 981 CURVE",
"64 981 LINE",
"66 747 OFFCURVE",
"66 374 OFFCURVE",
"64 140 CURVE",
"94 140 LINE"
);
}
);
width = 600;
},
{
components = (
{
name = "dotcenter-ar";
transform = "{1, 0, 0, 1, -220, 0}";
}
);
layerId = "9AB624CD-9C19-4372-9845-4C197A276709";
paths = (
{
closed = 1;
nodes = (
"121 454 OFFCURVE",
"121 767 OFFCURVE",
"119 1001 CURVE",
"59 1001 LINE",
"61 767 OFFCURVE",
"61 454 OFFCURVE",
"59 220 CURVE",
"119 220 LINE"
);
}
);
width = 179;
},
{
components = (
{
name = "dotcenter-ar";
transform = "{1, 0, 0, 1, -227, 0}";
}
);
layerId = "EA99615A-DD74-4F65-B9DC-480CDB683AEE";
paths = (
{
closed = 1;
nodes = (
"145 472 OFFCURVE",
"145 766 OFFCURVE",
"143 999 CURVE",
"53 999 LINE",
"55 765 OFFCURVE",
"55 472 OFFCURVE",
"53 238 CURVE",
"143 238 LINE"
);
}
);
width = 206;
}
);
unicode = 0021;
},
{
glyphname = exclamdown;
layers = (
{
components = (
{
name = "dotcenter-ar";
transform = "{1, 0, 0, 1, -15, 453}";
}
);
layerId = "7C6EC3B8-53E3-46D5-865A-ED8DFE2E3A2E";
paths = (
{
closed = 1;
nodes = (
"301 -83 OFFCURVE",
"301 154 OFFCURVE",
"299 331 CURVE",
"269 331 LINE",
"271 154 OFFCURVE",
"271 -83 OFFCURVE",
"269 -260 CURVE",
"299 -260 LINE"
);
}
);
width = 600;
},
{
components = (
{
name = "dotcenter-ar";
transform = "{1, 0, 0, 1, -15, 453}";
}
);
layerId = "9AB624CD-9C19-4372-9845-4C197A276709";
paths = (
{
closed = 1;
nodes = (
"326 -93 OFFCURVE",
"326 144 OFFCURVE",
"324 321 CURVE",
"264 321 LINE",
"266 144 OFFCURVE",
"266 -93 OFFCURVE",
"264 -270 CURVE",
"324 -270 LINE"
);
}
);
width = 600;
},
{
components = (
{
name = "dotcenter-ar";
transform = "{1, 0, 0, 1, -33, 435}";
}
);
layerId = "EA99615A-DD74-4F65-B9DC-480CDB683AEE";
paths = (
{
closed = 1;
nodes = (
"349 -160 OFFCURVE",
"349 76 OFFCURVE",
"347 253 CURVE",
"257 253 LINE",
"259 76 OFFCURVE",
"259 -161 OFFCURVE",
"257 -338 CURVE",
"347 -338 LINE"
);
}
);
width = 600;
}
);
unicode = 00A1;
},
{
glyphname = question;
layers = (
{
components = (
{
name = "dotcenter-ar";
transform = "{1, 0, 0, 1, -162, 0}";
}
);
layerId = "7C6EC3B8-53E3-46D5-865A-ED8DFE2E3A2E";
paths = (
{
closed = 1;
nodes = (
"100 390 OFFCURVE",
"154 465 OFFCURVE",
"330 467 CURVE SMOOTH",
"489 469 OFFCURVE",
"615 582 OFFCURVE",
"615 723 CURVE SMOOTH",
"615 875 OFFCURVE",
"493 1000 OFFCURVE",
"345 1000 CURVE SMOOTH",
"173 1000 OFFCURVE",
"46 876 OFFCURVE",
"46 708 CURVE",
"76 708 LINE",
"76 859 OFFCURVE",
"190 970 OFFCURVE",
"345 970 CURVE SMOOTH",
"476 970 OFFCURVE",
"585 858 OFFCURVE",
"585 723 CURVE SMOOTH",
"585 598 OFFCURVE",
"473 499 OFFCURVE",
"330 497 CURVE SMOOTH",
"134 494 OFFCURVE",
"68 404 OFFCURVE",
"91 171 CURVE",
"121 173 LINE"
);
}
);
width = 600;
},
{
components = (
{
name = "dotcenter-ar";
transform = "{1, 0, 0, 1, -126, 0}";
}
);
layerId = "9AB624CD-9C19-4372-9845-4C197A276709";
paths = (
{
closed = 1;
nodes = (
"90 833 OFFCURVE",
"200 940 OFFCURVE",
"349 940 CURVE SMOOTH",
"476 940 OFFCURVE",
"581 832 OFFCURVE",
"581 701 CURVE SMOOTH",
"581 580 OFFCURVE",
"473 484 OFFCURVE",
"335 482 CURVE SMOOTH",
"165 480 OFFCURVE",
"111 404 OFFCURVE",
"131 200 CURVE",
"191 206 LINE",
"174 377 OFFCURVE",
"205 420 OFFCURVE",
"335 422 CURVE SMOOTH",
"506 425 OFFCURVE",
"641 547 OFFCURVE",
"641 701 CURVE SMOOTH",
"641 865 OFFCURVE",
"510 1000 OFFCURVE",
"349 1000 CURVE SMOOTH",
"167 1000 OFFCURVE",
"30 866 OFFCURVE",
"30 688 CURVE",
"90 688 LINE"
);
}
);
width = 671;
},
{
components = (
{
name = "dotcenter-ar";
transform = "{1, 0, 0, 1, -13, 0}";
}
);
layerId = "EA99615A-DD74-4F65-B9DC-480CDB683AEE";
paths = (
{
closed = 1;
nodes = (
"250 411 OFFCURVE",
"286 473 OFFCURVE",
"438 475 CURVE SMOOTH",
"592 477 OFFCURVE",
"714 586 OFFCURVE",
"714 724 CURVE SMOOTH",
"714 872 OFFCURVE",
"596 993 OFFCURVE",
"452 993 CURVE SMOOTH",
"286 993 OFFCURVE",
"163 873 OFFCURVE",
"163 711 CURVE",
"253 711 LINE",
"253 823 OFFCURVE",
"335 903 OFFCURVE",
"452 903 CURVE SMOOTH",
"546 903 OFFCURVE",
"624 822 OFFCURVE",
"624 724 CURVE SMOOTH",
"624 637 OFFCURVE",
"542 567 OFFCURVE",
"436 565 CURVE SMOOTH",
"218 563 OFFCURVE",
"148 439 OFFCURVE",
"221 200 CURVE",
"307 226 LINE"
);
}
);
width = 827;
}
);
unicode = 003F;
},
{
glyphname = numbersign;
layers = (
{
layerId = "7C6EC3B8-53E3-46D5-865A-ED8DFE2E3A2E";
paths = (
{
closed = 1;
nodes = (
"484 469 OFFCURVE",
"486 468 OFFCURVE",
"820 474 CURVE",
"820 504 LINE",
"514 498 OFFCURVE",
"516 499 OFFCURVE",
"98 503 CURVE",
"98 473 LINE"
);
},
{
closed = 1;
nodes = (
"391 166 OFFCURVE",
"387 167 OFFCURVE",
"0 171 CURVE",
"0 141 LINE",
"385 137 OFFCURVE",
"389 136 OFFCURVE",
"724 142 CURVE",
"724 172 LINE"
);
},
{
closed = 1;
nodes = (
"207 288 OFFCURVE",
"228 362 OFFCURVE",
"301 668 CURVE",
"271 674 LINE",
"198 370 OFFCURVE",
"179 296 OFFCURVE",
"92 -21 CURVE",
"120 -29 LINE"
);
},
{
closed = 1;
nodes = (
"600 356 OFFCURVE",
"581 280 OFFCURVE",
"494 -37 CURVE",
"522 -45 LINE",
"609 272 OFFCURVE",
"630 348 OFFCURVE",
"703 654 CURVE",
"673 660 LINE"
);
}
);
width = 840;
},
{
layerId = "9AB624CD-9C19-4372-9845-4C197A276709";
paths = (
{
closed = 1;
nodes = (
"271 296 OFFCURVE",
"291 372 OFFCURVE",
"364 677 CURVE",
"306 691 LINE",
"233 386 OFFCURVE",
"213 312 OFFCURVE",
"126 -5 CURVE",
"184 -21 LINE"
);
},
{
closed = 1;
nodes = (
"615 296 OFFCURVE",
"635 372 OFFCURVE",
"708 677 CURVE",
"650 691 LINE",
"577 386 OFFCURVE",
"557 312 OFFCURVE",
"470 -5 CURVE",
"528 -21 LINE"
);
},
{
closed = 1;
nodes = (
"520 495 OFFCURVE",
"520 496 OFFCURVE",
"118 500 CURVE",
"118 440 LINE",
"504 436 OFFCURVE",
"508 435 OFFCURVE",
"842 441 CURVE",
"840 501 LINE"
);
},
{
closed = 1;
nodes = (
"402 211 OFFCURVE",
"402 212 OFFCURVE",
"0 216 CURVE",
"0 156 LINE",
"386 152 OFFCURVE",
"390 151 OFFCURVE",
"724 157 CURVE",
"722 217 LINE"
);
}
);
width = 882;
},
{
layerId = "EA99615A-DD74-4F65-B9DC-480CDB683AEE";
paths = (
{
closed = 1;
nodes = (
"335 353 OFFCURVE",
"336 355 OFFCURVE",
"413 672 CURVE",
"325 694 LINE",
"252 389 OFFCURVE",
"232 314 OFFCURVE",
"145 -3 CURVE",
"231 -27 LINE"
);
},
{
closed = 1;
nodes = (
"679 353 OFFCURVE",
"680 355 OFFCURVE",
"757 672 CURVE",
"669 694 LINE",
"596 389 OFFCURVE",
"576 314 OFFCURVE",
"489 -3 CURVE",
"575 -27 LINE"
);
},
{
closed = 1;
nodes = (
"512 414 OFFCURVE",
"514 413 OFFCURVE",
"841 419 CURVE",
"839 510 LINE",
"526 503 OFFCURVE",
"448 503 OFFCURVE",
"120 507 CURVE",
"118 418 LINE"
);
},
{
closed = 1;
nodes = (
"434 142 OFFCURVE",
"436 141 OFFCURVE",
"763 147 CURVE",
"761 238 LINE",
"448 231 OFFCURVE",
"370 231 OFFCURVE",
"42 235 CURVE",
"40 146 LINE"
);
}
);
width = 881;
}
);
unicode = 0023;
},
{
glyphname = slash;
layers = (
{
layerId = "7C6EC3B8-53E3-46D5-865A-ED8DFE2E3A2E";
paths = (
{
closed = 1;
nodes = (
"134 181 OFFCURVE",
"214 445 OFFCURVE",
"289 723 CURVE",
"261 731 LINE",
"187 460 OFFCURVE",
"108 197 OFFCURVE",
"20 -65 CURVE",
"48 -75 LINE"
);
}
);
width = 309;
},
{
layerId = "9AB624CD-9C19-4372-9845-4C197A276709";
paths = (
{
closed = 1;
nodes = (
"174 169 OFFCURVE",
"254 434 OFFCURVE",
"329 711 CURVE",
"271 727 LINE",
"196 449 OFFCURVE",
"116 186 OFFCURVE",
"30 -70 CURVE",
"86 -90 LINE"
);
}
);
width = 359;
},
{
layerId = "EA99615A-DD74-4F65-B9DC-480CDB683AEE";
paths = (
{
closed = 1;
nodes = (
"213 150 OFFCURVE",
"293 417 OFFCURVE",
"368 695 CURVE",
"282 719 LINE",
"207 441 OFFCURVE",
"127 177 OFFCURVE",
"40 -80 CURVE",
"126 -108 LINE"
);
}
);
width = 408;
}
);
unicode = 002F;
},
{
glyphname = backslash;
layers = (
{
layerId = "7C6EC3B8-53E3-46D5-865A-ED8DFE2E3A2E";
paths = (
{
closed = 1;
nodes = (
"283 129 OFFCURVE",
"162 380 OFFCURVE",
"48 640 CURVE",
"20 628 LINE",
"128 382 OFFCURVE",
"249 131 OFFCURVE",
"386 -134 CURVE",
"412 -120 LINE"
);
},
);
width = 432;
},
{
layerId = "9AB624CD-9C19-4372-9845-4C197A276709";
paths = (
{
closed = 1;
nodes = (
"320 148 OFFCURVE",
"199 400 OFFCURVE",
"84 658 CURVE",
"30 634 LINE",
"144 374 OFFCURVE",
"266 122 OFFCURVE",
"395 -127 CURVE",
"449 -99 LINE"
);
},
);
width = 479;
},
{
layerId = "EA99615A-DD74-4F65-B9DC-480CDB683AEE";
paths = (
{
closed = 1;
nodes = (
"361 165 OFFCURVE",
"241 416 OFFCURVE",
"122 682 CURVE",
"40 646 LINE",
"159 377 OFFCURVE",
"281 125 OFFCURVE",
"405 -113 CURVE",
"485 -71 LINE"
);
}
);
width = 525;
}
);
unicode = 005C;
},
{
glyphname = parenleft;
layers = (
{
layerId = "7C6EC3B8-53E3-46D5-865A-ED8DFE2E3A2E";
paths = (
{
closed = 1;
nodes = (
"29 105 OFFCURVE",
"29 444 OFFCURVE",
"154 743 CURVE",
"126 755 LINE",
"-2 448 OFFCURVE",
"-2 98 OFFCURVE",
"127 -134 CURVE",
"153 -120 LINE"
);
}
);
width = 184;
},
{
layerId = "9AB624CD-9C19-4372-9845-4C197A276709";
paths = (
{
closed = 1;
nodes = (
"69 104 OFFCURVE",
"69 444 OFFCURVE",
"194 743 CURVE",
"138 767 LINE",
"7 451 OFFCURVE",
"8 91 OFFCURVE",
"141 -149 CURVE",
"193 -119 LINE"
);
}
);
width = 234;
},
{
layerId = "EA99615A-DD74-4F65-B9DC-480CDB683AEE";
paths = (
{
closed = 1;
nodes = (
"109 101 OFFCURVE",
"108 446 OFFCURVE",
"235 750 CURVE",
"151 784 LINE",
"15 456 OFFCURVE",
"17 81 OFFCURVE",
"157 -171 CURVE",
"235 -127 LINE"
);
}
);
width = 285;
}
);
unicode = 0028;
},
{
glyphname = braceleft;
layers = (
{
layerId = "7C6EC3B8-53E3-46D5-865A-ED8DFE2E3A2E";
paths = (
{
closed = 1;
nodes = (
"69 278 OFFCURVE",
"123 274 OFFCURVE",
"142 341 CURVE SMOOTH",
"153 379 OFFCURVE",
"132 436 OFFCURVE",
"110 495 CURVE SMOOTH",
"62 622 OFFCURVE",
"18 791 OFFCURVE",
"140 791 CURVE",
"140 821 LINE",
"-2 821 OFFCURVE",
"17 653 OFFCURVE",
"76 498 CURVE SMOOTH",
"100 434 OFFCURVE",
"123 380 OFFCURVE",
"114 349 CURVE SMOOTH",
"101 306 OFFCURVE",
"69 308 OFFCURVE",
"39 307 CURVE",
"39 277 LINE"
);
},
{
closed = 1;
nodes = (
"59 -266 OFFCURVE",
"87 -128 OFFCURVE",
"123 40 CURVE SMOOTH",
"140 117 OFFCURVE",
"157 191 OFFCURVE",
"143 235 CURVE SMOOTH",
"122 302 OFFCURVE",
"70 298 OFFCURVE",
"40 299 CURVE",
"40 269 LINE",
"70 268 OFFCURVE",
"101 270 OFFCURVE",
"115 227 CURVE SMOOTH",
"127 189 OFFCURVE",
"112 123 OFFCURVE",
"95 49 CURVE SMOOTH",
"53 -138 OFFCURVE",
"28 -300 OFFCURVE",
"182 -283 CURVE",
"178 -253 LINE"
);
}
);
width = 212;
},
{
layerId = "9AB624CD-9C19-4372-9845-4C197A276709";
paths = (
{
closed = 1;
nodes = (
"105 279 OFFCURVE",
"158 311 OFFCURVE",
"171 357 CURVE SMOOTH",
"191 427 OFFCURVE",
"163 483 OFFCURVE",
"136 548 CURVE SMOOTH",
"72 698 OFFCURVE",
"109 791 OFFCURVE",
"229 791 CURVE",
"229 851 LINE",
"62 851 OFFCURVE",
"0 714 OFFCURVE",
"80 524 CURVE SMOOTH",
"109 457 OFFCURVE",
"127 421 OFFCURVE",
"113 373 CURVE SMOOTH",
"108 355 OFFCURVE",
"76 338 OFFCURVE",
"40 337 CURVE",
"42 277 LINE"
);
},
{
closed = 1;
nodes = (
"74 276 OFFCURVE",
"104 278 OFFCURVE",
"117 234 CURVE SMOOTH",
"128 198 OFFCURVE",
"114 132 OFFCURVE",
"97 54 CURVE SMOOTH",
"60 -115 OFFCURVE",
"37 -275 OFFCURVE",
"230 -275 CURVE",
"230 -215 LINE",
"125 -215 OFFCURVE",
"112 -164 OFFCURVE",
"155 42 CURVE SMOOTH",
"171 118 OFFCURVE",
"191 200 OFFCURVE",
"175 252 CURVE SMOOTH",
"147 342 OFFCURVE",
"72 336 OFFCURVE",
"44 337 CURVE",
"42 277 LINE"
);
}
);
width = 270;
},
{
layerId = "EA99615A-DD74-4F65-B9DC-480CDB683AEE";
paths = (
{
closed = 1;
nodes = (
"164 -190 OFFCURVE",
"90 -87 OFFCURVE",
"156 77 CURVE SMOOTH",
"236 277 OFFCURVE",
"228 359 OFFCURVE",
"60 362 CURVE",
"58 272 LINE",
"141 271 OFFCURVE",
"133 261 OFFCURVE",
"72 111 CURVE SMOOTH",
"-18 -114 OFFCURVE",
"100 -280 OFFCURVE",
"353 -280 CURVE",
"353 -190 LINE"
);
},
{
closed = 1;
nodes = (
"226 275 OFFCURVE",
"234 357 OFFCURVE",
"154 557 CURVE SMOOTH",
"88 721 OFFCURVE",
"162 824 OFFCURVE",
"351 824 CURVE",
"351 914 LINE",
"98 914 OFFCURVE",
"-20 748 OFFCURVE",
"70 523 CURVE SMOOTH",
"130 373 OFFCURVE",
"139 363 OFFCURVE",
"56 362 CURVE",
"58 272 LINE"
);
}
);
width = 393;
}
);
unicode = 007B;
},
{
glyphname = bracketleft;
layers = (
{
layerId = "7C6EC3B8-53E3-46D5-865A-ED8DFE2E3A2E";
paths = (
{
closed = 1;
nodes = (
"70 -107 LINE SMOOTH",
"68 -107 OFFCURVE",
"70 -109 OFFCURVE",
"70 -107 CURVE SMOOTH",
"70 668 LINE SMOOTH",
"70 670 OFFCURVE",
"68 668 OFFCURVE",
"70 668 CURVE SMOOTH",
"180 668 LINE",
"180 698 LINE",
"70 698 LINE SMOOTH",
"53 698 OFFCURVE",
"40 684 OFFCURVE",
"40 668 CURVE SMOOTH",
"40 -107 LINE SMOOTH",
"40 -124 OFFCURVE",
"54 -137 OFFCURVE",
"70 -137 CURVE SMOOTH",
"218 -137 LINE",
"218 -107 LINE"
);
}
);
width = 258;
},
{
layerId = "9AB624CD-9C19-4372-9845-4C197A276709";
paths = (
{
closed = 1;
nodes = (
"100 -107 LINE SMOOTH",
"95 -107 OFFCURVE",
"100 -110 OFFCURVE",
"100 -107 CURVE SMOOTH",
"100 668 LINE SMOOTH",
"100 673 OFFCURVE",
"97 668 OFFCURVE",
"100 668 CURVE SMOOTH",
"210 668 LINE",
"210 728 LINE",
"100 728 LINE SMOOTH",
"67 728 OFFCURVE",
"40 701 OFFCURVE",
"40 668 CURVE SMOOTH",
"40 -107 LINE SMOOTH",
"40 -140 OFFCURVE",
"67 -167 OFFCURVE",
"100 -167 CURVE SMOOTH",
"248 -167 LINE",
"248 -107 LINE"
);
}
);
width = 288;
},
{
layerId = "EA99615A-DD74-4F65-B9DC-480CDB683AEE";
paths = (
{
closed = 1;
nodes = (
"155 -122 LINE SMOOTH",
"147 -122 OFFCURVE",
"140 -115 OFFCURVE",
"140 -107 CURVE SMOOTH",
"140 668 LINE SMOOTH",
"140 676 OFFCURVE",
"147 683 OFFCURVE",
"155 683 CURVE SMOOTH",
"265 683 LINE",
"265 773 LINE",
"155 773 LINE SMOOTH",
"97 773 OFFCURVE",
"50 725 OFFCURVE",
"50 668 CURVE SMOOTH",
"50 -107 LINE SMOOTH",
"50 -165 OFFCURVE",
"98 -212 OFFCURVE",
"155 -212 CURVE SMOOTH",
"303 -212 LINE",
"303 -122 LINE"
);
}
);
width = 353;
}
);
unicode = 005B;
},
{
glyphname = hyphen;
layers = (
{
layerId = "7C6EC3B8-53E3-46D5-865A-ED8DFE2E3A2E";
paths = (
{
closed = 1;
nodes = (
"130 278 LINE",
"130 248 LINE",
"462 248 LINE",
"462 278 LINE"
);
}
);
width = 600;
},
{
layerId = "EA99615A-DD74-4F65-B9DC-480CDB683AEE";
paths = (
{
closed = 1;
nodes = (
"460 264 LINE",
"460 354 LINE",
"128 354 LINE",
"128 264 LINE"
);
}
);
width = 600;
},
{
layerId = "9AB624CD-9C19-4372-9845-4C197A276709";
paths = (
{
closed = 1;
nodes = (
"460 248 LINE",
"460 308 LINE",
"128 308 LINE",
"128 248 LINE"
);
}
);
width = 600;
}
);
unicode = 002D;
},
{
glyphname = quotedbl;
layers = (
{
layerId = "7C6EC3B8-53E3-46D5-865A-ED8DFE2E3A2E";
paths = (
{
closed = 1;
nodes = (
"75 469 OFFCURVE",
"98 496 OFFCURVE",
"98 530 CURVE SMOOTH",
"98 576 OFFCURVE",
"30 574 OFFCURVE",
"30 530 CURVE SMOOTH",
"30 504 OFFCURVE",
"53 490 OFFCURVE",
"84 495 CURVE",
"78 525 LINE",
"65 522 OFFCURVE",
"60 525 OFFCURVE",
"60 530 CURVE SMOOTH",
"60 535 OFFCURVE",
"68 536 OFFCURVE",
"68 530 CURVE SMOOTH",
"68 511 OFFCURVE",
"56 497 OFFCURVE",
"39 495 CURVE",
"43 465 LINE"
);
}
);
width = 600;
},
{
layerId = "9AB624CD-9C19-4372-9845-4C197A276709";
width = 600;
},
{
layerId = "EA99615A-DD74-4F65-B9DC-480CDB683AEE";
width = 600;
}
);
unicode = 0022;
},
{
glyphname = quotesingle;
layers = (
{
layerId = "7C6EC3B8-53E3-46D5-865A-ED8DFE2E3A2E";
paths = (
{
closed = 1;
nodes = (
"73 948 OFFCURVE",
"97 977 OFFCURVE",
"97 1011 CURVE SMOOTH",
"97 1056 OFFCURVE",
"28 1053 OFFCURVE",
"30 1011 CURVE SMOOTH",
"31 984 OFFCURVE",
"52 970 OFFCURVE",
"84 975 CURVE",
"77 1004 LINE",
"64 1002 OFFCURVE",
"59 1004 OFFCURVE",
"59 1011 CURVE SMOOTH",
"59 1015 OFFCURVE",
"68 1015 OFFCURVE",
"68 1011 CURVE SMOOTH",
"68 990 OFFCURVE",
"55 977 OFFCURVE",
"39 975 CURVE",
"41 945 LINE"
);
}
);
width = 127;
},
{
layerId = "9AB624CD-9C19-4372-9845-4C197A276709";
paths = (
{
closed = 1;
nodes = (
"85 1005 OFFCURVE",
"80 1010 OFFCURVE",
"79 1020 CURVE SMOOTH",
"78 1031 OFFCURVE",
"98 1029 OFFCURVE",
"100 1017 CURVE SMOOTH",
"105 989 OFFCURVE",
"91 969 OFFCURVE",
"62 955 CURVE",
"80 919 LINE",
"124 940 OFFCURVE",
"147 980 OFFCURVE",
"139 1023 CURVE SMOOTH",
"128 1083 OFFCURVE",
"42 1080 OFFCURVE",
"40 1020 CURVE SMOOTH",
"39 984 OFFCURVE",
"65 966 OFFCURVE",
"104 966 CURVE",
"104 1005 LINE"
);
}
);
width = 181;
},
{
layerId = "EA99615A-DD74-4F65-B9DC-480CDB683AEE";
paths = (
{
closed = 1;
nodes = (
"93 991 OFFCURVE",
"80 1001 OFFCURVE",
"80 1015 CURVE SMOOTH",
"80 1033 OFFCURVE",
"112 1034 OFFCURVE",
"115 1014 CURVE SMOOTH",
"120 983 OFFCURVE",
"97 955 OFFCURVE",
"55 939 CURVE",
"69 902 LINE",
"129 925 OFFCURVE",
"161 970 OFFCURVE",
"154 1020 CURVE SMOOTH",
"144 1088 OFFCURVE",
"40 1083 OFFCURVE",
"40 1015 CURVE SMOOTH",
"40 977 OFFCURVE",
"71 951 OFFCURVE",
"115 951 CURVE",
"115 991 LINE"
);
}
);
width = 195;
}
);
unicode = 0027;
},
{
glyphname = "comma-ar";
layers = (
{
layerId = "7C6EC3B8-53E3-46D5-865A-ED8DFE2E3A2E";
paths = (
{
closed = 1;
nodes = (
"71 52 OFFCURVE",
"83 53 OFFCURVE",
"100 53 CURVE SMOOTH",
"164 53 OFFCURVE",
"175 44 OFFCURVE",
"175 0 CURVE SMOOTH",
"175 -37 OFFCURVE",
"170 -43 OFFCURVE",
"129 -43 CURVE SMOOTH",
"64 -43 OFFCURVE",
"50 -26 OFFCURVE",
"50 64 CURVE SMOOTH",
"50 164 OFFCURVE",
"71 185 OFFCURVE",
"175 185 CURVE",
"175 215 LINE",
"54 215 OFFCURVE",
"20 182 OFFCURVE",
"20 64 CURVE SMOOTH",
"20 -42 OFFCURVE",
"44 -73 OFFCURVE",
"129 -73 CURVE SMOOTH",
"186 -73 OFFCURVE",
"205 -55 OFFCURVE",
"205 0 CURVE SMOOTH",
"205 64 OFFCURVE",
"180 83 OFFCURVE",
"100 83 CURVE SMOOTH",
"81 83 OFFCURVE",
"69 82 OFFCURVE",
"39 79 CURVE",
"43 49 LINE"
);
}
);
width = 225;
},
{
layerId = "EA99615A-DD74-4F65-B9DC-480CDB683AEE";
paths = (
{
closed = 1;
nodes = (
"184 36 OFFCURVE",
"225 19 OFFCURVE",
"225 0 CURVE SMOOTH",
"225 -17 OFFCURVE",
"214 -28 OFFCURVE",
"194 -28 CURVE SMOOTH",
"158 -28 OFFCURVE",
"130 9 OFFCURVE",
"130 64 CURVE SMOOTH",
"130 155 OFFCURVE",
"144 170 OFFCURVE",
"240 170 CURVE",
"240 260 LINE",
"94 260 OFFCURVE",
"40 207 OFFCURVE",
"40 64 CURVE SMOOTH",
"40 -40 OFFCURVE",
"105 -118 OFFCURVE",
"194 -118 CURVE SMOOTH",
"263 -118 OFFCURVE",
"315 -68 OFFCURVE",
"315 0 CURVE SMOOTH",
"315 83 OFFCURVE",
"231 130 OFFCURVE",
"109 122 CURVE",
"115 32 LINE"
);
}
);
width = 355;
},
{
layerId = "9AB624CD-9C19-4372-9845-4C197A276709";
paths = (
{
closed = 1;
nodes = (
"65 215 OFFCURVE",
"30 182 OFFCURVE",
"30 64 CURVE SMOOTH",
"30 -19 OFFCURVE",
"72 -73 OFFCURVE",
"139 -73 CURVE SMOOTH",
"181 -73 OFFCURVE",
"215 -42 OFFCURVE",
"215 0 CURVE SMOOTH",
"215 53 OFFCURVE",
"173 83 OFFCURVE",
"110 83 CURVE SMOOTH",
"92 83 OFFCURVE",
"80 82 OFFCURVE",
"50 79 CURVE",
"56 19 LINE",
"85 22 OFFCURVE",
"95 23 OFFCURVE",
"110 23 CURVE SMOOTH",
"142 23 OFFCURVE",
"155 14 OFFCURVE",
"155 0 CURVE SMOOTH",
"155 -7 OFFCURVE",
"149 -13 OFFCURVE",
"139 -13 CURVE SMOOTH",
"108 -13 OFFCURVE",
"90 13 OFFCURVE",
"90 64 CURVE SMOOTH",
"90 146 OFFCURVE",
"98 155 OFFCURVE",
"185 155 CURVE",
"185 215 LINE"
);
}
);
width = 245;
}
);
unicode = 060C;
},
{
glyphname = "semicolon-ar";
layers = (
{
components = (
{
name = "comma-ar";
transform = "{1, 0, 0, 1, 179, 283}";
}
);
layerId = "7C6EC3B8-53E3-46D5-865A-ED8DFE2E3A2E";
paths = (
{
closed = 1;
nodes = (
"370 -8 OFFCURVE",
"391 9 OFFCURVE",
"391 64 CURVE SMOOTH",
"391 121 OFFCURVE",
"372 139 OFFCURVE",
"310 139 CURVE SMOOTH",
"245 139 OFFCURVE",
"225 122 OFFCURVE",
"225 65 CURVE SMOOTH",
"225 9 OFFCURVE",
"244 -8 OFFCURVE",
"305 -8 CURVE SMOOTH"
);
},
{
closed = 1;
nodes = (
"260 22 OFFCURVE",
"255 28 OFFCURVE",
"255 65 CURVE SMOOTH",
"255 103 OFFCURVE",
"261 109 OFFCURVE",
"310 109 CURVE SMOOTH",
"356 109 OFFCURVE",
"361 103 OFFCURVE",
"361 64 CURVE SMOOTH",
"361 28 OFFCURVE",
"355 22 OFFCURVE",
"305 22 CURVE SMOOTH"
);
}
);
width = 600;
},
{
components = (
{
alignment = -1;
name = "comma-ar";
transform = "{1, 0, 0, 1, 0, 286}";
}
);
layerId = "EA99615A-DD74-4F65-B9DC-480CDB683AEE";
paths = (
{
closed = 1;
nodes = (
"230 -35 OFFCURVE",
"267 -7 OFFCURVE",
"267 36 CURVE SMOOTH",
"267 88 OFFCURVE",
"229 112 OFFCURVE",
"186 112 CURVE SMOOTH",
"137 112 OFFCURVE",
"101 82 OFFCURVE",
"101 37 CURVE SMOOTH",
"101 -5 OFFCURVE",
"135 -35 OFFCURVE",
"181 -36 CURVE"
);
}
);
width = 355;
},
{
components = (
{
name = "comma-ar";
transform = "{1, 0, 0, 1, 179, 248}";
}
);
layerId = "9AB624CD-9C19-4372-9845-4C197A276709";
paths = (
{
closed = 1;
nodes = (
"292 26 OFFCURVE",
"286 31 OFFCURVE",
"286 38 CURVE SMOOTH",
"286 47 OFFCURVE",
"293 53 OFFCURVE",
"311 53 CURVE SMOOTH",
"326 53 OFFCURVE",
"332 48 OFFCURVE",
"332 37 CURVE SMOOTH",
"332 32 OFFCURVE",
"324 26 OFFCURVE",
"306 25 CURVE"
);
},
{
closed = 1;
nodes = (
"355 -34 OFFCURVE",
"392 -6 OFFCURVE",
"392 37 CURVE SMOOTH",
"392 82 OFFCURVE",
"358 113 OFFCURVE",
"311 113 CURVE SMOOTH",
"262 113 OFFCURVE",
"226 83 OFFCURVE",
"226 38 CURVE SMOOTH",
"226 -4 OFFCURVE",
"260 -34 OFFCURVE",
"306 -35 CURVE"
);
}
);
width = 600;
}
);
unicode = 061B;
},
{
glyphname = "asterisk-ar";
layers = (
{
layerId = "7C6EC3B8-53E3-46D5-865A-ED8DFE2E3A2E";
paths = (
{
closed = 1;
nodes = (
"330 168 OFFCURVE",
"330 334 OFFCURVE",
"326 500 CURVE",
"296 500 LINE",
"300 334 OFFCURVE",
"300 169 OFFCURVE",
"296 3 CURVE",
"326 3 LINE"
);
},
{
closed = 1;
nodes = (
"392 288 OFFCURVE",
"226 290 OFFCURVE",
"60 288 CURVE",
"59 258 LINE",
"225 260 OFFCURVE",
"390 258 OFFCURVE",
"556 251 CURVE",
"557 281 LINE"
);
},
{
closed = 1;
nodes = (
"353 334 OFFCURVE",
"237 215 OFFCURVE",
"125 94 CURVE",
"145 72 LINE",
"259 194 OFFCURVE",
"374 311 OFFCURVE",
"494 427 CURVE",
"472 448 LINE"
);
},
{
closed = 1;
nodes = (
"246 316 OFFCURVE",
"360 196 OFFCURVE",
"476 79 CURVE",
"499 98 LINE",
"382 217 OFFCURVE",
"270 337 OFFCURVE",
"159 461 CURVE",
"137 440 LINE"
);
}
);
width = 600;
},
{
layerId = "EA99615A-DD74-4F65-B9DC-480CDB683AEE";
paths = (
{
closed = 1;
nodes = (
"265 332 OFFCURVE",
"265 167 OFFCURVE",
"261 1 CURVE",
"351 -1 LINE",
"355 165 OFFCURVE",
"355 332 OFFCURVE",
"351 500 CURVE",
"261 498 LINE"
);
},
{
closed = 1;
nodes = (
"398 308 OFFCURVE",
"234 310 OFFCURVE",
"53 308 CURVE",
"55 218 LINE",
"234 220 OFFCURVE",
"396 218 OFFCURVE",
"548 211 CURVE",
"552 301 LINE"
);
},
{
closed = 1;
nodes = (
"203 311 OFFCURVE",
"312 194 OFFCURVE",
"446 58 CURVE",
"510 122 LINE",
"377 256 OFFCURVE",
"269 372 OFFCURVE",
"175 480 CURVE",
"107 420 LINE"
);
},
{
closed = 1;
nodes = (
"295 184 OFFCURVE",
"411 300 OFFCURVE",
"530 417 CURVE",
"468 481 LINE",
"347 364 OFFCURVE",
"231 246 OFFCURVE",
"116 123 CURVE",
"182 61 LINE"
);
}
);
width = 600;
},
{
layerId = "9AB624CD-9C19-4372-9845-4C197A276709";
paths = (
{
closed = 1;
nodes = (
"345 168 OFFCURVE",
"345 334 OFFCURVE",
"341 501 CURVE",
"281 499 LINE",
"285 334 OFFCURVE",
"285 169 OFFCURVE",
"281 4 CURVE",
"341 2 LINE"
);
},
{
closed = 1;
nodes = (
"353 332 OFFCURVE",
"237 215 OFFCURVE",
"123 92 CURVE",
"167 52 LINE",
"281 174 OFFCURVE",
"396 290 OFFCURVE",
"515 405 CURVE",
"473 449 LINE"
);
},
{
closed = 1;
nodes = (
"369 230 OFFCURVE",
"259 347 OFFCURVE",
"160 460 CURVE",
"114 420 LINE",
"224 296 OFFCURVE",
"338 175 OFFCURVE",
"455 58 CURVE",
"497 100 LINE"
);
},
{
closed = 1;
nodes = (
"395 278 OFFCURVE",
"230 280 OFFCURVE",
"57 278 CURVE",
"57 218 LINE",
"230 220 OFFCURVE",
"394 218 OFFCURVE",
"553 211 CURVE",
"555 271 LINE"
);
}
);
width = 600;
}
);
unicode = 066D;
},
{
glyphname = "twodotsverticalabove-ar";
layers = (
{
anchors = (
{
name = _top;
position = "{294, 674}";
},
{
name = top;
position = "{296, 780}";
}
);
layerId = "7C6EC3B8-53E3-46D5-865A-ED8DFE2E3A2E";
paths = (
{
closed = 1;
nodes = (
"280 875 OFFCURVE",
"283 763 OFFCURVE",
"279 696 CURVE",
"309 694 LINE",
"313 763 OFFCURVE",
"310 877 OFFCURVE",
"308 900 CURVE",
"278 898 LINE"
);
}
);
width = 600;
},
{
anchors = (
{
name = _top;
position = "{294, 565}";
},
{
name = top;
position = "{296, 938}";
}
);
layerId = "EA99615A-DD74-4F65-B9DC-480CDB683AEE";
paths = (
{
closed = 1;
nodes = (
"328 664 OFFCURVE",
"325 877 OFFCURVE",
"323 902 CURVE",
"233 894 LINE",
"235 873 OFFCURVE",
"238 666 OFFCURVE",
"234 601 CURVE",
"324 595 LINE"
);
}
);
width = 600;
},
{
anchors = (
{
name = _top;
position = "{294, 620}";
},
{
name = top;
position = "{296, 858}";
}
);
layerId = "9AB624CD-9C19-4372-9845-4C197A276709";
paths = (
{
closed = 1;
nodes = (
"268 816 OFFCURVE",
"269 723 OFFCURVE",
"265 655 CURVE",
"325 651 LINE",
"329 721 OFFCURVE",
"328 818 OFFCURVE",
"326 844 CURVE",
"266 840 LINE"
);
}
);
width = 600;
}
);
},
{
glyphname = "twodotsverticalbelow-ar";
layers = (
{
anchors = (
{
name = _bottom;
position = "{287, -143}";
},
{
name = top;
position = "{281, -263}";
}
);
layerId = "7C6EC3B8-53E3-46D5-865A-ED8DFE2E3A2E";
paths = (
{
closed = 1;
nodes = (
"268 -244 OFFCURVE",
"271 -324 OFFCURVE",
"276 -404 CURVE",
"306 -402 LINE",
"301 -322 OFFCURVE",
"298 -243 OFFCURVE",
"297 -163 CURVE",
"267 -163 LINE"
);
}
);
width = 600;
},
{
anchors = (
{
name = _bottom;
position = "{271, -109}";
},
{
name = top;
position = "{281, -517}";
}
);
layerId = "EA99615A-DD74-4F65-B9DC-480CDB683AEE";
paths = (
{
closed = 1;
nodes = (
"316 -402 OFFCURVE",
"313 -243 OFFCURVE",
"312 -162 CURVE",
"222 -164 LINE",
"223 -245 OFFCURVE",
"226 -406 OFFCURVE",
"231 -487 CURVE",
"321 -481 LINE"
);
}
);
width = 600;
},
{
anchors = (
{
name = _bottom;
position = "{307, -126}";
},
{
name = top;
position = "{322, -391}";
}
);
layerId = "9AB624CD-9C19-4372-9845-4C197A276709";
paths = (
{
closed = 1;
nodes = (
"284 -191 OFFCURVE",
"286 -296 OFFCURVE",
"292 -378 CURVE",
"352 -374 LINE",
"346 -294 OFFCURVE",
"344 -189 OFFCURVE",
"343 -141 CURVE",
"283 -143 LINE"
);
}
);
width = 600;
}
);
},
{
glyphname = "threedotsdownabove-ar";
layers = (
{
anchors = (
{
name = _top;
position = "{302, 639}";
},
{
name = top;
position = "{288, 864}";
}
);
components = (
{
name = _twodots;
transform = "{1, 0, 0, 1, 25, 1292}";
},
{
name = one_dot;
transform = "{1, 0, 0, 1, 6, 181}";
}
);
layerId = "7C6EC3B8-53E3-46D5-865A-ED8DFE2E3A2E";
paths = (
{
closed = 0;
nodes = (
"290 868 LINE"
);
}
);
width = 600;
},
{
anchors = (
{
name = _top;
position = "{311, 525}";
},
{
name = top;
position = "{314, 1061}";
}
);
components = (
{
name = _twodots;
transform = "{1, 0, 0, 1, 25, 653}";
},
{
name = one_dot;
transform = "{1, 0, 0, 1, -11, 258}";
}
);
layerId = "EA99615A-DD74-4F65-B9DC-480CDB683AEE";
paths = (
{
closed = 0;
nodes = (
"290 868 LINE"
);
}
);
width = 600;
},
{
anchors = (
{
name = _top;
position = "{306, 583}";
},
{
name = top;
position = "{301, 961}";
}
);
components = (
{
alignment = -1;
name = _twodots;
transform = "{1, 0, 0, 1, 25, 977}";
},
{
alignment = -1;
name = one_dot;
transform = "{1, 0, 0, 1, -2, 806}";
}
);
layerId = "9AB624CD-9C19-4372-9845-4C197A276709";
paths = (
{
closed = 0;
nodes = (
"290 868 LINE"
);
}
);
width = 600;
}
);
},
{
glyphname = "threedotsdownbelow-ar";
layers = (
{
anchors = (
{
name = _bottom;
position = "{301, -186}";
},
{
name = top;
position = "{298, -416}";
}
);
components = (
{
name = _twodots;
transform = "{1, 0, 0, 1, 29, 352}";
},
{
name = one_dot;
transform = "{1, 0, 0, 1, 8, -982}";
}
);
layerId = "7C6EC3B8-53E3-46D5-865A-ED8DFE2E3A2E";
paths = (
{
closed = 0;
nodes = (
"338 -339 LINE"
);
}
);
width = 600;
},
{
anchors = (
{
name = _bottom;
position = "{320, 568}";
},
{
name = top;
position = "{298, 0}";
}
);
components = (
{
name = _twodots;
transform = "{1, 0, 0, 1, 29, 352}";
},
{
name = one_dot;
transform = "{1, 0, 0, 1, -6, -504}";
}
);
layerId = "EA99615A-DD74-4F65-B9DC-480CDB683AEE";
paths = (
{
closed = 0;
nodes = (
"338 -339 LINE"
);
}
);
width = 600;
},
{
anchors = (
{
name = _bottom;
position = "{310, 186}";
},
{
name = top;
position = "{298, -211}";
}
);
components = (
{
alignment = -1;
name = _twodots;
transform = "{1, 0, 0, 1, 29, 352}";
},
{
alignment = -1;
name = one_dot;
transform = "{1, 0, 0, 1, 1, -145}";
}
);
layerId = "9AB624CD-9C19-4372-9845-4C197A276709";
paths = (
{
closed = 0;
nodes = (
"338 -339 LINE"
);
}
);
width = 600;
}
);
},
{
glyphname = "threedotsupabove-ar";
layers = (
{
anchors = (
{
name = _top;
position = "{298, 211}";
},
{
name = top;
position = "{296, 425}";
}
);
components = (
{
name = _twodots;
transform = "{1, 0, 0, 1, 26, 845}";
},
{
name = one_dot;
transform = "{1, 0, 0, 1, 12, -274}";
}
);
layerId = "7C6EC3B8-53E3-46D5-865A-ED8DFE2E3A2E";
paths = (
{
closed = 0;
nodes = (
"310 398 LINE"
);
}
);
width = 600;
},
{
anchors = (
{
name = _top;
position = "{310, 712}";
},
{
name = top;
position = "{308, 1273}";
}
);
components = (
{
name = _twodots;
transform = "{1, 0, 0, 1, 26, 845}";
},
{
name = one_dot;
transform = "{1, 0, 0, 1, -2, 496}";
}
);
layerId = "EA99615A-DD74-4F65-B9DC-480CDB683AEE";
paths = (
{
closed = 0;
nodes = (
"310 398 LINE"
);
}
);
width = 600;
},
{
anchors = (
{
name = _top;
position = "{304, 500}";
},
{
name = top;
position = "{320, 822}";
}
);
components = (
{
alignment = -1;
name = _twodots;
transform = "{1, 0, 0, 1, 26, 845}";
},
{
alignment = -1;
name = one_dot;
transform = "{1, 0, 0, 1, 5, 664}";
}
);
layerId = "9AB624CD-9C19-4372-9845-4C197A276709";
paths = (
{
closed = 0;
nodes = (
"318 645 LINE"
);
}
);
width = 600;
}
);
},
{
glyphname = "wasla-ar";
layers = (
{
anchors = (
{
name = _top;
position = "{272, 837}";
},
{
name = top;
position = "{272, 912}";
}
);
layerId = "7C6EC3B8-53E3-46D5-865A-ED8DFE2E3A2E";
paths = (
{
closed = 1;
nodes = (
"256 905 OFFCURVE",
"302 822 OFFCURVE",
"438 853 CURVE",
"462 858 OFFCURVE",
"457 887 OFFCURVE",
"432 883 CURVE",
"381 871 OFFCURVE",
"342 879 OFFCURVE",
"300 889 CURVE SMOOTH",
"248 901 OFFCURVE",
"191 912 OFFCURVE",
"111 882 CURVE",
"87 871 OFFCURVE",
"98 846 OFFCURVE",
"121 854 CURVE SMOOTH"
);
}
);
width = 600;
},
{
anchors = (
{
name = _top;
position = "{271, 809}";
},
{
name = top;
position = "{272, 969}";
}
);
layerId = "EA99615A-DD74-4F65-B9DC-480CDB683AEE";
paths = (
{
closed = 1;
nodes = (
"569 868 OFFCURVE",
"537 947 OFFCURVE",
"469 935 CURVE",
"411 921 OFFCURVE",
"343 920 OFFCURVE",
"318 930 CURVE SMOOTH",
"250 959 OFFCURVE",
"150 956 OFFCURVE",
"64 924 CURVE",
"-12 889 OFFCURVE",
"30 817 OFFCURVE",
"96 840 CURVE SMOOTH",
"160 862 OFFCURVE",
"236 867 OFFCURVE",
"282 848 CURVE SMOOTH",
"326 829 OFFCURVE",
"413 829 OFFCURVE",
"489 847 CURVE SMOOTH"
);
}
);
width = 600;
},
{
anchors = (
{
name = _top;
position = "{267, 869}";
},
{
name = top;
position = "{267, 981}";
}
);
layerId = "9AB624CD-9C19-4372-9845-4C197A276709";
paths = (
{
closed = 1;
nodes = (
"-12 928 OFFCURVE",
"15 868 OFFCURVE",
"74 896 CURVE",
"174 933 OFFCURVE",
"217 922 OFFCURVE",
"272 908 CURVE SMOOTH",
"321 896 OFFCURVE",
"378 882 OFFCURVE",
"476 906 CURVE SMOOTH",
"544 922 OFFCURVE",
"524 985 OFFCURVE",
"462 964 CURVE",
"378 944 OFFCURVE",
"335 955 OFFCURVE",
"287 967 CURVE SMOOTH",
"232 980 OFFCURVE",
"170 995 OFFCURVE",
"54 952 CURVE SMOOTH"
);
}
);
width = 600;
}
);
},
{
glyphname = "gafsarkashabove-ar";
layers = (
{
anchors = (
{
name = _top;
position = "{285, 655}";
},
{
name = top;
position = "{285, 1066}";
}
);
layerId = "7C6EC3B8-53E3-46D5-865A-ED8DFE2E3A2E";
paths = (
{
closed = 1;
nodes = (
"62 784 OFFCURVE",
"381 969 OFFCURVE",
"545 1069 CURVE",
"567 1081 OFFCURVE",
"583 1056 OFFCURVE",
"561 1043 CURVE SMOOTH",
"396 945 OFFCURVE",
"82 760 OFFCURVE",
"19 683 CURVE",
"2 664 OFFCURVE",
"-21 684 OFFCURVE",
"-5 703 CURVE SMOOTH"
);
}
);
width = 600;
},
{
anchors = (
{
name = _top;
position = "{344, 587}";
},
{
name = top;
position = "{320, 1233}";
}
);
layerId = "EA99615A-DD74-4F65-B9DC-480CDB683AEE";
paths = (
{
closed = 1;
nodes = (
"149 750 OFFCURVE",
"501 986 OFFCURVE",
"664 1086 CURVE",
"733 1132 OFFCURVE",
"678 1196 OFFCURVE",
"618 1162 CURVE SMOOTH",
"453 1062 OFFCURVE",
"89 818 OFFCURVE",
"17 732 CURVE",
"-33 666 OFFCURVE",
"41 622 OFFCURVE",
"87 674 CURVE"
);
}
);
width = 696;
},
{
anchors = (
{
name = _top;
position = "{338, 621}";
},
{
name = top;
position = "{326, 1148}";
}
);
layerId = "9AB624CD-9C19-4372-9845-4C197A276709";
paths = (
{
closed = 1;
nodes = (
"129 766 OFFCURVE",
"464 977 OFFCURVE",
"628 1076 CURVE SMOOTH",
"689 1113 OFFCURVE",
"653 1165 OFFCURVE",
"598 1128 CURVE",
"432 1029 OFFCURVE",
"89 812 OFFCURVE",
"19 726 CURVE SMOOTH",
"-27 672 OFFCURVE",
"19 635 OFFCURVE",
"65 688 CURVE"
);
}
);
width = 660;
}
);
},
{
glyphname = "alefabove-ar";
layers = (
{
components = (
{
name = alef_small;
}
);
layerId = "7C6EC3B8-53E3-46D5-865A-ED8DFE2E3A2E";
width = 600;
},
{
anchors = (
{
name = _top;
position = "{390, 735}";
},
{
name = top;
position = "{390, 975}";
}
);
layerId = "EA99615A-DD74-4F65-B9DC-480CDB683AEE";
paths = (
{
closed = 1;
nodes = (
"345 909 OFFCURVE",
"347 817 OFFCURVE",
"348 755 CURVE",
"438 757 LINE",
"437 819 OFFCURVE",
"435 913 OFFCURVE",
"432 975 CURVE",
"342 971 LINE"
);
}
);
width = 600;
},
{
anchors = (
{
name = _top;
position = "{446, 837}";
},
{
name = top;
position = "{435, 1026}";
}
);
layerId = "9AB624CD-9C19-4372-9845-4C197A276709";
paths = (
{
closed = 1;
nodes = (
"467 924 OFFCURVE",
"467 924 OFFCURVE",
"462 976 CURVE",
"460 1046 OFFCURVE",
"399 1039 OFFCURVE",
"402 974 CURVE",
"404 944 OFFCURVE",
"406 922 OFFCURVE",
"408 907 CURVE SMOOTH",
"417 837 OFFCURVE",
"471 854 OFFCURVE",
"468 907 CURVE SMOOTH"
);
}
);
width = 600;
}
);
unicode = 0670;
},
{
glyphname = "fathatan-ar";
layers = (
{
anchors = (
{
name = _top;
position = "{423, 791}";
},
{
name = top;
position = "{423, 961}";
}
);
layerId = "7C6EC3B8-53E3-46D5-865A-ED8DFE2E3A2E";
paths = (
{
closed = 1;
nodes = (
"378 880 OFFCURVE",
"477 904 OFFCURVE",
"574 932 CURVE SMOOTH",
"600 939 OFFCURVE",
"591 967 OFFCURVE",
"566 960 CURVE",
"469 934 OFFCURVE",
"372 910 OFFCURVE",
"275 887 CURVE SMOOTH",
"248 881 OFFCURVE",
"253 851 OFFCURVE",
"281 857 CURVE"
);
},
{
closed = 1;
nodes = (
"378 835 OFFCURVE",
"477 861 OFFCURVE",
"574 887 CURVE SMOOTH",
"600 894 OFFCURVE",
"591 922 OFFCURVE",
"566 915 CURVE",
"469 889 OFFCURVE",
"372 864 OFFCURVE",
"275 842 CURVE SMOOTH",
"248 836 OFFCURVE",
"253 806 OFFCURVE",
"281 812 CURVE"
);
}
);
width = 600;
},
{
anchors = (
{
name = _top;
position = "{295, 1089}";
},
{
name = top;
position = "{295, 1491}";
}
);
components = (
{
name = "fatha-ar";
transform = "{1, 0, 0, 1, -93, 330}";
},
{
name = "fatha-ar";
transform = "{1, 0, 0, 1, -89, 531}";
}
);
layerId = "EA99615A-DD74-4F65-B9DC-480CDB683AEE";
width = 600;
},
{
anchors = (
{
name = _top;
position = "{322, 1064}";
},
{
name = top;
position = "{322, 1414}";
}
);
components = (
{
name = "kasratan-ar";
transform = "{1, 0, 0, 1, 0, 1537}";
}
);
layerId = "9AB624CD-9C19-4372-9845-4C197A276709";
width = 600;
}
);
unicode = 064B;
},
{
glyphname = "dammatan-ar";
layers = (
{
anchors = (
{
name = _top;
position = "{250, 555}";
},
{
name = top;
position = "{250, 1011}";
}
);
layerId = "7C6EC3B8-53E3-46D5-865A-ED8DFE2E3A2E";
paths = (
{
closed = 1;
nodes = (
"549 718 OFFCURVE",
"549 1009 OFFCURVE",
"356 1011 CURVE SMOOTH",
"141 1013 OFFCURVE",
"137 718 OFFCURVE",
"356 718 CURVE SMOOTH"
);
},
{
closed = 1;
nodes = (
"177 748 OFFCURVE",
"181 983 OFFCURVE",
"356 981 CURVE SMOOTH",
"509 979 OFFCURVE",
"511 748 OFFCURVE",
"356 748 CURVE SMOOTH"
);
},
{
closed = 1;
nodes = (
"366 659 OFFCURVE",
"278 638 OFFCURVE",
"139 703 CURVE",
"127 675 LINE",
"282 604 OFFCURVE",
"384 631 OFFCURVE",
"480 785 CURVE",
"456 801 LINE"
);
},
{
closed = 1;
nodes = (
"140 814 OFFCURVE",
"158 728 OFFCURVE",
"91 588 CURVE",
"118 575 LINE",
"193 728 OFFCURVE",
"168 832 OFFCURVE",
"18 931 CURVE",
"0 907 LINE"
);
}
);
width = 501;
},
{
anchors = (
{
name = _top;
position = "{250, 540}";
},
{
name = top;
position = "{250, 1057}";
}
);
layerId = "EA99615A-DD74-4F65-B9DC-480CDB683AEE";
paths = (
{
closed = 1;
nodes = (
"237 793 OFFCURVE",
"240 937 OFFCURVE",
"355 936 CURVE SMOOTH",
"449 935 OFFCURVE",
"452 793 OFFCURVE",
"356 793 CURVE SMOOTH"
);
},
{
closed = 1;
nodes = (
"570 703 OFFCURVE",
"568 1023 OFFCURVE",
"357 1026 CURVE SMOOTH",
"122 1029 OFFCURVE",
"117 703 OFFCURVE",
"356 703 CURVE SMOOTH"
);
},
{
closed = 1;
nodes = (
"336 694 OFFCURVE",
"259 670 OFFCURVE",
"122 733 CURVE",
"84 651 LINE",
"263 569 OFFCURVE",
"388 608 OFFCURVE",
"494 778 CURVE",
"418 826 LINE"
);
},
{
closed = 1;
nodes = (
"210 733 OFFCURVE",
"180 842 OFFCURVE",
"25 944 CURVE",
"-25 870 LINE",
"92 792 OFFCURVE",
"110 731 OFFCURVE",
"50 607 CURVE",
"132 569 LINE"
);
}
);
width = 501;
},
{
anchors = (
{
name = _top;
position = "{261, 629}";
},
{
name = top;
position = "{261, 966}";
}
);
layerId = "9AB624CD-9C19-4372-9845-4C197A276709";
paths = (
{
closed = 1;
nodes = (
"277 823 OFFCURVE",
"279 907 OFFCURVE",
"355 906 CURVE SMOOTH",
"409 905 OFFCURVE",
"412 823 OFFCURVE",
"356 823 CURVE SMOOTH"
);
},
{
closed = 1;
nodes = (
"492 763 OFFCURVE",
"489 965 OFFCURVE",
"355 966 CURVE SMOOTH",
"200 967 OFFCURVE",
"197 763 OFFCURVE",
"356 763 CURVE SMOOTH"
);
},
{
closed = 1;
nodes = (
"198 702 OFFCURVE",
"217 847 OFFCURVE",
"123 913 CURVE",
"88 863 LINE",
"145 823 OFFCURVE",
"131 735 OFFCURVE",
"66 702 CURVE",
"94 649 LINE"
);
},
{
closed = 1;
nodes = (
"321 754 OFFCURVE",
"255 729 OFFCURVE",
"129 743 CURVE",
"123 683 LINE",
"268 667 OFFCURVE",
"355 700 OFFCURVE",
"438 802 CURVE",
"392 840 LINE"
);
}
);
width = 600;
}
);
unicode = 064C;
},
{
glyphname = "fatha-ar";
layers = (
{
anchors = (
{
name = _top;
position = "{421, 791}";
},
{
name = top;
position = "{421, 916}";
}
);
layerId = "7C6EC3B8-53E3-46D5-865A-ED8DFE2E3A2E";
paths = (
{
closed = 1;
nodes = (
"376 835 OFFCURVE",
"475 861 OFFCURVE",
"572 887 CURVE SMOOTH",
"598 894 OFFCURVE",
"589 922 OFFCURVE",
"564 915 CURVE",
"467 889 OFFCURVE",
"370 864 OFFCURVE",
"273 842 CURVE SMOOTH",
"246 836 OFFCURVE",
"251 806 OFFCURVE",
"279 812 CURVE"
);
}
);
width = 600;
},
{
anchors = (
{
name = _top;
position = "{396, 771}";
},
{
name = top;
position = "{400, 972}";
}
);
layerId = "EA99615A-DD74-4F65-B9DC-480CDB683AEE";
paths = (
{
closed = 1;
nodes = (
"125 850 OFFCURVE",
"147 768 OFFCURVE",
"216 780 CURVE SMOOTH",
"319 801 OFFCURVE",
"476 841 OFFCURVE",
"577 872 CURVE SMOOTH",
"649 894 OFFCURVE",
"619 974 OFFCURVE",
"551 958 CURVE",
"452 928 OFFCURVE",
"298 889 OFFCURVE",
"198 868 CURVE SMOOTH"
);
}
);
width = 600;
},
{
anchors = (
{
name = _top;
position = "{374, 816}";
},
{
name = top;
position = "{374, 991}";
}
);
layerId = "9AB624CD-9C19-4372-9845-4C197A276709";
paths = (
{
closed = 1;
nodes = (
"123 883 OFFCURVE",
"138 821 OFFCURVE",
"204 839 CURVE",
"308 860 OFFCURVE",
"462 900 OFFCURVE",
"560 929 CURVE",
"628 945 OFFCURVE",
"604 1008 OFFCURVE",
"542 987 CURVE SMOOTH",
"447 958 OFFCURVE",
"293 918 OFFCURVE",
"192 897 CURVE SMOOTH"
);
}
);
width = 600;
}
);
unicode = 064E;
},
{
glyphname = "damma-ar";
layers = (
{
anchors = (
{
name = _top;
position = "{314, 618}";
},
{
name = top;
position = "{314, 1011}";
}
);
layerId = "7C6EC3B8-53E3-46D5-865A-ED8DFE2E3A2E";
paths = (
{
closed = 1;
nodes = (
"549 718 OFFCURVE",
"549 1009 OFFCURVE",
"356 1011 CURVE SMOOTH",
"141 1013 OFFCURVE",
"137 718 OFFCURVE",
"356 718 CURVE SMOOTH"
);
},
{
closed = 1;
nodes = (
"177 748 OFFCURVE",
"181 983 OFFCURVE",
"356 981 CURVE SMOOTH",
"509 979 OFFCURVE",
"511 748 OFFCURVE",
"356 748 CURVE SMOOTH"
);
},
{
closed = 1;
nodes = (
"366 659 OFFCURVE",
"278 638 OFFCURVE",
"139 703 CURVE",
"127 675 LINE",
"282 604 OFFCURVE",
"384 631 OFFCURVE",
"480 785 CURVE",
"456 801 LINE"
);
}
);
width = 600;
},
{
anchors = (
{
name = _top;
position = "{293, 938}";
},
{
name = top;
position = "{314, 1514}";
}
);
layerId = "EA99615A-DD74-4F65-B9DC-480CDB683AEE";
paths = (
{
closed = 1;
nodes = (
"562 1099 OFFCURVE",
"562 1479 OFFCURVE",
"310 1482 CURVE SMOOTH",
"36 1485 OFFCURVE",
"32 1099 OFFCURVE",
"310 1099 CURVE SMOOTH"
);
},
{
closed = 1;
nodes = (
"150 1189 OFFCURVE",
"154 1393 OFFCURVE",
"310 1392 CURVE SMOOTH",
"444 1391 OFFCURVE",
"444 1189 OFFCURVE",
"310 1189 CURVE SMOOTH"
);
},
{
closed = 1;
nodes = (
"373 1190 LINE",
"320 1102 OFFCURVE",
"242 1054 OFFCURVE",
"129 1038 CURVE",
"142 949 LINE",
"309 973 OFFCURVE",
"423 1060 OFFCURVE",
"485 1215 CURVE"
);
}
);
width = 600;
},
{
anchors = (
{
name = _top;
position = "{284, 1011}";
},
{
name = top;
position = "{284, 1422}";
}
);
layerId = "9AB624CD-9C19-4372-9845-4C197A276709";
paths = (
{
closed = 1;
nodes = (
"190 1219 OFFCURVE",
"194 1363 OFFCURVE",
"310 1362 CURVE SMOOTH",
"404 1361 OFFCURVE",
"404 1219 OFFCURVE",
"310 1219 CURVE SMOOTH"
);
},
{
closed = 1;
nodes = (
"484 1159 OFFCURVE",
"484 1421 OFFCURVE",
"310 1422 CURVE SMOOTH",
"114 1423 OFFCURVE",
"111 1159 OFFCURVE",
"310 1159 CURVE SMOOTH"
);
},
{
closed = 1;
nodes = (
"324 1135 OFFCURVE",
"296 1115 OFFCURVE",
"127 1091 CURVE",
"135 1031 LINE",
"325 1059 OFFCURVE",
"371 1091 OFFCURVE",
"434 1247 CURVE",
"378 1269 LINE"
);
}
);
width = 600;
}
);
unicode = 064F;
},
{
glyphname = "shadda-ar";
layers = (
{
layerId = "7C6EC3B8-53E3-46D5-865A-ED8DFE2E3A2E";
paths = (
{
closed = 1;
nodes = (
"398 755 OFFCURVE",
"443 697 OFFCURVE",
"491 697 CURVE SMOOTH",
"551 697 OFFCURVE",
"614 778 OFFCURVE",
"614 853 CURVE",
"584 853 LINE",
"584 795 OFFCURVE",
"534 727 OFFCURVE",
"491 727 CURVE SMOOTH",
"460 727 OFFCURVE",
"424 776 OFFCURVE",
"408 846 CURVE",
"378 840 LINE"
);
},
{
closed = 1;
nodes = (
"210 771 OFFCURVE",
"254 704 OFFCURVE",
"306 704 CURVE SMOOTH",
"361 704 OFFCURVE",
"414 778 OFFCURVE",
"408 844 CURVE",
"378 842 LINE",
"382 793 OFFCURVE",
"342 734 OFFCURVE",
"306 734 CURVE SMOOTH",
"273 734 OFFCURVE",
"240 788 OFFCURVE",
"240 847 CURVE",
"210 847 LINE"
);
}
);
width = 600;
},
{
anchors = (
{
name = _top;
position = "{331, 574}";
},
{
name = top;
position = "{312, 968}";
}
);
layerId = "EA99615A-DD74-4F65-B9DC-480CDB683AEE";
paths = (
{
closed = 1;
nodes = (
"258 792 OFFCURVE",
"228 758 OFFCURVE",
"189 762 CURVE SMOOTH",
"156 765 OFFCURVE",
"138 803 OFFCURVE",
"148 862 CURVE",
"59 877 LINE",
"41 767 OFFCURVE",
"91 682 OFFCURVE",
"180 673 CURVE SMOOTH",
"274 663 OFFCURVE",
"349 741 OFFCURVE",
"346 847 CURVE",
"255 845 LINE"
);
},
{
closed = 1;
nodes = (
"262 798 LINE",
"282 720 OFFCURVE",
"345 659 OFFCURVE",
"414 659 CURVE SMOOTH",
"508 659 OFFCURVE",
"582 748 OFFCURVE",
"582 860 CURVE",
"492 860 LINE",
"492 797 OFFCURVE",
"456 749 OFFCURVE",
"414 749 CURVE SMOOTH",
"383 749 OFFCURVE",
"346 798 OFFCURVE",
"346 847 CURVE"
);
}
);
width = 600;
},
{
anchors = (
{
name = _top;
position = "{361, 699}";
},
{
name = top;
position = "{361, 860}";
}
);
layerId = "9AB624CD-9C19-4372-9845-4C197A276709";
paths = (
{
closed = 1;
nodes = (
"192 790 OFFCURVE",
"218 737 OFFCURVE",
"274 732 CURVE SMOOTH",
"334 726 OFFCURVE",
"377 774 OFFCURVE",
"373 844 CURVE",
"313 843 LINE",
"313 777 OFFCURVE",
"359 719 OFFCURVE",
"414 719 CURVE SMOOTH",
"477 719 OFFCURVE",
"522 779 OFFCURVE",
"522 860 CURVE",
"462 860 LINE",
"462 811 OFFCURVE",
"441 779 OFFCURVE",
"414 779 CURVE SMOOTH",
"395 779 OFFCURVE",
"373 811 OFFCURVE",
"373 844 CURVE",
"313 843 LINE",
"315 810 OFFCURVE",
"300 790 OFFCURVE",
"280 792 CURVE",
"264 793 OFFCURVE",
"256 812 OFFCURVE",
"263 850 CURVE",
"203 860 LINE"
);
}
);
width = 600;
}
);
unicode = 0651;
},
{
glyphname = "sukun-ar";
layers = (
{
anchors = (
{
name = _top;
position = "{385, 682}";
},
{
name = top;
position = "{385, 943}";
}
);
layerId = "7C6EC3B8-53E3-46D5-865A-ED8DFE2E3A2E";
paths = (
{
closed = 1;
nodes = (
"273 662 OFFCURVE",
"497 661 OFFCURVE",
"497 823 CURVE SMOOTH",
"497 984 OFFCURVE",
"273 983 OFFCURVE",
"273 823 CURVE SMOOTH"
);
},
{
closed = 1;
nodes = (
"303 944 OFFCURVE",
"467 944 OFFCURVE",
"467 823 CURVE SMOOTH",
"467 701 OFFCURVE",
"303 701 OFFCURVE",
"303 823 CURVE SMOOTH"
);
}
);
width = 600;
},
{
anchors = (
{
name = _top;
position = "{385, 612}";
},
{
name = top;
position = "{385, 1024}";
}
);
layerId = "EA99615A-DD74-4F65-B9DC-480CDB683AEE";
paths = (
{
closed = 1;
nodes = (
"213 583 OFFCURVE",
"557 583 OFFCURVE",
"557 823 CURVE SMOOTH",
"557 1062 OFFCURVE",
"213 1062 OFFCURVE",
"213 823 CURVE SMOOTH"
);
},
{
closed = 1;
nodes = (
"303 944 OFFCURVE",
"467 944 OFFCURVE",
"467 823 CURVE SMOOTH",
"467 701 OFFCURVE",
"303 701 OFFCURVE",
"303 823 CURVE SMOOTH"
);
}
);
width = 600;
},
{
anchors = (
{
name = _top;
position = "{385, 682}";
},
{
name = top;
position = "{385, 944}";
}
);
layerId = "9AB624CD-9C19-4372-9845-4C197A276709";
paths = (
{
closed = 1;
nodes = (
"333 905 OFFCURVE",
"437 905 OFFCURVE",
"437 823 CURVE SMOOTH",
"437 740 OFFCURVE",
"333 740 OFFCURVE",
"333 823 CURVE SMOOTH"
);
},
{
closed = 1;
nodes = (
"273 661 OFFCURVE",
"497 661 OFFCURVE",
"497 823 CURVE SMOOTH",
"497 984 OFFCURVE",
"273 984 OFFCURVE",
"273 823 CURVE SMOOTH"
);
}
);
width = 600;
}
);
unicode = 0652;
},
{
glyphname = "madda-ar";
layers = (
{
anchors = (
{
name = _top;
position = "{280, 811}";
},
{
name = top;
position = "{280, 913}";
}
);
layerId = "7C6EC3B8-53E3-46D5-865A-ED8DFE2E3A2E";
paths = (
{
closed = 1;
nodes = (
"92 870 OFFCURVE",
"97 873 OFFCURVE",
"104 875 CURVE",
"142 890 OFFCURVE",
"230 913 OFFCURVE",
"255 913 CURVE SMOOTH",
"289 913 OFFCURVE",
"308 897 OFFCURVE",
"322 884 CURVE",
"338 871 OFFCURVE",
"349 861 OFFCURVE",
"377 861 CURVE SMOOTH",
"395 861 OFFCURVE",
"455 873 OFFCURVE",
"475 878 CURVE",
"500 882 OFFCURVE",
"505 853 OFFCURVE",
"481 848 CURVE SMOOTH",
"458 843 OFFCURVE",
"397 831 OFFCURVE",
"377 831 CURVE SMOOTH",
"289 831 OFFCURVE",
"307 883 OFFCURVE",
"255 883 CURVE SMOOTH",
"232 883 OFFCURVE",
"131 852 OFFCURVE",
"96 840 CURVE SMOOTH",
"73 832 OFFCURVE",
"63 858 OFFCURVE",
"87 868 CURVE SMOOTH"
);
}
);
width = 600;
},
{
anchors = (
{
name = _top;
position = "{307, 745}";
},
{
name = top;
position = "{307, 978}";
}
);
layerId = "EA99615A-DD74-4F65-B9DC-480CDB683AEE";
paths = (
{
closed = 1;
nodes = (
"-31 861 OFFCURVE",
"3 779 OFFCURVE",
"71 797 CURVE",
"102 808 OFFCURVE",
"238 838 OFFCURVE",
"255 838 CURVE SMOOTH",
"263 838 OFFCURVE",
"267 836 OFFCURVE",
"285 824 CURVE SMOOTH",
"307 810 OFFCURVE",
"344 786 OFFCURVE",
"407 786 CURVE SMOOTH",
"427 786 OFFCURVE",
"491 802 OFFCURVE",
"532 812 CURVE SMOOTH",
"547 816 OFFCURVE",
"559 819 OFFCURVE",
"565 820 CURVE SMOOTH",
"637 842 OFFCURVE",
"613 924 OFFCURVE",
"545 908 CURVE SMOOTH",
"521 903 OFFCURVE",
"420 876 OFFCURVE",
"407 876 CURVE SMOOTH",
"333 876 OFFCURVE",
"327 928 OFFCURVE",
"255 928 CURVE SMOOTH",
"229 928 OFFCURVE",
"84 897 OFFCURVE",
"41 883 CURVE SMOOTH"
);
}
);
width = 600;
},
{
anchors = (
{
name = _top;
position = "{284, 837}";
},
{
name = top;
position = "{284, 988}";
}
);
layerId = "9AB624CD-9C19-4372-9845-4C197A276709";
paths = (
{
closed = 1;
nodes = (
"126 910 OFFCURVE",
"211 928 OFFCURVE",
"255 928 CURVE SMOOTH",
"279 928 OFFCURVE",
"291 921 OFFCURVE",
"312 893 CURVE SMOOTH",
"339 856 OFFCURVE",
"360 850 OFFCURVE",
"407 864 CURVE",
"409 865 LINE",
"424 871 OFFCURVE",
"479 888 OFFCURVE",
"545 908 CURVE",
"610 928 OFFCURVE",
"589 987 OFFCURVE",
"527 966 CURVE SMOOTH",
"461 946 OFFCURVE",
"407 928 OFFCURVE",
"388 921 CURVE",
"367 915 OFFCURVE",
"371 914 OFFCURVE",
"360 929 CURVE SMOOTH",
"328 971 OFFCURVE",
"298 988 OFFCURVE",
"255 988 CURVE SMOOTH",
"204 988 OFFCURVE",
"114 969 OFFCURVE",
"23 941 CURVE SMOOTH",
"-41 920 OFFCURVE",
"-20 861 OFFCURVE",
"41 883 CURVE"
);
}
);
width = 600;
}
);
unicode = 0653;
},
{
export = 0;
glyphname = _connection;
layers = (
{
anchors = (
{
name = "#entry";
position = "{117, 0}";
}
);
layerId = "7C6EC3B8-53E3-46D5-865A-ED8DFE2E3A2E";
paths = (
{
closed = 1;
nodes = (
"17 147 LINE",
"38 74 OFFCURVE",
"75 17 OFFCURVE",
"117 0 CURVE",
"128 27 LINE",
"94 40 OFFCURVE",
"63 91 OFFCURVE",
"45 157 CURVE"
);
}
);
width = 117;
},
{
layerId = "EA99615A-DD74-4F65-B9DC-480CDB683AEE";
width = 600;
},
{
layerId = "9AB624CD-9C19-4372-9845-4C197A276709";
width = 600;
}
);
},
{
export = 0;
glyphname = _connection2;
layers = (
{
anchors = (
{
name = "#entry";
position = "{117, 0}";
},
{
name = "#exit";
position = "{0, 0}";
}
);
layerId = "7C6EC3B8-53E3-46D5-865A-ED8DFE2E3A2E";
paths = (
{
closed = 1;
nodes = (
"62 0 OFFCURVE",
"81 0 OFFCURVE",
"117 0 CURVE",
"117 30 LINE",
"80 30 OFFCURVE",
"61 30 OFFCURVE",
"0 30 CURVE",
"0 0 LINE"
);
}
);
width = 117;
},
{
anchors = (
{
name = "#entry";
position = "{298, 0}";
},
{
name = "#exit";
position = "{0, 0}";
}
);
layerId = "EA99615A-DD74-4F65-B9DC-480CDB683AEE";
paths = (
{
closed = 1;
nodes = (
"0 90 LINE",
"0 0 LINE",
"298 0 LINE",
"298 90 LINE"
);
}
);
width = 298;
},
{
anchors = (
{
name = "#entry";
position = "{207, -2}";
},
{
name = "#exit";
position = "{0, -1}";
}
);
layerId = "9AB624CD-9C19-4372-9845-4C197A276709";
paths = (
{
closed = 1;
nodes = (
"0 60 LINE",
"0 0 LINE",
"206 0 LINE",
"206 60 LINE"
);
}
);
width = 206;
}
);
},
{
export = 0;
glyphname = _twodots;
layers = (
{
layerId = "7C6EC3B8-53E3-46D5-865A-ED8DFE2E3A2E";
paths = (
{
closed = 1;
nodes = (
"189 -566 OFFCURVE",
"241 -553 OFFCURVE",
"285 -571 CURVE SMOOTH",
"327 -588 OFFCURVE",
"378 -580 OFFCURVE",
"400 -555 CURVE",
"418 -536 OFFCURVE",
"440 -556 OFFCURVE",
"423 -573 CURVE",
"393 -610 OFFCURVE",
"328 -622 OFFCURVE",
"273 -599 CURVE SMOOTH",
"241 -586 OFFCURVE",
"201 -595 OFFCURVE",
"173 -622 CURVE",
"153 -639 OFFCURVE",
"135 -617 OFFCURVE",
"152 -601 CURVE SMOOTH"
);
}
);
width = 600;
},
{
layerId = "EA99615A-DD74-4F65-B9DC-480CDB683AEE";
paths = (
{
closed = 1;
nodes = (
"155 20 OFFCURVE",
"225 30 OFFCURVE",
"272 0 CURVE SMOOTH",
"360 -56 OFFCURVE",
"491 -54 OFFCURVE",
"546 8 CURVE SMOOTH",
"601 70 OFFCURVE",
"542 123 OFFCURVE",
"478 68 CURVE SMOOTH",
"441 36 OFFCURVE",
"371 44 OFFCURVE",
"320 76 CURVE SMOOTH",
"239 127 OFFCURVE",
"129 114 OFFCURVE",
"39 42 CURVE SMOOTH",
"-26 -10 OFFCURVE",
"25 -76 OFFCURVE",
"95 -28 CURVE"
);
}
);
width = 600;
},
{
layerId = "9AB624CD-9C19-4372-9845-4C197A276709";
paths = (
{
closed = 1;
nodes = (
"219 -283 OFFCURVE",
"255 -277 OFFCURVE",
"282 -292 CURVE SMOOTH",
"340 -323 OFFCURVE",
"405 -317 OFFCURVE",
"443 -278 CURVE",
"496 -232 OFFCURVE",
"445 -188 OFFCURVE",
"399 -236 CURVE SMOOTH",
"381 -255 OFFCURVE",
"345 -257 OFFCURVE",
"310 -240 CURVE",
"262 -212 OFFCURVE",
"198 -222 OFFCURVE",
"151 -262 CURVE",
"94 -303 OFFCURVE",
"140 -352 OFFCURVE",
"189 -308 CURVE"
);
}
);
width = 600;
}
);
},
{
export = 0;
glyphname = _twodot.001;
layers = (
{
layerId = "7C6EC3B8-53E3-46D5-865A-ED8DFE2E3A2E";
paths = (
{
closed = 1;
nodes = (
"372 -601 OFFCURVE",
"336 -612 OFFCURVE",
"310 -612 CURVE SMOOTH",
"289 -612 OFFCURVE",
"271 -605 OFFCURVE",
"256 -600 CURVE",
"241 -594 OFFCURVE",
"229 -590 OFFCURVE",
"216 -590 CURVE SMOOTH",
"201 -590 OFFCURVE",
"185 -597 OFFCURVE",
"169 -609 CURVE SMOOTH",
"149 -625 OFFCURVE",
"130 -601 OFFCURVE",
"151 -586 CURVE SMOOTH",
"171 -569 OFFCURVE",
"195 -560 OFFCURVE",
"216 -560 CURVE SMOOTH",
"253 -560 OFFCURVE",
"279 -582 OFFCURVE",
"310 -582 CURVE SMOOTH",
"330 -582 OFFCURVE",
"360 -573 OFFCURVE",
"374 -563 CURVE SMOOTH",
"395 -548 OFFCURVE",
"413 -572 OFFCURVE",
"392 -587 CURVE SMOOTH"
);
}
);
width = 600;
},
{
layerId = "EA99615A-DD74-4F65-B9DC-480CDB683AEE";
width = 600;
},
{
layerId = "9AB624CD-9C19-4372-9845-4C197A276709";
width = 600;
}
);
},
{
export = 0;
glyphname = _twodots.001;
layers = (
{
layerId = "7C6EC3B8-53E3-46D5-865A-ED8DFE2E3A2E";
paths = (
{
closed = 1;
nodes = (
"348 -517 OFFCURVE",
"299 -518 OFFCURVE",
"254 -519 CURVE SMOOTH",
"210 -520 OFFCURVE",
"169 -521 OFFCURVE",
"125 -525 CURVE",
"127 -555 LINE",
"215 -547 OFFCURVE",
"291 -551 OFFCURVE",
"408 -542 CURVE",
"406 -512 LINE"
);
}
);
width = 600;
},
{
layerId = "EA99615A-DD74-4F65-B9DC-480CDB683AEE";
width = 600;
},
{
layerId = "9AB624CD-9C19-4372-9845-4C197A276709";
width = 600;
}
);
},
{
export = 0;
glyphname = _twodots.002;
layers = (
{
layerId = "7C6EC3B8-53E3-46D5-865A-ED8DFE2E3A2E";
paths = (
{
closed = 1;
nodes = (
"338 -612 OFFCURVE",
"371 -602 OFFCURVE",
"392 -587 CURVE SMOOTH",
"397 -582 OFFCURVE",
"401 -576 OFFCURVE",
"401 -571 CURVE SMOOTH",
"401 -563 OFFCURVE",
"395 -558 OFFCURVE",
"387 -558 CURVE SMOOTH",
"384 -558 OFFCURVE",
"379 -560 OFFCURVE",
"374 -563 CURVE SMOOTH",
"358 -574 OFFCURVE",
"332 -582 OFFCURVE",
"310 -582 CURVE SMOOTH",
"279 -582 OFFCURVE",
"253 -560 OFFCURVE",
"216 -560 CURVE SMOOTH",
"195 -560 OFFCURVE",
"169 -570 OFFCURVE",
"151 -586 CURVE SMOOTH",
"146 -590 OFFCURVE",
"142 -596 OFFCURVE",
"142 -601 CURVE SMOOTH",
"142 -609 OFFCURVE",
"148 -614 OFFCURVE",
"156 -614 CURVE SMOOTH",
"160 -614 OFFCURVE",
"165 -612 OFFCURVE",
"169 -609 CURVE SMOOTH",
"184 -598 OFFCURVE",
"203 -590 OFFCURVE",
"216 -590 CURVE SMOOTH",
"225 -590 OFFCURVE",
"241 -594 OFFCURVE",
"256 -600 CURVE",
"278 -607 OFFCURVE",
"299 -612 OFFCURVE",
"310 -612 CURVE SMOOTH"
);
}
);
width = 600;
},
{
layerId = "EA99615A-DD74-4F65-B9DC-480CDB683AEE";
width = 600;
},
{
layerId = "9AB624CD-9C19-4372-9845-4C197A276709";
width = 600;
}
);
},
{
export = 0;
glyphname = _twodots.003;
layers = (
{
layerId = "7C6EC3B8-53E3-46D5-865A-ED8DFE2E3A2E";
paths = (
{
closed = 1;
nodes = (
"245 -607 OFFCURVE",
"311 -603 OFFCURVE",
"396 -598 CURVE",
"422 -596 OFFCURVE",
"419 -566 OFFCURVE",
"394 -568 CURVE",
"309 -573 OFFCURVE",
"245 -577 OFFCURVE",
"155 -577 CURVE",
"130 -577 OFFCURVE",
"130 -608 OFFCURVE",
"156 -607 CURVE"
);
}
);
width = 600;
},
{
layerId = "EA99615A-DD74-4F65-B9DC-480CDB683AEE";
width = 600;
},
{
layerId = "9AB624CD-9C19-4372-9845-4C197A276709";
width = 600;
}
);
},
{
glyphname = "sad-01";
layers = (
{
layerId = "7C6EC3B8-53E3-46D5-865A-ED8DFE2E3A2E";
paths = (
{
closed = 1;
nodes = (
"762 20 OFFCURVE",
"783 0 OFFCURVE",
"837 0 CURVE SMOOTH",
"883 0 OFFCURVE",
"1049 0 OFFCURVE",
"1164 0 CURVE SMOOTH",
"1456 0 OFFCURVE",
"1708 -7 OFFCURVE",
"1708 317 CURVE SMOOTH",
"1708 460 OFFCURVE",
"1614 546 OFFCURVE",
"1487 546 CURVE SMOOTH",
"1250 546 OFFCURVE",
"898 305 OFFCURVE",
"832 -34 CURVE",
"861 -40 LINE",
"924 281 OFFCURVE",
"1265 521 OFFCURVE",
"1487 521 CURVE SMOOTH",
"1598 521 OFFCURVE",
"1679 443 OFFCURVE",
"1679 318 CURVE SMOOTH",
"1679 20 OFFCURVE",
"1457 30 OFFCURVE",
"1182 30 CURVE SMOOTH",
"1062 30 OFFCURVE",
"889 30 OFFCURVE",
"838 30 CURVE SMOOTH",
"801 30 OFFCURVE",
"790 40 OFFCURVE",
"769 125 CURVE",
"739 121 LINE"
);
}
);
width = 1704;
},
{
layerId = "EA99615A-DD74-4F65-B9DC-480CDB683AEE";
paths = (
{
closed = 1;
nodes = (
"1045 279 OFFCURVE",
"1347 546 OFFCURVE",
"1602 546 CURVE SMOOTH",
"1709 546 OFFCURVE",
"1778 475 OFFCURVE",
"1778 362 CURVE SMOOTH",
"1778 84 OFFCURVE",
"1572 90 OFFCURVE",
"1279 90 CURVE SMOOTH",
"1164 90 OFFCURVE",
"998 90 OFFCURVE",
"952 90 CURVE SMOOTH",
"923 90 OFFCURVE",
"916 94 OFFCURVE",
"898 176 CURVE",
"810 156 LINE",
"836 40 OFFCURVE",
"871 0 OFFCURVE",
"952 0 CURVE SMOOTH",
"999 0 OFFCURVE",
"1164 0 OFFCURVE",
"1279 0 CURVE SMOOTH",
"1570 0 OFFCURVE",
"1868 -8 OFFCURVE",
"1868 362 CURVE SMOOTH",
"1868 524 OFFCURVE",
"1759 636 OFFCURVE",
"1602 636 CURVE SMOOTH",
"1303 636 OFFCURVE",
"965 339 OFFCURVE",
"903 20 CURVE",
"991 2 LINE"
);
}
);
width = 1908;
},
{
layerId = "9AB624CD-9C19-4372-9845-4C197A276709";
width = 600;
}
);
},
{
glyphname = "sad-regular";
layers = (
{
layerId = "7C6EC3B8-53E3-46D5-865A-ED8DFE2E3A2E";
paths = (
{
closed = 1;
nodes = (
"55 20 OFFCURVE",
"99 0 OFFCURVE",
"153 0 CURVE SMOOTH",
"199 0 OFFCURVE",
"365 0 OFFCURVE",
"480 0 CURVE SMOOTH",
"772 0 OFFCURVE",
"1024 -7 OFFCURVE",
"1024 317 CURVE SMOOTH",
"1024 460 OFFCURVE",
"930 546 OFFCURVE",
"803 546 CURVE SMOOTH",
"566 546 OFFCURVE",
"214 305 OFFCURVE",
"148 -34 CURVE",
"177 -40 LINE",
"240 281 OFFCURVE",
"581 521 OFFCURVE",
"803 521 CURVE SMOOTH",
"914 521 OFFCURVE",
"995 443 OFFCURVE",
"995 318 CURVE SMOOTH",
"995 20 OFFCURVE",
"773 30 OFFCURVE",
"498 30 CURVE SMOOTH",
"378 30 OFFCURVE",
"205 30 OFFCURVE",
"154 30 CURVE SMOOTH",
"117 30 OFFCURVE",
"83 40 OFFCURVE",
"85 125 CURVE",
"55 121 LINE"
);
}
